<?xml version="1.0" encoding="UTF-8" standalone="no"?>
<!-- Created with Inkscape (http://www.inkscape.org/) -->

<svg
   xmlns:dc="http://purl.org/dc/elements/1.1/"
   xmlns:cc="http://creativecommons.org/ns#"
   xmlns:rdf="http://www.w3.org/1999/02/22-rdf-syntax-ns#"
   xmlns:svg="http://www.w3.org/2000/svg"
   xmlns="http://www.w3.org/2000/svg"
   xmlns:sodipodi="http://sodipodi.sourceforge.net/DTD/sodipodi-0.dtd"
   xmlns:inkscape="http://www.inkscape.org/namespaces/inkscape"
   width="10"
   height="9.3389883"
   viewBox="0 0 10 9.3389883"
   id="svg3619"
   version="1.1"
   inkscape:version="0.91 r13725"
   sodipodi:docname="ch_tribute.svg">
  <defs
     id="defs3621" />
  <sodipodi:namedview
     id="base"
     pagecolor="#ffffff"
     bordercolor="#666666"
     borderopacity="1.0"
     inkscape:pageopacity="0.0"
     inkscape:pageshadow="2"
     inkscape:zoom="14.782969"
     inkscape:cx="17.60954"
     inkscape:cy="2.1213675"
     inkscape:document-units="px"
     inkscape:current-layer="layer1"
     showgrid="false"
     units="px"
     inkscape:window-width="1920"
     inkscape:window-height="1027"
     inkscape:window-x="1912"
     inkscape:window-y="-8"
     inkscape:window-maximized="1"
     fit-margin-top="0"
     fit-margin-left="0"
     fit-margin-right="0"
     fit-margin-bottom="0" />
  <metadata
     id="metadata3624">
    <rdf:RDF>
      <cc:Work
         rdf:about="">
        <dc:format>image/svg+xml</dc:format>
        <dc:type
           rdf:resource="http://purl.org/dc/dcmitype/StillImage" />
        <dc:title></dc:title>
      </cc:Work>
    </rdf:RDF>
  </metadata>
  <g
     inkscape:label="Layer 1"
     inkscape:groupmode="layer"
     id="layer1"
     transform="translate(0,2.3008685)">
    <g
       id="g4645">
      <path
         id="path4615"
         d="M 4.2027044,6.1030878 C 3.9367664,5.5888202 3.7191807,4.9699422 3.7191807,4.7278031 3.7191807,4.4856641 3.3535432,4.1209549 2.9066526,3.9173379 2.2479465,3.6172114 2.0036705,3.6375794 1.6163215,4.0249287 1.0805611,4.5606891 0.36149948,4.6500853 0.09223655,4.2144083 -0.1941786,3.7509791 0.24110279,2.9582638 0.89614716,2.7503607 1.2306279,2.6442009 1.5007164,2.2697029 1.5007164,1.9120807 1.5007164,1.4824314 1.3490812,1.3238711 1.0485024,1.4392138 0.50895066,1.6462593 -0.22500004,0.8674268 0.06598071,0.39661005 0.17842801,0.2146665 0.72551398,0.06340115 1.2817277,0.06046454 L 2.2930251,0.05512438 1.2630238,-0.60450565 C -0.45054338,-1.7019029 0.13874253,-2.8308538 1.947736,-1.916274 c 0.8195894,0.4143627 1.0403754,0.4100874 1.9807717,-0.038356 0.9680921,-0.461651 1.1486415,-0.461651 2.1167336,0 0.9403963,0.4484437 1.1611823,0.452719 1.9807717,0.038356 1.8089935,-0.9145798 2.398279,0.2143711 0.6847122,1.31176835 L 7.680724,0.05512438 8.7206719,0.06046454 C 9.3781889,0.06383977 9.8322173,0.25238452 9.955316,0.57317445 10.177192,1.1513747 9.5331454,1.6724866 8.8979269,1.4287303 8.625534,1.3242032 8.4730326,1.5053506 8.4730326,1.9334372 c 0,0.3672649 0.1324287,0.6677543 0.294286,0.6677543 0.5387518,0 1.2659554,0.9624513 1.0844966,1.4353268 C 9.6213934,4.6369874 8.9643911,4.6318923 8.3574275,4.0249284 7.9700786,3.6375794 7.7258025,3.6172114 7.0670964,3.9173379 6.6202058,4.1209549 6.2545683,4.4856641 6.2545683,4.7278031 c 0,0.641057 -0.9159395,2.3103167 -1.2676938,2.3103167 -0.1653555,0 -0.518232,-0.4207644 -0.7841701,-0.935032 z"
         style="fill:#000000"
         inkscape:connector-curvature="0" />
      <path
         d="m 9.2991155,-1.7491424 c -0.2957213,-0.2957211 -1.4599298,0.2899014 -1.4599298,0.7343767 0,0.38689861 0.1294341,0.37652602 0.8021992,-0.064287 0.4412098,-0.2890916 0.7371884,-0.5906321 0.6577306,-0.67009 z m -7.5220783,0.1985282 c -0.89633245,-0.56779 -1.39765848,-0.2803665 -0.5932443,0.3401226 0.4733743,0.36513964 0.8397515,0.47512229 0.9101678,0.27322287 C 2.1587829,-1.1231294 2.0161674,-1.3991348 1.7770372,-1.5506142 Z M 9.423803,0.69965069 c 0,-0.17430791 -0.2139233,-0.31692347 -0.4753852,-0.31692347 -0.2614618,0 -0.4753852,0.14261556 -0.4753852,0.31692347 0,0.17430791 0.2139234,0.31692351 0.4753852,0.31692351 0.2614619,0 0.4753852,-0.1426156 0.4753852,-0.31692351 z m -7.9230866,0 c 0,-0.17430791 -0.2139234,-0.31692347 -0.4753852,-0.31692347 -0.26146188,0 -0.47538522,0.14261556 -0.47538522,0.31692347 0,0.17430791 0.21392334,0.31692351 0.47538522,0.31692351 0.2614618,0 0.4753852,-0.1426156 0.4753852,-0.31692351 z M 4.3573279,3.4757266 C 4.8564386,3.1640267 5.1163827,3.1634477 5.6119448,3.4729377 6.887674,4.269644 8.8252287,2.4022805 7.9182755,1.2501578 7.748538,1.0345298 7.5149448,0.46182688 7.3991796,-0.02252251 7.2591986,-0.60818662 6.8199443,-1.0790033 6.0877858,-1.4281453 c -1.024818,-0.4887018 -1.1770047,-0.4887018 -2.2018226,0 -0.7321585,0.349142 -1.1714128,0.81995868 -1.3113935,1.40562279 C 2.4588042,0.46182688 2.225211,1.0345298 2.0554735,1.2501512 1.4235766,2.0528641 2.3120747,3.5053542 3.6442501,3.8474357 3.6901923,3.8592316 4.0110773,3.6919638 4.3573279,3.4757266 Z M 9.423803,3.7104233 c 0,-0.2614618 -0.2139233,-0.4753852 -0.4753852,-0.4753852 -0.82478,0 -0.5574975,0.6245969 0.3961544,0.9257503 0.043577,0.013761 0.079231,-0.1889032 0.079231,-0.4503651 z M 1.5007164,3.5180543 c 0,-0.1556589 -0.2139234,-0.2830162 -0.4753852,-0.2830162 -0.26146188,0 -0.47538522,0.2094475 -0.47538522,0.4654386 0,0.2835175 0.18580875,0.3941371 0.47538522,0.2830161 C 1.286793,3.8831606 1.5007164,3.6737131 1.5007164,3.5180543 Z M 5.5516036,5.5155465 C 5.7805694,4.8587347 5.7473086,4.4707706 5.4241449,4.0288173 c -0.4285338,-0.5860545 -0.4460071,-0.5860545 -0.8745408,0 -0.3231637,0.4419533 -0.3564245,0.8299174 -0.1274587,1.4867292 0.3928314,1.1268766 0.7366268,1.1268766 1.1294582,0 z"
         style="fill:#00ffff"
         id="path4563"
         inkscape:connector-curvature="0" />
      <path
         id="path4605"
         d="m 2.609818,1.3336456 c -0.7236884,0 -0.5666544,1.1675008 0.2321217,1.7269854 C 4.1109659,3.9494914 4.8347939,3.0832372 3.7388578,1.9873003 3.3793478,1.6277902 2.8712798,1.3336456 2.609818,1.3336456 Z m 0.4920978,0.6765575 c 0.2696169,0.034256 0.6171343,0.3292622 0.6171343,0.6097062 0,0.1640209 -0.1343331,0.2983537 -0.2983536,0.2983537 -0.3739254,3e-7 -0.7735855,-0.6185253 -0.5465694,-0.8455417 0.056754,-0.056754 0.1379165,-0.073937 0.2277887,-0.062518 z"
         style="fill:#000000"
         inkscape:connector-curvature="0" />
      <path
         id="path4601"
         d="m 7.3636699,1.3336456 c -0.5050368,3e-7 -1.743079,1.0875641 -1.743079,1.5313844 0,0.1452568 0.09549,0.3591801 0.2116949,0.4753852 C 6.1429859,3.6511155 6.353579,3.6058525 7.1346432,3.0587742 7.9311872,2.5008529 8.0861594,1.3336456 7.3636699,1.3336456 Z M 7.0232248,2.0033943 C 7.1532129,2.0145373 7.2052082,2.1259543 7.145785,2.3042238 7.0695253,2.5330032 6.8199481,2.7825801 6.591169,2.8588398 6.3534764,2.9380707 6.2346301,2.8192244 6.313861,2.5815318 6.3901206,2.3527527 6.6396979,2.1031757 6.868477,2.0269157 6.9279001,2.007108 6.9798954,1.9996793 7.0232248,2.0033937 Z"
         style="fill:#000000"
         inkscape:connector-curvature="0" />
    </g>
  </g>
</svg>
