<?xml version="1.0" encoding="UTF-8" standalone="no"?>
<!-- Created with Inkscape (http://www.inkscape.org/) -->

<svg
   xmlns:dc="http://purl.org/dc/elements/1.1/"
   xmlns:cc="http://creativecommons.org/ns#"
   xmlns:rdf="http://www.w3.org/1999/02/22-rdf-syntax-ns#"
   xmlns:svg="http://www.w3.org/2000/svg"
   xmlns="http://www.w3.org/2000/svg"
   xmlns:sodipodi="http://sodipodi.sourceforge.net/DTD/sodipodi-0.dtd"
   xmlns:inkscape="http://www.inkscape.org/namespaces/inkscape"
   width="0.99999994"
   height="0.90624994"
   viewBox="0 0 0.99999994 0.90624994"
   id="svg7591"
   version="1.1"
   inkscape:version="0.91 r13725"
   sodipodi:docname="core.svg">
  <defs
     id="defs7593" />
  <sodipodi:namedview
     id="base"
     pagecolor="#ffffff"
     bordercolor="#666666"
     borderopacity="1.0"
     inkscape:pageopacity="0.0"
     inkscape:pageshadow="2"
     inkscape:zoom="83.942129"
     inkscape:cx="-0.81415324"
     inkscape:cy="0.46733211"
     inkscape:document-units="px"
     inkscape:current-layer="layer1"
     showgrid="false"
     fit-margin-top="0"
     fit-margin-left="0"
     fit-margin-right="0"
     fit-margin-bottom="0"
     inkscape:window-width="1920"
     inkscape:window-height="1027"
     inkscape:window-x="-8"
     inkscape:window-y="-8"
     inkscape:window-maximized="1"
     units="px" />
  <metadata
     id="metadata7596">
    <rdf:RDF>
      <cc:Work
         rdf:about="">
        <dc:format>image/svg+xml</dc:format>
        <dc:type
           rdf:resource="http://purl.org/dc/dcmitype/StillImage" />
        <dc:title></dc:title>
      </cc:Work>
    </rdf:RDF>
  </metadata>
  <g
     inkscape:label="Layer 1"
     inkscape:groupmode="layer"
     id="layer1">
    <g
       id="g3614">
      <path
         id="path7425"
         d="M 0.19259491,0.88229906 C 0.13815005,0.86653875 0.1108337,0.83657688 0.11721884,0.79961769 0.12272652,0.76773838 0.09473933,0.63149259 0.05502465,0.49685041 0.0153103,0.36220478 -0.00824854,0.24302289 0.00267186,0.23199755 c 0.01092005,-0.0110288 0.06580551,0.0243992 0.12196706,0.0787258 0.0561615,0.0543266 0.10211211,0.13375591 0.10211211,0.17650535 0,0.0427529 0.013106,0.0859093 0.0291242,0.0959035 0.0160182,0.009994 0.0569413,-0.00238 0.09094,-0.027465 0.0637278,-0.0470499 0.0572269,-0.0870612 -0.0347621,-0.21395422 L 0.25976565,0.26958438 0.36585831,0.13479391 C 0.42420925,0.06065829 0.48457303,0 0.49999997,0 c 0.015427,0 0.0757907,0.06065829 0.13414169,0.13479391 l 0.10609265,0.13479047 -0.0522876,0.0721285 c -0.0919889,0.12689306 -0.0984898,0.16690428 -0.034762,0.21395422 0.0339986,0.0251027 0.0749218,0.0374592 0.09094,0.027465 0.0160182,-0.009994 0.0291242,-0.0531506 0.0291242,-0.0959035 0,-0.0427494 0.0459506,-0.12217875 0.10211209,-0.17650535 0.0561616,-0.0543266 0.111047,-0.0897545 0.12196706,-0.0787258 0.0109204,0.0110253 -0.0126384,0.13020723 -0.0523528,0.26485286 -0.0397147,0.13464218 -0.0677019,0.27088797 -0.0621942,0.30276728 0.006385,0.0369592 -0.0209312,0.0669211 -0.0753761,0.0826814 -0.11030959,0.0319345 -0.50450058,0.0319345 -0.61481015,0 z"
         style="fill:#000000"
         inkscape:connector-curvature="0"
         class="outline" />
      <path
         id="path7423"
         d="m 0.80740506,0.84491916 c 0.0532586,-0.0172191 -0.0624148,-0.0276099 -0.30740509,-0.0276099 -0.24499022,0 -0.36066368,0.0103908 -0.30740506,0.0276099 0.0469647,0.0151879 0.18529693,0.0276133 0.30740506,0.0276133 0.12210812,0 0.2604404,-0.0124255 0.30740509,-0.0276133 z"
         style="fill:#d40000"
         inkscape:connector-curvature="0"
         class="bg" />
      <path
         id="path6424"
         d="m 0.89095775,0.55306338 c 0.029834,-0.10361813 0.0644987,-0.21613032 0.0770326,-0.2500271 l 0.022789,-0.0616308 -0.0910971,0.0862162 c -0.0501033,0.0474189 -0.0913625,0.11923359 -0.091687,0.15958972 -3.4156e-4,0.0403561 -0.0216973,0.0910581 -0.0474951,0.11267772 -0.0257978,0.0216161 -0.0713234,0.0298411 -0.10116838,0.0182778 -0.0298446,-0.0115633 -0.0641551,-0.0524919 -0.0762457,-0.0909547 -0.0139118,-0.0442565 0.002814,-0.10323187 0.0455523,-0.16062431 l 0.0675348,-0.090696 -0.0895474,-0.12858636 c -0.0492514,-0.0707249 -0.0972329,-0.1285898 -0.10662584,-0.1285898 -0.009393,0 -0.0573744,0.0578649 -0.10662581,0.1285898 l -0.0895475,0.12858636 0.0675349,0.090696 c 0.0427392,0.0573924 0.0594641,0.11636778 0.0455523,0.16062431 -0.0120906,0.0384628 -0.0464011,0.0793914 -0.0762457,0.0909547 -0.0298449,0.0115633 -0.0753706,0.003345 -0.10116836,-0.0182778 -0.0257978,-0.0216196 -0.0471703,-0.0723216 -0.0474951,-0.11267772 -3.4157e-4,-0.0403561 -0.0415837,-0.11217078 -0.091687,-0.15958972 l -0.0910971,-0.0862162 0.02278896,0.0616308 c 0.01253393,0.0338968 0.04719863,0.14640897 0.07703264,0.2500271 l 0.054244,0.18839631 0.33671375,0 0.33671375,0 0.054244,-0.18839631 z"
         style="fill:#ff0000"
         inkscape:connector-curvature="0"
         class="bg" />
    </g>
  </g>
</svg>
