<?xml version="1.0" encoding="UTF-8" standalone="no"?>
<!-- Created with Inkscape (http://www.inkscape.org/) -->

<svg
   xmlns:dc="http://purl.org/dc/elements/1.1/"
   xmlns:cc="http://creativecommons.org/ns#"
   xmlns:rdf="http://www.w3.org/1999/02/22-rdf-syntax-ns#"
   xmlns:svg="http://www.w3.org/2000/svg"
   xmlns="http://www.w3.org/2000/svg"
   xmlns:sodipodi="http://sodipodi.sourceforge.net/DTD/sodipodi-0.dtd"
   xmlns:inkscape="http://www.inkscape.org/namespaces/inkscape"
   width="10"
   height="7.0381198"
   viewBox="0 0 10 7.0381198"
   id="svg3619"
   version="1.1"
   inkscape:version="0.91 r13725"
   sodipodi:docname="eye.svg">
  <defs
     id="defs3621" />
  <sodipodi:namedview
     id="base"
     pagecolor="#ffffff"
     bordercolor="#666666"
     borderopacity="1.0"
     inkscape:pageopacity="0.0"
     inkscape:pageshadow="2"
     inkscape:zoom="14.782969"
     inkscape:cx="17.60954"
     inkscape:cy="2.1213676"
     inkscape:document-units="px"
     inkscape:current-layer="layer1"
     showgrid="false"
     units="px"
     inkscape:window-width="1920"
     inkscape:window-height="1027"
     inkscape:window-x="-8"
     inkscape:window-y="-8"
     inkscape:window-maximized="1"
     fit-margin-top="0"
     fit-margin-left="0"
     fit-margin-right="0"
     fit-margin-bottom="0" />
  <metadata
     id="metadata3624">
    <rdf:RDF>
      <cc:Work
         rdf:about="">
        <dc:format>image/svg+xml</dc:format>
        <dc:type
           rdf:resource="http://purl.org/dc/dcmitype/StillImage" />
        <dc:title></dc:title>
      </cc:Work>
    </rdf:RDF>
  </metadata>
  <g
     inkscape:label="Layer 1"
     inkscape:groupmode="layer"
     id="layer1">
    <g
       id="g4546">
      <path
         inkscape:connector-curvature="0"
         id="bg
"
         d="M 4.9655561,6.4252758e-4 C 3.9695323,-0.02497281 2.7431196,0.71925188 1.7446428,1.5434328 1.2454044,1.9555232 0.80657205,2.3902313 0.49404757,2.7737282 0.33778518,2.9654766 0.21294811,3.1439843 0.12680429,3.3052158 0.04066077,3.4664472 -0.0154344,3.6082888 0.00377475,3.7591947 0.03712351,4.0211792 0.23935368,4.294515 0.54079864,4.6277834 0.84224392,4.9610515 1.2519886,5.3321354 1.7249581,5.6827616 2.6708969,6.3840137 3.8645636,7.0097632 4.9575594,7.0373167 6.0640398,7.0652092 7.3167789,6.3622887 8.3033478,5.5818772 8.7966319,5.1916715 9.2213328,4.7794424 9.5225703,4.4174028 9.6731893,4.2363827 9.7933779,4.0685044 9.8762802,3.9166725 9.9591828,3.7648406 10.014024,3.6323004 9.9968493,3.4872995 9.9809441,3.3530223 9.9121096,3.2317559 9.8129203,3.0868382 9.7137307,2.9419208 9.579467,2.7797747 9.4161499,2.6051775 9.0895154,2.255984 8.6473914,1.8577582 8.1495609,1.4782272 7.1538986,0.71916401 5.9492381,0.02594102 4.9655561,6.4252758e-4 Z"
         style="color:#000000;font-style:normal;font-variant:normal;font-weight:normal;font-stretch:normal;font-size:medium;line-height:normal;font-family:sans-serif;text-indent:0;text-align:start;text-decoration:none;text-decoration-line:none;text-decoration-style:solid;text-decoration-color:#000000;letter-spacing:normal;word-spacing:normal;text-transform:none;direction:ltr;block-progression:tb;writing-mode:lr-tb;baseline-shift:baseline;text-anchor:start;white-space:normal;clip-rule:nonzero;display:inline;overflow:visible;visibility:visible;opacity:1;isolation:auto;mix-blend-mode:normal;color-interpolation:sRGB;color-interpolation-filters:linearRGB;solid-color:#000000;solid-opacity:1;fill:#000000;fill-opacity:1;fill-rule:evenodd;stroke:none;stroke-width:1px;stroke-linecap:butt;stroke-linejoin:miter;stroke-miterlimit:4;stroke-dasharray:none;stroke-dashoffset:0;stroke-opacity:1;color-rendering:auto;image-rendering:auto;shape-rendering:auto;text-rendering:auto;enable-background:accumulate" />
      <path
         d="m 4.9089627,5.5757258 c 0.028305,0.00154 0.056276,0.00467 0.08489,0.00492 -0.00574,-7.31e-5 -0.012132,7.244e-4 -0.017839,6.299e-4 -0.021546,-4.725e-4 -0.045155,-0.00449 -0.067051,-0.00554 z m 4.7286404,-1.898961 c -0.01194,0.029404 -0.019193,0.054497 -0.038139,0.089196 C 9.5312186,3.8909491 9.4223454,4.0461552 9.2808173,4.2162495 8.9977613,4.5564381 8.5859417,4.9567924 8.1083458,5.3345879 7.1531544,6.090179 5.927904,6.7466215 4.9655561,6.7223611 3.9897232,6.6977599 2.8274398,6.1081498 1.9125781,5.4299357 1.4551473,5.090829 1.0585662,4.7307818 0.77455492,4.4167877 0.56291955,4.1828106 0.41964088,3.9621934 0.35502427,3.8262459 0.38008844,3.8437543 1.0536532,4.3138703 1.9611748,4.7987942 2.8856924,5.2927999 4.0322573,5.7974631 4.9704773,5.8174788 5.9164544,5.8376612 7.0777244,5.2907392 8.0166887,4.747122 8.9252166,4.2211263 9.5933899,3.7106326 9.6376031,3.6767648 Z M 5.0104619,2.8038704 c 0.4157953,0 0.7437135,0.3164321 0.7437138,0.7018836 0,0.3854509 -0.3279185,0.7012682 -0.7437138,0.7012682 -0.4157953,0 -0.7443287,-0.3158173 -0.7443287,-0.7012682 0,-0.3854518 0.3285334,-0.7018836 0.7443287,-0.7018836 z m 0,-0.2503652 c -0.5446452,0 -0.9953089,0.4243259 -0.9953089,0.9522488 0,0.5279223 0.4506637,0.9522485 0.9953089,0.9522485 0.5446452,0 0.9946941,-0.4243262 0.9946941,-0.9522485 0,-0.5279229 -0.4500489,-0.9522488 -0.9946941,-0.9522488 z m 0,-0.8778156 c 0.9369,0 1.7014986,0.8088089 1.7014986,1.8196066 0,1.0107981 -0.7645986,1.819607 -1.7014986,1.819607 -0.9368998,0 -1.7021136,-0.8088089 -1.7021136,-1.819607 -10e-8,-1.0107977 0.7652138,-1.8196066 1.7021136,-1.8196066 z M 4.2378364,1.5766508 c -0.704246,0.3193061 -1.1958471,1.0610666 -1.1958471,1.9186454 0,1.0609992 0.7531814,1.9432057 1.7297954,2.0687419 C 3.9447232,5.4834637 2.9136033,5.0396846 2.0725165,4.5902593 1.2435827,4.1473277 0.72643569,3.7848135 0.61707711,3.7093678 0.7210405,3.6219537 1.2687965,3.1538629 2.1321859,2.6021019 2.7810051,2.1874648 3.5400352,1.7845001 4.2378364,1.5766508 Z M 5.4256868,1.4566968 C 6.2528075,1.5695335 7.2171021,2.0566379 7.9976194,2.5491992 8.799069,3.0549706 9.2914335,3.474592 9.3896987,3.5568112 9.2859904,3.6354609 8.746176,4.0515592 7.8985803,4.5422777 7.0606894,5.0273783 6.0390339,5.4974439 5.2233032,5.5683442 6.2126261,5.4553983 6.9789345,4.5657661 6.9789345,3.4952962 c 0,-0.9961221 -0.6639233,-1.8356791 -1.5532477,-2.0385994 z M 4.9575594,0.31498272 C 5.7931638,0.33647215 6.9892203,0.98936444 7.9588651,1.728592 8.4436873,2.098206 8.87487,2.4871554 9.1860846,2.8198641 9.3416919,2.9862187 9.4674574,3.1391576 9.5533279,3.2646158 9.6110999,3.349022 9.6420027,3.4136761 9.6615939,3.4626936 9.6454556,3.4490056 9.0044072,2.905664 8.1237245,2.3498915 7.2319075,1.7870916 6.1078328,1.2120393 5.131031,1.1940289 4.1473169,1.1758906 2.9612196,1.7920058 2.0054654,2.4027939 1.0538204,3.0109559 0.33904437,3.620452 0.3328788,3.6257077 0.34651323,3.579465 0.36916798,3.5202517 0.4048512,3.4534663 0.47652407,3.3193192 0.59077863,3.1540106 0.73826133,2.9730359 1.0332258,2.6110867 1.4596002,2.1861101 1.9445658,1.7858009 2.9144971,0.98518246 4.1342966,0.29381015 4.9575594,0.31498272 Z"
         style="color:#000000;font-style:normal;font-variant:normal;font-weight:normal;font-stretch:normal;font-size:medium;line-height:normal;font-family:sans-serif;text-indent:0;text-align:start;text-decoration:none;text-decoration-line:none;text-decoration-style:solid;text-decoration-color:#000000;letter-spacing:normal;word-spacing:normal;text-transform:none;direction:ltr;block-progression:tb;writing-mode:lr-tb;baseline-shift:baseline;text-anchor:start;white-space:normal;clip-rule:nonzero;display:inline;overflow:visible;visibility:visible;opacity:1;isolation:auto;mix-blend-mode:normal;color-interpolation:sRGB;color-interpolation-filters:linearRGB;solid-color:#000000;solid-opacity:1;fill:#ffff00;fill-opacity:1;fill-rule:evenodd;stroke:none;stroke-width:1px;stroke-linecap:butt;stroke-linejoin:miter;stroke-miterlimit:4;stroke-dasharray:none;stroke-dashoffset:0;stroke-opacity:1;color-rendering:auto;image-rendering:auto;shape-rendering:auto;text-rendering:auto;enable-background:accumulate"
         id="path3662"
         inkscape:connector-curvature="0" />
    </g>
  </g>
</svg>
