<?xml version="1.0" encoding="UTF-8" standalone="no"?>
<!-- Created with Inkscape (http://www.inkscape.org/) -->

<svg
   xmlns:dc="http://purl.org/dc/elements/1.1/"
   xmlns:cc="http://creativecommons.org/ns#"
   xmlns:rdf="http://www.w3.org/1999/02/22-rdf-syntax-ns#"
   xmlns:svg="http://www.w3.org/2000/svg"
   xmlns="http://www.w3.org/2000/svg"
   xmlns:sodipodi="http://sodipodi.sourceforge.net/DTD/sodipodi-0.dtd"
   xmlns:inkscape="http://www.inkscape.org/namespaces/inkscape"
   width="72.248886mm"
   height="44.414917mm"
   viewBox="0 0 256 157.37569"
   id="svg4778"
   version="1.1"
   inkscape:version="0.91 r13725"
   sodipodi:docname="garden-of-terror.svg">
  <defs
     id="defs4780" />
  <sodipodi:namedview
     id="base"
     pagecolor="#ffffff"
     bordercolor="#666666"
     borderopacity="1.0"
     inkscape:pageopacity="0.0"
     inkscape:pageshadow="2"
     inkscape:zoom="2.1961681"
     inkscape:cx="62.557528"
     inkscape:cy="102.38851"
     inkscape:document-units="px"
     inkscape:current-layer="svg4778"
     showgrid="false"
     fit-margin-top="0"
     fit-margin-left="0"
     fit-margin-right="0"
     fit-margin-bottom="0"
     inkscape:window-width="1920"
     inkscape:window-height="1027"
     inkscape:window-x="-8"
     inkscape:window-y="-8"
     inkscape:window-maximized="1" />
  <metadata
     id="metadata4783">
    <rdf:RDF>
      <cc:Work
         rdf:about="">
        <dc:format>image/svg+xml</dc:format>
        <dc:type
           rdf:resource="http://purl.org/dc/dcmitype/StillImage" />
        <dc:title />
      </cc:Work>
    </rdf:RDF>
  </metadata>
  <g
     inkscape:label="Layer 1"
     inkscape:groupmode="layer"
     id="layer1">
    <g
       id="g6547">
      <path
         inkscape:connector-curvature="0"
         class="border"
         id="path6001"
         d="m 126.7793,-51.494141 -6.26953,5.978516 -4.75391,4.537109 -2.625,0 -9.49024,0 7.88086,8.214844 3.35547,3.496094 0.39453,1.636719 0.25782,1.078125 -0.21289,0.255859 -0.26368,0.318359 -1.34765,0 -1.45508,0 -1.95703,-2.042968 -3.43164,-3.582032 -20.345705,0.002 -20.337891,0.0039 -6.595703,6.820312 -6.5625,6.785156 0,3.671876 0,1.603515 -2.521484,2.443359 -4.041016,3.9160161 0,2.9238281 0,0.875 -1.361328,1.4472657 -1.296875,1.38281248 -5.095703,0 -7.216797,0 L 17.640625,14.177734 2.2265625,29.658203 l 4.4726563,2.560547 0.3730468,0.214844 -0.00586,1.072265 -0.00977,1.478516 -3.4453125,3.330078 -4.9667969,4.794922 0,11.712891 0,12.044922 1.87500005,1.158203 0,1.333984 -1.140625,-0.171875 -4.68164065,-0.701172 -4.5898437,1.835938 -4.5429689,1.816406 -2.71875,3.232422 -2.671875,3.175781 -1.09375,4.060547 -1.128906,4.195312 0.998047,3.482422 c 0.52277,1.822803 1.51887,4.296751 2.421875,6.042969 l 1.77539,3.433594 4.386719,2.464841 4.3066408,2.41992 4.7480468,-0.004 4.7910156,-0.004 3.5371094,-2.1582 c 2.1011455,-1.28123 4.4306012,-3.473521 6.0000004,-5.541017 l 2.732422,-3.597656 0.732421,-3.949219 0.759766,-4.095703 -1.769531,-4.234375 c -0.1542,-0.369053 -0.197267,-0.487785 -0.324219,-0.791016 l 1.542969,0 4.220703,4.167969 4.208984,4.15625 0,8.287109 0,10.296878 2.197266,2.42969 2.296875,2.5371 5.302734,0 5.15625,0 4.345703,-3.92773 c 1.854421,-1.67536 3.110704,-2.43001 3.414063,-2.52148 -0.0023,10e-4 0.07842,0.0257 0.332031,0.27929 l 0.392578,0.39258 0,6.58203 0,8.69922 3.13086,2.94141 1.55664,1.46289 0,2.6875 0,4.77343 3.212891,3.35547 3.257812,3.40039 24.652344,0 22.476562,0 0.9668,1.06641 3.49414,3.86133 7.59961,-7.77539 c 1.56544,-1.60159 3.16455,-3.19863 4.46679,-4.47071 1.30225,-1.27206 2.43213,-2.31072 2.58985,-2.4375 l 0.11914,-0.0957 0.88672,0.58008 1.27734,0.83789 0,0.24023 0,0.5254 -2.04297,1.95507 -3.58203,3.4336 0,2.76562 0,4.20117 8.87891,0 5.32031,0 1.49414,1.54102 0,0.002 4.86523,5.01953 3.96876,0 3.94531,0 1.75586,-1.75586 0.32226,-0.32421 4.79102,-0.15039 4.55664,-0.14258 0.21875,0.26367 1.75,2.10937 5.54883,0 5.41992,0 5.35156,-5.43359 3.88281,-3.94141 3.91016,0 7.45703,0 0,-3.24804 c 0,-0.92373 -0.2306,-1.1302 -0.36133,-1.38086 -0.13072,-0.25066 -0.25616,-0.43984 -0.39258,-0.63477 -0.27281,-0.38986 -0.59192,-0.78517 -0.97265,-1.22851 -0.76146,-0.88668 -1.75643,-1.93698 -2.85742,-3.00391 -0.99787,-0.96699 -2.02538,-2.05009 -2.83985,-2.97851 -0.81447,-0.92844 -1.47737,-1.86444 -1.47461,-1.85938 l -0.0762,-0.13867 0.87891,-0.93555 c 0.60328,-0.64217 1.012,-1.0031 1.23828,-1.17187 -0.17897,0.0139 0.74362,0.44633 2.57422,2.22851 l 4.05469,3.94727 5.24218,-0.0273 c 2.43531,-0.0131 11.22779,-0.22132 19.74414,-0.46289 l 16.45118,-0.46679 5.62304,-5.53907 5.66797,-5.58398 0,-4.70117 0,-2.55469 2.46875,-2.26367 4.09375,-3.74805 0,-2.38867 c 0,0.97884 -0.0125,0.22093 0.3418,-0.33008 0.35429,-0.551 0.90511,-1.25484 1.48242,-1.85742 l 1.78125,-1.859376 5.07227,0 7.17382,0 12.69727,-12.669922 12.70117,-12.671874 0,-4.833985 0,-2.75 4.41211,-4.359375 5.90039,-5.826172 0,-8.919922 0,-8.820312 -3.48633,-3.970703 -2.15039,-2.449219 0.18164,-1.876953 0.0293,-0.302735 c 1.65633,0.252045 3.84376,0.413057 6.23437,0.457032 l 5.63086,0.103515 4.1543,-3.169921 c 2.14362,-1.635371 4.37623,-3.776807 5.62305,-5.679688 l 1.99805,-3.048828 0,-5.564453 0,-5.4941409 -2.23633,-3.8261719 -2.22461,-3.81249995 -4.26953,-2.48046875 -4.36329,-2.5351563 -5.72851,0.4082032 -5.69141,0.40625 -3.06836,2.2910156 c -1.68832,1.26052317 -3.6366,3.2266312 -4.92187,4.9472656 l -2.42969,3.2539063 0.002,6.1542971 c 6.2e-4,1.523539 0.0557,3.105906 0.14454,4.470703 0.0648,0.995007 0.17332,1.693889 0.29101,2.427734 l -1.50586,0.171875 -3.71094,-3.654297 -3.81445,-3.757812 0,-4.2343751 0,-6.3886719 -2.69726,-2.44140625 -1.05274,-0.95312495 0,-2.0273438 0,-5.6347656 -8.77734,0 -7.28125,0 -3.22656,3.0917968 -0.57618,0.5507813 -0.7539,-0.8964844 -1.88477,-2.2402343 0,-4.9941408 0,-7.082031 -2.31055,-1.916016 -0.50195,-0.417968 0,-0.746094 0,-0.957032 0.74219,-0.820312 2.99414,-3.310547 -6.14063,-6.048828 -5.15234,-5.072266 -26.08203,-0.330078 -26.13477,-0.330078 -3.79492,3.818359 -2.33789,2.351563 -0.3125,0.0078 c -1.53824,0.03475 -2.03523,0.507226 -2.96484,1.009765 -0.92961,0.50254 -1.93096,1.147493 -2.88477,1.875 l -2.40039,1.832031 -1.5918,0 -0.71679,0 -0.11328,-0.292968 0.42578,-0.681641 c 0.40345,-0.646028 0.7273,-1.323363 0.98242,-1.996094 0.25512,-0.672731 0.48242,-1.223929 0.48242,-2.191406 0,0.927167 -0.0433,0.317607 0.22461,-0.115234 0.26786,-0.432842 0.6949,-0.99858 1.13477,-1.466797 l 5.99609,-6.38086 -10.48047,0 -3.70703,0 -3.74414,-3.537109 -5.18945,-4.900391 -3.5625,0 -3.67774,0 -2.30664,2.548828 -0.80273,0.884766 -3.98047,-0.06641 -4.21485,-0.07031 -0.99414,-0.853515 -2.3164,-1.982422 -5.27735,-0.324219 -5.52929,-0.339844 z m 0.93554,2.5625 4.44141,0.271485 4.43945,0.273437 1.67969,1.4375 1.67969,1.439453 5.11523,0.08594 5.11328,0.08594 1.56446,-1.726562 1.5625,-1.726563 2.56836,0 2.56836,0 4.46679,4.21875 4.4668,4.21875 4.70117,0 4.70117,0 -2.03711,2.169922 c -1.12113,1.19339 -2.03906,2.674673 -2.03906,3.292969 0,0.618295 -0.48894,1.90733 -1.08594,2.863281 l -1.08593,1.738282 0.58789,1.529296 0.58789,1.53125 2.43554,0 2.43555,0 3.07227,-2.34375 c 1.69005,-1.289063 3.66585,-2.356674 4.39062,-2.373046 l 1.31836,-0.03125 3.04883,-3.066407 3.04883,-3.066406 25.07617,0.316406 25.07617,0.316407 4.4336,4.367187 4.43554,4.367187 -1.38867,1.533204 -1.38672,1.533203 0,1.921875 0,1.919922 1.40625,1.167968 1.40625,1.166016 0,5.908203 0,5.9062501 2.4707,2.9375 2.47266,2.9375 2.50195,-2.3964843 2.5,-2.3964844 6.27735,0 6.27734,0 0,3.1347656 0,3.13671875 1.875,1.69726565 1.875,1.6972656 0,5.2792969 0,5.2812501 4.56055,4.492187 4.56054,4.492188 2.70508,-0.308594 2.70508,-0.308594 -0.4668,-1.875 c -0.25663,-1.03125 -0.46757,-4.271478 -0.46875,-7.199218 l -0.002,-5.322266 1.9336,-2.5878906 c 1.06309,-1.423212 3.04934,-3.4205382 4.41406,-4.43945315 l 2.48047,-1.85351565 4.96093,-0.3535156 4.96094,-0.3535156 3.69727,2.14843748 3.69726,2.14843752 1.89453,3.2421875 1.89454,3.2441406 0,4.8164065 0,4.818359 -1.5879,2.423828 c -0.87332,1.332854 -3.14517,3.612152 -5.04882,5.064453 l -3.46289,2.640625 -4.75977,-0.08789 c -2.61867,-0.04817 -5.60547,-0.25911 -6.63672,-0.46875 l -1.875,-0.38086 -0.28711,2.953125 -0.28711,2.955079 2.86524,3.263671 2.86523,3.261719 0,7.878906 0,7.876954 -5.15625,5.091796 -5.15625,5.091797 0,3.794922 0,3.796875 -11.9668,11.939453 -11.96679,11.939453 -6.13867,0 -6.14063,0 -2.51758,2.628906 c -1.38553,1.44618 -2.51953,3.20936 -2.51953,3.91797 l 0,1.28906 -3.28125,3.00391 -3.28125,3.00586 0,3.65625 0,3.65625 -4.92187,4.84765 -4.92188,4.84961 -15.46875,0.4375 c -8.50781,0.24132 -17.36719,0.45044 -19.6875,0.46289 l -4.21875,0.0215 -3.32031,-3.23242 c -3.94428,-3.83996 -4.60753,-3.92658 -7.37891,-0.97657 l -2.11718,2.25391 0.94335,1.72852 c 0.51898,0.95099 2.66426,3.3973 4.76758,5.43554 2.10332,2.03824 3.82422,4.04215 3.82422,4.45313 l 0,0.74804 -4.95703,0 -4.95703,0 -4.61719,4.6875 -4.61719,4.6875 -4.37304,0 -4.375,0 -1,-1.20507 -1,-1.20703 -5.7793,0.18359 -5.77734,0.18164 -1.02344,1.02344 -1.02344,1.02343 -2.91015,0 -2.91016,0 -3.17969,-3.28125 -3.17969,-3.28125 -6.3789,0 -6.37891,0 0,-1.70117 0,-1.69922 2.8125,-2.69336 2.8125,-2.69531 0,-1.5918 0,-1.59179 -2.40625,-1.57617 -2.40625,-1.57813 -1.53711,1.23438 c -0.84473,0.67902 -4.11915,3.87826 -7.27734,7.10937 l -5.74219,5.875 -1.71094,-1.89062 -1.71093,-1.88868 -23.585942,0 -23.583984,0 -2.519532,-2.63086 -2.519531,-2.6289 0,-3.76953 0,-3.76953 -2.34375,-2.20118 -2.34375,-2.20312 0,-7.61719 0,-7.61719 -1.125,-1.125 c -1.7978,-1.79779 -3.317043,-1.34224 -7.189453,2.15625 l -3.630859,3.28125 -4.195313,0 -4.193359,0 -1.552735,-1.71484 -1.550781,-1.71484 0,-9.333988 0,-9.332031 -4.951172,-4.890625 -4.951171,-4.888672 -3.017579,0 c -3.5211497,0 -3.4248161,-0.26674 -1.535156,4.25586 l 1.482422,3.546875 -0.625,3.363281 -0.623047,3.365234 -2.3730468,3.125 c -1.3053699,1.71967 -3.696443,3.934487 -5.3125,4.919926 l -2.93749995,1.79101 -4.09179685,0.004 -4.0898438,0.004 -3.7363286,-2.0996 -3.734374,-2.099614 -1.431641,-2.767578 c -0.787212,-1.522301 -1.794159,-4.033462 -2.238281,-5.582032 l -0.808594,-2.816406 0.949219,-3.525391 0.949218,-3.523437 2.316407,-2.751953 2.314453,-2.751953 3.9609372,-1.585938 3.9609376,-1.583984 4.0117187,0.601562 4.0117187,0.601563 0,-2.814453 0,-2.814454 -0.9375,-0.580078 -0.9375,-0.580078 0,-10.65039 0,-10.650391 4.203125,-4.060547 4.203125,-4.058594 0.015625,-2.53125 0.015625,-2.533203 -1.640625,-0.9375 -1.640625,-0.939453 13.1113278,-13.169922 13.113282,-13.1699216 6.177734,0 6.177734,0 2.03711,-2.1699219 2.039062,-2.1699219 0,-1.8652344 0,-1.8652343 3.28125,-3.1796875 3.28125,-3.1816404 0,-2.660156 0,-2.660157 5.859375,-6.058593 5.859375,-6.058594 19.277344,-0.0039 19.277345,-0.002 2.69531,2.8125 2.69531,2.8125 2.52149,0 2.52148,0 1.01367,-1.220703 1.01368,-1.220703 -0.55274,-2.294922 -0.55273,-2.294922 -3.82227,-3.984375 -3.82226,-3.984375 3.62695,0 3.625,0 5.48047,-5.226562 5.47851,-5.226563 z"
         style="color:#000000;font-style:normal;font-variant:normal;font-weight:normal;font-stretch:normal;font-size:medium;line-height:normal;font-family:sans-serif;text-indent:0;text-align:start;text-decoration:none;text-decoration-line:none;text-decoration-style:solid;text-decoration-color:#000000;letter-spacing:normal;word-spacing:normal;text-transform:none;direction:ltr;block-progression:tb;writing-mode:lr-tb;baseline-shift:baseline;text-anchor:start;white-space:normal;clip-rule:nonzero;display:inline;overflow:visible;visibility:visible;opacity:1;isolation:auto;mix-blend-mode:normal;color-interpolation:sRGB;color-interpolation-filters:linearRGB;solid-color:#000000;solid-opacity:1;fill:#000000;fill-opacity:1;fill-rule:nonzero;stroke:none;stroke-width:5;stroke-linecap:butt;stroke-linejoin:miter;stroke-miterlimit:4;stroke-dasharray:none;stroke-dashoffset:0;stroke-opacity:1;color-rendering:auto;image-rendering:auto;shape-rendering:auto;text-rendering:auto;enable-background:accumulate" />
      <path
         inkscape:connector-curvature="0"
         class="bg"
         id="path5997"
         d="m 138.95684,145.73934 -3.18031,-3.28125 -6.37859,0 -6.3786,0 0,-1.6996 0,-1.6996 2.8125,-2.69455 2.8125,-2.69454 0,-1.59178 0,-1.59178 -2.40648,-1.57679 -2.4065,-1.5768 -1.53589,1.2346 c -0.84473,0.67902 -4.11984,3.87824 -7.27803,7.10935 l -5.74215,5.87476 -1.71078,-1.89038 -1.71077,-1.89039 -23.585564,0 -23.58555,0 -2.51914,-2.62942 -2.519149,-2.62943 0,-3.76965 0,-3.76966 -2.34375,-2.20184 -2.34375,-2.20184 0,-7.61782 0,-7.61784 -1.125,-1.125 c -1.7978,-1.79779 -3.31664,-1.34224 -7.18905,2.15625 l -3.63196,3.28125 -4.1942,0 -4.1942,0 -1.55155,-1.71444 -1.55155,-1.71445 0,-9.333205 0,-9.333214 -4.951349,-4.88985 -4.95136,-4.88985 -3.01739,0 c -3.5211503,0 -3.4249103,-0.26679 -1.53525,4.25581 l 1.48216,3.5473 -0.62361,3.36407 -0.6236,3.36407 -2.3733903,3.126704 c -1.30537,1.71967 -3.695618,3.93294 -5.311675,4.918375 l -2.93828535,1.79167 -4.09110505,0.004 -4.091106,0.004 -3.7351783,-2.09929 -3.735179,-2.099285 -1.431295,-2.76782 c -0.787212,-1.5223 -1.794667,-4.034824 -2.238789,-5.583394 l -0.807493,-2.81556 0.949104,-3.5247 0.949103,-3.5247 2.315602,-2.75194 2.315602,-2.75194 3.9608043,-1.58479 3.960804,-1.58481 4.01143805,0.60156 4.01143835,0.60155 0,-2.81462 0,-2.81461 -0.9375,-0.57941 -0.9375004,-0.5794 0,-10.651036 0,-10.651033 4.2032664,-4.059269 4.203264,-4.059753 0.0155,-2.531541 0.0155,-2.53154 -1.64062,-0.939265 -1.640628,-0.939265 13.1124383,-13.16982 13.112439,-13.1698187 6.17727,0 6.17727,0 2.03842,-2.16979796 2.03842,-2.16979804 0,-1.865046 0,-1.865045 3.28125,-3.180313 3.281249,-3.1803133 0,-2.660465 0,-2.660464 5.85937,-6.05872 5.85938,-6.058719 19.27773,-0.0032 19.277734,-0.0032 2.69454,2.8125 2.69455,2.8125 2.52231,0 2.52231,0 1.01305,-1.220659 1.01307,-1.220659 -0.55229,-2.294966 -0.55229,-2.294966 -3.82242,-3.984374 -3.82243,-3.984376 3.62606,0 3.62606,0 5.47974,-5.22679 5.47974,-5.22679 4.4402,0.273049 4.44019,0.273049 1.67952,1.438116 1.67952,1.438116 5.11478,0.08614 5.11478,0.08614 1.5627,-1.726768 1.56271,-1.726768 2.56885,0 2.56886,0 4.46623,4.21875 4.46622,4.21875 4.70179,0 4.70179,0 -2.03843,2.169798 c -1.12113,1.19339 -2.03842,2.675676 -2.03842,3.293972 0,0.618295 -0.48845,1.906314 -1.08545,2.862265 l -1.08546,1.738092 0.58728,1.530436 0.58729,1.530437 2.43573,0 2.43572,0 3.07281,-2.34375 c 1.69005,-1.289063 3.66581,-2.357144 4.39058,-2.373516 l 1.31776,-0.02976 3.04883,-3.066702 3.04883,-3.066704 25.07617,0.31645 25.07617,0.31645 4.43467,4.367222 4.43466,4.367221 -1.38779,1.533492 -1.38779,1.533492 0,1.920764 0,1.920764 1.40625,1.167084 1.40625,1.167083 0,5.907028 0,5.9070293 2.47161,2.937335 2.4716,2.937335 2.50157,-2.396656 2.50157,-2.396656 6.27683,0 6.27682,0 0,3.135948 0,3.13595004 1.875,1.69685196 1.875,1.696851 0,5.280566 0,5.2805677 4.56095,4.492365 4.56095,4.492366 2.70468,-0.308859 2.70468,-0.308857 -0.46663,-1.875 c -0.25663,-1.03125 -0.46757,-4.270424 -0.46875,-7.198164 l -0.002,-5.3231657 1.93293,-2.587659 c 1.0631,-1.423212 3.04952,-3.421315 4.41424,-4.44022996 l 2.48132,-1.85257104 4.96076,-0.353983 4.96075,-0.353981 3.69775,2.14914904 3.69777,2.14914896 1.89376,3.242566 1.89376,3.242566 0,4.8179927 0,4.817992 -1.58786,2.423372 c -0.87332,1.332854 -3.1454,3.611618 -5.04905,5.063919 l -3.46146,2.640548 -4.76121,-0.08759 c -2.61867,-0.04817 -5.60496,-0.25911 -6.63621,-0.46875 l -1.875,-0.381163 -0.28689,2.954453 -0.28687,2.954453 2.865,3.263061 2.86501,3.263061 0,7.877016 0,7.877006 -5.15625,5.092205 -5.15625,5.092201 0,3.79555 0,3.79556 -11.96616,11.93959 -11.96617,11.939604 -6.13969,0 -6.13969,0 -2.51915,2.629425 c -1.38553,1.44618 -2.51915,3.2092 -2.51915,3.91781 l 0,1.28839 -3.28125,3.00551 -3.28125,3.0055 0,3.65559 0,3.65558 -4.92187,4.84889 -4.92188,4.84888 -15.46875,0.43878 c -8.50781,0.24132 -17.36719,0.44896 -19.6875,0.46141 l -4.21875,0.0227 -3.32078,-3.23295 c -3.94428,-3.83996 -4.60599,-3.92766 -7.37737,-0.97765 l -2.11875,2.25529 0.94361,1.72908 c 0.51898,0.95099 2.6645,3.39673 4.76782,5.43497 2.10332,2.03824 3.82422,4.04214 3.82422,4.45312 l 0,0.74724 -4.95712,0 -4.95712,0 -4.61701,4.6875 -4.61702,4.6875 -4.37357,0 -4.37358,0 -1.00039,-1.20539 -1.00038,-1.20538 -5.77861,0.18208 -5.77861,0.18209 -1.0233,1.0233 -1.0233,1.02325 -2.90984,0 -2.90985,0 -3.18031,-3.28125 z"
         style="fill:#ffff00" />
      <path
         inkscape:connector-curvature="0"
         class="nexus blue"
         id="path5979"
         d="m -2.0495037,94.079895 c 4.0981444,-1.712324 5.6395094,-3.391964 6.7935634,-7.403064 l 0.809202,-2.8125 -1.245112,-2.4893 c -0.684811,-1.36912 -1.917893,-3.16209 -2.740181,-3.98438 l -1.49506935,-1.49507 -2.97991205,0.0312 -2.97991,0.0312 -2.109376,1.75971 -2.1093753,1.75972 0,1.44623 c 0,0.79543 0.4942013,2.53089 1.0982243,3.85658 l 1.098225,2.41034 2.262372,0.56782 2.262371,0.56782 1.418424,-1.41842 1.41842405,-1.41843 -1.06200405,-1.98438 -1.062005,-1.98442 -1.473568,0 -1.473567,0 0.539629,1.40625 0.539629,1.40625 -0.908077,0 -0.908077,0 0,-1.42946 0,-1.42945 2.496412,-0.94913 2.496413,-0.94914 0.66086605,0.73796 c 0.363477,0.40589 0.909214,2.06991 1.21275,3.69784 l 0.55188395,2.95987 -2.449745,2.44974 -2.449744,2.44974 -2.196918,0.5514 c -2.212641,0.55534 -2.725281,1.382264 -1.571917,2.535624 0.900372,0.90038 1.542286,0.79892 5.556169,-0.87819 z"
         style="fill:#ffffff;stroke:#000000;stroke-opacity:1;stroke-width:0.50000001;stroke-miterlimit:4;stroke-dasharray:none" />
      <path
         inkscape:connector-curvature="0"
         class="nexus red"
         id="path5939"
         d="m 307.10564,20.678811 c 1.47402,-0.971802 3.47514,-2.972929 4.44695,-4.446948 l 1.76691,-2.680034 0.007,-2.155932 c 0.004,-1.185762 -0.61103,-3.3494817 -1.36539,-4.8082677 l -1.37158,-2.652335 -1.5176,-0.582358 c -2.54956,-0.978358 -4.51156,-0.657014 -7.64178,1.251598 l -2.99628,1.826946 1.59003,3.7850137 1.59003,3.785014 2.5,0.0095 2.5,0.0095 0.42019,-1.171875 0.42019,-1.171875 -0.84379,-1.640625 C 306.1456,9.1338603 305.40573,8.3955793 304.96554,8.3955793 l -0.80035,0 0.13021,1.171875 c 0.0716,0.6445307 -0.29167,1.2940537 -0.80729,1.4433847 l -0.9375,0.27151 -0.29939,-1.9106237 -0.29938,-1.910624 2.5228,-0.959163 2.52278,-0.959164 1.23196,1.022432 c 0.67757,0.562337 1.52171,2.341682 1.87586,3.9540997 l 0.6439,2.931669 -2.51092,2.159802 c -1.38101,1.187891 -3.14794,2.159802 -3.92653,2.159802 -0.77857,0 -2.23346,0.437706 -3.23306,0.972679 l -1.81748,0.972679 1.17598,1.335411 c 1.60645,1.824248 3.49662,1.718654 6.66851,-0.372537 z"
         style="fill:#ffffff;stroke:#000000;stroke-opacity:1;stroke-width:0.50000001;stroke-miterlimit:4;stroke-dasharray:none" />
      <path
         inkscape:connector-curvature="0"
         class="terrain"
         d="m 160.50902,-33.088795 c -0.006,-0.644531 -0.27181,-2.753906 -0.59141,-4.687501 l -0.58109,-3.515625 -2.22109,0 -2.22109,0 0,1.757812 c 0,0.966797 0.26368,3.076173 0.58593,4.687501 l 0.58595,2.929688 2.22656,0 2.22656,0 -0.0103,-1.171875 z m -27.51821,-3.322292 0.60813,-5.818334 -2.94604,0 -2.94606,0 0,4.848056 0,4.848057 1.5716,1.736594 1.5716,1.736596 0.76632,-0.766318 c 0.42147,-0.421475 1.03998,-3.384568 1.37445,-6.584651 z m 12.99728,9.181666 0,-2.34375 -3.05332,-0.294254 -3.05332,-0.294254 -0.5626,1.466129 -0.56261,1.466129 0.56261,1.466129 0.5626,1.466129 3.05332,-0.294254 3.05332,-0.294254 0,-2.34375 z m 85.78126,3.587371 0,-2.078523 -2.51915,-2.629424 -2.51914,-2.629424 -7.32461,0 -7.3246,0 0,2.058076 0,2.058076 2.31195,2.395049 2.31195,2.395049 7.5318,0.254822 7.5318,0.254821 0,-2.078522 z M 86.724246,-11.995046 c 0.20795,-0.386719 0.18853,-2.496094 -0.0431,-4.6875 l -0.42122,-3.984375 -7.87029,0 -7.87028,0 0,4.6875 0,4.6875 7.91342,0 7.91343,0 0.37807,-0.703125 z m 74.732594,17.3407053 0,-2.11242 -2.7283,-2.57507996 c -1.50056,-1.416294 -2.87166,-2.57424204 -3.04687,-2.57321804 -0.17523,10e-4 -0.41364,1.35040504 -0.52981,2.998622 l -0.21124,2.996759 1.52841,1.688878 1.52842,1.688879 1.7297,0 1.72969,0 0,-2.11242 z m -14.66944,0.390126 1.55865,-1.722294 -0.60482,-3.02411196 -0.60482,-3.02411004 -3.15229,3.055311 -3.15228,3.055312 0,1.691093 0,1.691094 2.19845,0 2.19845,0 1.55866,-1.722294 z m 44.48055,-1.042288 -0.27985,-3.329168 -4.54175,-0.87680596 -4.54174,-0.876805 -1.55201,0.972549 -1.552,0.97255096 -0.26976,1.786058 -0.26976,1.786058 1.21966,1.667985 1.21966,1.667985 3.7376,1.292675 3.7376,1.2926747 1.6861,-1.5132947 1.6861,-1.513294 -0.27985,-3.329168 z m 19.64202,9.0901307 c 0.64453,-0.511573 1.17188,-1.496447 1.17188,-2.188607 l 0,-1.258472 -1.98222,-1.0608537 -1.98223,-1.060853 -4.03486,0.605066 -4.03487,0.605066 -0.9703,1.1691327 -0.97029,1.169134 0.15742,2.089948 0.15744,2.089948 5.65807,-0.614688 5.65809,-0.614688 1.17187,-0.930133 z m -82.80646,5.935768 3.58969,-3.676183 -0.65561,-3.494793 -0.65564,-3.4947917 -2.04067,-1.704085 -2.04069,-1.704084 -3.40083,-0.03119 -3.40083,-0.03119 -1.18589,1.428905 -1.18588,1.428906 0.56936,0.56936 0.56935,0.569359 -1.07625,1.9861097 -1.07626,1.98611 0.25704,3.75 0.25703,3.75 0.967,1.171875 0.967,1.171875 2.9762,0 2.97618,0 3.5897,-3.676183 z m 23.53561,7.218572 c 1.01693,-1.145436 2.33842,-2.931471 2.93664,-3.968967 l 1.08768,-1.886355 -0.88628,-1.656034 -0.88629,-1.656033 -1.60763,0.03968 -1.60765,0.03969 -2.17128,3.399823 -2.17129,3.399822 0.54852,2.185497 0.54852,2.185489 1.18004,0 c 0.64902,0 2.01208,-0.937175 3.02902,-2.082611 z m 75.86364,4.010478 1.64901,-1.822134 2.48066,-0.287241 2.48067,-0.287242 0.29167,-4.053661 0.29166,-4.053661 -1.10959,-1.336964 -1.10957,-1.336964 -2.18237,0 -2.18238,0 -0.74971,1.171875 c -0.95129,1.486963 -10.74091,6.328125 -12.7965,6.328125 l -1.54696,0 0,1.760208 0,1.760209 1.24529,1.033499 c 1.21059,1.004701 7.07571,2.661838 10.09378,2.851911 l 1.49532,0.09417 1.64902,-1.822133 z m -24.04591,1.634633 1.125,-1.125 0,-3.462198 0,-3.462198 -1.48293,-0.569052 c -0.81561,-0.312979 -3.16365,-0.569052 -5.21788,-0.569052 l -3.73496,0 -1.81336,0.970485 -1.81337,0.970485 0,1.44538 0,1.445381 2.74038,2.740384 2.74038,2.740385 3.16587,0 3.16587,0 1.125,-1.125 z m -106.687514,-1.720484 0,-4.720485 1.51407,-2.310765 1.51408,-2.310766 3.910034,0 3.91004,0 0,-1.875 0,-1.875 -3.15248,0 -3.15247,0 -2.812504,-2.8125 -2.8125,-2.8125 -1.99773,0 -1.99773,0 -3.55516,3.471514 -3.55515,3.471514 0,1.336735 0,1.336735 3.28125,3.631952 3.28125,3.631952 0,3.278549 0,3.278549 2.8125,0 2.8125,0 0,-4.720484 z m -21.74403,8.563144 2.52528,-2.719841 1.875,-0.339873 1.875,-0.339874 0,-2.799661 0,-2.799661 -2.10937,-0.299579 -2.10938,-0.299579 -3e-5,-2.981671 -3e-5,-2.981671 -3.23113,-2.578125 -3.23113,-2.578125 -1.6169,0 -1.61689,0 -1.71445,1.551551 -1.71444,1.551551 0,7.537775 0,7.537775 2.51915,2.629424 2.51915,2.629424 1.75244,0 1.75245,0 2.52528,-2.71984 z m 51.570164,0.545039 0.29486,-3.581052 -1.15212,-1.388227 -1.15213,-1.388228 -3.3615,0.281779 -3.36149,0.281779 -0.29684,3.614213 c -0.16326,1.987818 -0.0617,4.227112 0.2258,4.976203 l 0.52264,1.361981 3.99295,-0.288703 3.99295,-0.288694 0.29488,-3.581051 z m 57.36138,2.643551 0,-2.34375 -1.77361,0 -1.7736,0 -4.55973,-4.099585 -4.55973,-4.099587 0.12812,-7.364206 c 0.18841,-10.829711 -0.35863,-11.506903 -5.79277,-7.170997 l -3.23113,2.578125 -3e-5,2.163947 -3e-5,2.163946 -3.98662,4.21941 -3.98664,4.219409 -5.15399,0.279169 -5.154,0.279167 -2.10937,-2.355217 -2.10938,-2.355217 0,-2.197932 0,-2.197932 -0.89502,0 -0.89501,0 -0.61732,3.290541 c -0.33951,1.809797 -0.67504,5.501204 -0.7456,8.203125 l -0.1283,4.912584 1.875,-0.316499 c 1.03125,-0.174074 3.20781,-0.942256 4.8368,-1.707071 l 2.96179,-1.390572 6.91794,-0.137161 6.91795,-0.137161 3.94839,3.173011 c 2.17161,1.745153 3.94838,3.524284 3.94838,3.953603 l 0,0.7806 7.96876,0 7.96875,0 0,-2.34375 z m 25.87235,11.571346 0.6705,-1.08489 -0.15984,-4.225831 -0.15984,-4.225837 -1.03887,-1.251769 -1.03889,-1.251769 -4.61532,0 -4.61532,0 -2.30113,2.301141 -2.30114,2.301131 0,1.97564 0,1.975632 1.64062,2.256272 1.64063,2.25626 5.80404,0.0294 5.80406,0.0294 0.6705,-1.0849 z m -106.73173,1.73714 2.10937,-1.91658 0,-1.58515 0,-1.585143 -1.97616,-2.512294 -1.97617,-2.512285 -5.748804,0.276479 -5.74878,0.276487 -0.33374,1.750706 c -0.18355,0.962878 -0.0605,3.572869 0.2735,5.79997 l 0.60722,4.04928 1.59209,0.40473 c 0.87565,0.22259 3.27959,0.19449 5.34209,-0.0624 l 3.750004,-0.46717 2.10938,-1.91657 z m 78.80729,6.075365 0.29167,-4.053675 -1.14932,-1.38484 -1.14931,-1.38483 -2.89236,0.28224 -2.89234,0.28225 -0.29353,4.091635 c -0.16143,2.2504 -0.0593,4.70185 0.22685,5.447671 l 0.52036,1.35604 3.52315,-0.29142 3.52317,-0.29142 0.29166,-4.053651 z m -73.88542,11.133531 0,-1.59679 -2.23682,-2.10138 -2.23682,-2.10139 -3.622554,0.29735 -3.62256,0.29733 -0.2858,3.9336 -0.28579,3.9336 4.973304,0.28515 4.97329,0.28515 1.17188,-0.81791 1.17187,-0.81792 0,-1.59679 z m 42.6031,5.36777 1.4594,-2.08359 0,-2.13516 0,-2.13515 -1.44421,0 c -0.79431,0 -2.69275,0.92309 -4.21875,2.05131 l -2.77454,2.05131 0,1.54244 c 0,2.0894 0.85206,2.79244 3.38434,2.79244 l 2.13434,0 1.45942,-2.0836 z m 83.77191,1.8961 1.125,-1.125 0,-7.90812 0,-7.908121 -2.39205,-2.21688 -2.39205,-2.21688 -2.15015,0 -2.15014,0 -1.69686,1.875 -1.69686,1.875 -2.09814,0 -2.09814,0 -0.56906,1.48293 c -0.31298,0.815611 -0.56905,2.503111 -0.56905,3.750001 l 0,2.26707 2.34375,0 2.34375,0 0,2.4063 0,2.4063 2.45502,3.2187 2.45502,3.2187 2.98248,0 2.98248,0 1.125,-1.125 z m -162.468764,0.1875 c 2.0625,-0.99626 4.21404,-1.82569 4.78121,-1.84319 0.56717,-0.0175 2.78202,-1.30008 4.92188,-2.85018 l 3.89066,-2.81838 0,-1.80595 0,-1.80594 -1.64062,-0.45312 c -0.90235,-0.24922 -3.68765,-0.73184 -6.18957,-1.07249 l -4.54894,-0.61937 -1.36359,1.94681 -1.3636,1.94681 -2.66494,0 -2.66494,0 -0.3375,4.24351 -0.3375,4.24351 1.38149,1.38149 c 1.70195,1.70195 1.56862,1.71267 6.13596,-0.49351 z m 60.260154,4.1656 2.0836,-1.45942 0,-1.76825 c 0,-0.97254 0.88542,-3.26893 1.96761,-5.10309 l 1.9676,-3.33484 1.38576,0 1.38577,0 2.89417,-2.89417 c 1.59179,-1.5918 3.79206,-3.23555 4.88948,-3.65279 l 1.9953,-0.75861 1.95364,1.07466 c 2.35391,1.29484 6.87317,6.55954 6.87317,8.00688 l 0,1.03653 1.28512,0 1.28512,0 0.64645,-6.56049 0.64645,-6.560491 -0.58065,-0.93951 -0.58064,-0.93951 -3.4603,0.006 -3.46031,0.006 -2.68528,1.40048 -2.68528,1.40047 -6.29843,0 -6.29844,0 -3.08383,-3.83741 -3.08383,-3.837425 -2.2517,0.43044 -2.25169,0.43044 -0.50171,-0.81177 -0.5017,-0.81178 -5.10093,0 -5.10092,0 0,2.8125 0,2.812505 2.18034,0 2.18032,0 2.13664,2.27435 2.13665,2.274351 -0.55665,0.90068 -0.55665,0.90068 1.39593,1.15851 1.39592,1.15852 0,-0.69834 0,-0.69833 1.22946,1.02036 1.22946,1.02036 -0.89024,6.57666 -0.89025,6.57666 1.18183,1.42402 c 1.47558,1.77797 1.9096,1.77455 4.49364,-0.0353 z m 78.21596,-0.13711 3.55515,-3.47152 0,-1.4758 0,-1.4758 -2.75565,-3.01705 -2.75564,-3.01704 -0.29124,-3.52001 -0.29122,-3.52002 -3.04688,-0.29377 -3.04687,-0.293781 0,5.376211 0,5.37621 -1.55156,1.71444 -1.55155,1.71444 -3.6047,0 -3.60469,0 0,1.875 0,1.875 3.26645,0 3.26647,0 3.06166,2.78503 3.06167,2.78501 1.36672,0.0275 1.36672,0.0275 3.55516,-3.47152 z m -111.114654,6.1206 2.169794,-2.03843 0,-2.18032 0,-2.18034 -1.30594,0 -1.305954,0 -0.58756,1.53115 -0.58755,1.53114 -4.1782,-0.57269 -4.17818,-0.57268 -1.42831,0.54809 -1.42831,0.5481 0,2.7122 0,2.71219 5.3302,0 5.33021,0 2.1698,-2.03841 z m 80.919804,0.81966 0,-2.15625 0.99113,-0.99113 0.99113,-0.99114 -0.288,-5.05574 -0.28801,-5.05574 -3.17139,-0.30305 -3.17138,-0.30307 -3.62549,3.5402 -3.6255,3.5402 0,2.49581 0,2.4958 1.94305,2.47018 1.94304,2.470184 4.15071,0 4.15071,0 0,-2.156254 z m -62.42043,8.149704 1.48292,-0.56905 -0.0143,-2.47782 c -0.007,-1.3628 -0.3243,-2.8997 -0.70312,-3.415334 -1.20446,-1.6394 -4.80311,-3.28125 -7.19197,-3.28125 l -2.30989,0 -0.8145,1.45543 -0.8145,1.45543 0.40558,2.763324 0.40557,2.76332 1.71326,0 c 0.9423,0 1.974,0.42188 2.29268,0.9375 0.65003,1.051785 3.30766,1.228275 5.54832,0.36845 z m 39.39806,-1.24998 2.64092,-2.75653 -0.56111,-1.46222 -0.5611,-1.462224 -1.79661,0 -1.79659,0 -1.51407,2.310774 c -0.83275,1.27092 -1.51408,3.16936 -1.51408,4.21875 l 0,1.907985 1.23086,0 1.23085,0 2.64093,-2.756535 z m -12.60264,-1.46222 0,-4.218754 -3.75,0 -3.75,0 0,2.048964 0,2.04895 2.03842,2.1698 2.03842,2.169795 1.71158,0 1.71158,0 0,-4.218755 z m 84.37501,20.258725 0,-4.58503 -7.26563,-0.40652 c -3.99609,-0.22358 -7.79297,-0.22456 -8.4375,-0.002 l -1.17187,0.40435 0,3.96219 c 0,2.17921 0.28125,4.24346 0.625,4.5872 l 0.625,0.625 7.8125,0 7.8125,0 0,-4.58503 z m -68.60961,10.91316 0.29664,-2.57813 -3.37294,0 -3.37294,0 -0.53963,1.40625 -0.53963,1.40625 0.56261,1.46613 0.5626,1.46613 3.05332,-0.29425 3.05332,-0.29426 0.29665,-2.57812 z m -72.952904,1.9263 0,-2.05808 -2.51915,-2.62942 -2.51914,-2.62943 -7.32461,0 -7.3246,0 0,2.05808 0,2.05807 2.51915,2.62943 2.51914,2.62942 7.32461,0 7.3246,0 0,-2.05807 z m 57.177184,10.72995 c -0.006,-0.90235 -0.27181,-3.22266 -0.59141,-5.15625 l -0.58109,-3.51563 -1.69702,0 c -0.93335,0 -1.9585,0.42311 -2.27811,0.94026 l -0.5811,0.94025 0.63222,4.216 0.63223,4.21599 2.2373,0 2.2373,0 -0.0103,-1.64062 z m 26.72907,-3.41345 0,-5.52283 -1.59566,-1.00651 c -0.87761,-0.55358 -1.80571,-0.79646 -2.06244,-0.53973 -0.25674,0.25674 -0.76059,3.33439 -1.11967,6.83922 l -0.65287,6.37244 2.71532,-0.30989 2.71532,-0.30988 0,-5.52282 z"
         style="fill:#ffffff;stroke:#000000;stroke-opacity:1;stroke-width:0.50000001;stroke-miterlimit:4;stroke-dasharray:none"
         id="path5919" />
    </g>
  </g>
</svg>
