<?xml version="1.0" encoding="UTF-8" standalone="no"?>
<!-- Created with Inkscape (http://www.inkscape.org/) -->

<svg
   xmlns:dc="http://purl.org/dc/elements/1.1/"
   xmlns:cc="http://creativecommons.org/ns#"
   xmlns:rdf="http://www.w3.org/1999/02/22-rdf-syntax-ns#"
   xmlns:svg="http://www.w3.org/2000/svg"
   xmlns="http://www.w3.org/2000/svg"
   xmlns:sodipodi="http://sodipodi.sourceforge.net/DTD/sodipodi-0.dtd"
   xmlns:inkscape="http://www.inkscape.org/namespaces/inkscape"
   width="72.248886mm"
   height="44.414917mm"
   viewBox="0 0 256 157.37569"
   id="svg4778"
   version="1.1"
   inkscape:version="0.91 r13725"
   sodipodi:docname="garden-of-terror.svg">
  <defs
     id="defs4780" />
  <sodipodi:namedview
     id="base"
     pagecolor="#ffffff"
     bordercolor="#666666"
     borderopacity="1.0"
     inkscape:pageopacity="0.0"
     inkscape:pageshadow="2"
     inkscape:zoom="2.951821"
     inkscape:cx="189.15592"
     inkscape:cy="105.46895"
     inkscape:document-units="px"
     inkscape:current-layer="layer1"
     showgrid="false"
     fit-margin-top="0"
     fit-margin-left="0"
     fit-margin-right="0"
     fit-margin-bottom="0"
     inkscape:window-width="1920"
     inkscape:window-height="1027"
     inkscape:window-x="-8"
     inkscape:window-y="-8"
     inkscape:window-maximized="1" />
  <metadata
     id="metadata4783">
    <rdf:RDF>
      <cc:Work
         rdf:about="">
        <dc:format>image/svg+xml</dc:format>
        <dc:type
           rdf:resource="http://purl.org/dc/dcmitype/StillImage" />
        <dc:title></dc:title>
      </cc:Work>
    </rdf:RDF>
  </metadata>
  <g
     inkscape:label="Layer 1"
     inkscape:groupmode="layer"
     id="layer1"
     transform="translate(2.5450126,-61.686068)">
    <g
       id="g5457">
      <path
         inkscape:connector-curvature="0"
         class="border"
         id="path5434"
         d="m 147.60049,61.686066 -1.9756,1.494197 -0.64804,0.490659 -1.30904,0 -0.99243,0 -0.11109,-0.135163 -1.53308,-1.84599 -5.2806,0 -5.1473,0 -1.73304,1.731194 c -0.4933,0.493292 -0.86017,1.019671 -1.15721,1.586774 -0.12189,0.232674 -0.13933,0.595957 -0.237,0.849858 -0.42679,0.14829 -0.77288,0.340987 -1.10538,0.551761 -0.573,0.363234 -1.10495,0.805478 -1.59418,1.346072 l -0.49066,0.540651 -2.81805,0 -3.25501,0 -0.93873,-0.523987 c -0.65646,-0.366914 -1.8531,-1.166905 -2.27185,-1.501602 l -1.90709,-1.525673 -6.73592,0.897999 -5.32134,0.70729 -1.549735,-0.340684 -3.177247,-0.698032 -2.451449,2.305172 -0.522136,0.486956 c -0.137714,-0.307186 -0.310815,-0.506882 -0.466589,-0.748023 -0.293139,-0.453786 -0.639052,-0.879754 -1.049825,-1.290527 l -1.731194,-1.733045 -4.489995,0 -4.68811,0 -3.454981,4.577017 -2.031144,2.692145 -0.651744,0 -2.834713,0 -2.940253,3.03283 -1.542336,1.592327 -0.01296,0 -1.995965,0 -7.80611,7.782041 -7.811665,7.787594 0,2.284807 0,0.340684 -1.442352,1.490492 -1.414581,1.457166 -0.881334,0 -2.910628,0 -2.403304,2.568091 c -1.04015,1.111393 -2.225046,2.546093 -2.932846,3.612363 l -0.283286,0.42771 -4.223373,0 -6.717402,0 -2.075581,2.91433 -1.805256,2.53661 0,2.43293 0,0.3555 0.462886,-0.28699 c -0.905228,0.55947 -1.173664,1.17462 -1.412728,1.75711 -0.239064,0.5825 -0.37216,1.18234 -0.37216,1.86821 0,-0.4054 -0.304165,0.34209 -0.135163,0.20182 -1.23753,1.02706 -1.84599,2.06998 -1.84599,3.81048 0,-0.22721 -0.03801,0.22275 -0.175897,0.64989 -0.137884,0.42716 -0.346508,0.93691 -0.542501,1.31275 l -1.255348,2.40515 -0.0056,3.51053 -0.0019,1.99411 -0.796163,0.84616 -0.735063,0.78135 -0.396231,0 -2.44589,0 -2.107057,2.24407 c -1.1285552,1.20129 -2.1652864,2.87084 -2.8735965,4.45111 -0.5140675,1.14691 -1.424883,2.77975 -1.5738126,2.99025 l -1.9219028,2.71806 2.5218031,2.52181 0.4147459,0.41474 0,0.95355 0,4.30484 2.6088259,0 -0.501769,0.0481 -3.8456568,0.37031 -3.2364993,2.56438 -3.3031548,2.61438 -0.9442875,3.50683 -0.8646712,3.21058 0.4128944,3.06985 0.4295582,3.20873 1.61269501,2.16076 c 0.92611577,1.24042 2.28057619,2.56208 3.55496489,3.51238 l 2.4588506,1.83303 5.3213375,-0.004 5.480571,-0.002 2.766207,-2.63289 c 1.264943,-1.20281 2.471371,-2.65842 3.27353,-4.07341 l 1.833029,1.89229 1.444204,1.49049 0,1.94967 0,3.87159 2.779169,2.86804 2.810643,2.89951 4.758469,0 2.640302,0 0.111093,0.13332 1.53493,1.84783 3.343889,0 1.249792,0 1.949676,1.94968 3.336482,3.33649 2.368126,0 0.381418,0 4.732546,4.89363 6.128612,6.33969 3.288342,0 1.297933,0 4.575166,4.60293 6.189711,6.22489 2.938401,-0.64619 0.377715,-0.0814 1.346073,1.38681 0.0037,0.004 2.951362,3.04579 8.43378,0 8.750394,0 0.81654,-1.322 1.24424,0 1.24423,0 0.81654,1.322 6.10084,0 5.77311,0 3.61421,-3.68273 2.22185,-2.26443 2.90138,0 3.03283,0 1.30163,1.09611 2.62549,2.20889 5.02694,0 5.27691,0 1.53307,-1.84784 0.11109,-0.13516 0.4666,0 c 0.21257,0 1.50837,0.37969 1.60898,0.44252 l 2.83286,1.76822 2.88842,-2.7125 0.87207,-0.82024 0.38142,0 0.30921,0 1.1998,1.25164 2.59957,2.71251 3.38648,0 3.3624,0 4.6196,-4.66589 3.22724,-3.26242 0.94243,0 2.81435,0 3.5272,-3.0569 c 1.7263,-1.49648 6.07437,-5.62568 9.92428,-9.40028 l 7.67094,-7.52098 0,-1.9793 c 0,0.86311 -0.0126,0.20935 0.22959,-0.24625 0.24219,-0.45562 0.61846,-1.04813 1.01095,-1.56271 l 1.23312,-1.61825 1.94968,-0.51658 3.2976,-0.87578 1.98856,-1.82006 c 1.14091,-1.0448 2.08455,-2.09702 2.66808,-3.64199 l -0.1111,0.29254 3.51423,0.13145 6.29525,0.23515 2.48847,-2.65326 2.27001,-2.41997 0.56841,-4.28077 0.37216,-2.81249 1.43865,-1.63862 c 0.62593,-0.71288 1.17199,-1.4635 1.60529,-2.19038 0.3882,-0.65122 0.75536,-1.11774 0.8369,-2.25333 l 1.38125,-0.85356 0,-4.69922 0,-2.4644 0.48141,-0.5314 0.38697,-0.42956 0.3629,0 2.61068,0 3.02357,-4.10117 c 1.34122,-1.81959 2.74892,-3.9322 3.44017,-5.31578 l 1.6775,-3.3587 -1.98671,-1.98671 -0.0852,-0.0852 0,-1.21647 0,-3.81603 -1.90894,-0.74432 1.90339,-0.62953 c 3.62995,-1.19798 6.98691,-3.87874 8.68559,-7.16362 l 1.23128,-2.38294 0,-3.29575 0,-3.29204 -1.00169,-1.95153 c -0.71033,-1.38531 -1.91111,-2.81954 -3.17169,-4.15116 l -2.50514,-2.64586 -3.15504,-0.84986 -3.02356,-0.81468 -2.98839,0.5351 -3.01987,0.5388 -2.5033,1.86635 -2.52735,1.88488 -1.41828,2.99024 -0.10184,0.21478 -2.3996,-2.29777 -1.2572,-1.2035 0,-2.29777 0,-4.26225 -2.43478,-2.540321 -2.47366,-2.582904 -4.75106,0 -2.6866,0 -0.49065,-0.542503 -1.90154,-2.101503 -3.56052,0 -1.51641,0 -1.48124,-1.507156 -2.65326,-2.695848 -2.41812,-0.585089 -0.9665,-0.235146 -1.58863,-2.005222 -2.80694,-3.543855 -1.38125,0 0.14997,0.425855 c -0.0567,-0.16069 -0.15239,-0.275072 -0.21663,-0.425855 -0.49487,-1.16157 -1.17194,-2.090643 -2.00337,-3.014315 l -2.04411,-2.271844 -3.43276,0 -1.42569,0 -4.81586,-4.625157 -6.18971,-5.945309 -2.67178,0 -0.77765,0 -1.32742,-1.253487 -2.64586,-2.495881 -8.13569,-0.440668 -8.13383,-0.438816 z m -16.01586,2.37368 4.16598,0 4.16783,0 0.82208,0.990576 0.82208,0.992428 2.10521,0 2.10521,0 1.28311,-0.972061 1.28313,-0.970209 7.2673,0.392527 7.26917,0.392528 2.01263,1.899684 2.01448,1.899684 1.71823,0 1.71639,0 5.50464,5.286159 5.50278,5.286159 2.37924,0 2.37738,0 1.33866,1.486789 c 0.73602,0.817678 1.52156,2.006187 1.74601,2.642154 l 0.40734,1.157215 0.95725,0 0.95539,0 2.09595,2.644005 2.0941,2.644006 1.76082,0.427706 1.75897,0.425856 2.17926,2.214446 2.17927,2.216299 2.50885,0 2.50883,0 1.1961,1.320151 1.1961,1.322002 3.73827,0 3.73827,0 1.77562,1.853396 1.77564,1.853394 0,3.30871 0,3.30871 1.9867,1.90339 1.98671,1.90339 -0.6647,0.6647 -0.66471,0.66656 0,2.04965 0,2.05152 2.17742,2.11076 c 1.19838,1.16152 2.36027,2.11261 2.58105,2.11261 l 0.40178,0 -0.34994,-3.85677 -0.34994,-3.85677 1.16647,-2.45699 1.16648,-2.45885 2.05336,-1.53123 2.05521,-1.53308 2.46811,-0.44067 2.46811,-0.44067 2.51069,0.67582 2.5107,0.67581 2.0441,2.16075 c 1.12473,1.18812 2.37771,2.80933 2.78473,3.60311 l 0.74061,1.4442 0,2.71807 0,2.71992 -0.9665,1.87006 c -1.28615,2.48714 -4.39751,5.03726 -7.32286,6.0027 l -2.37553,0.78506 -2.88841,-0.72766 c -1.58885,-0.40007 -3.11454,-0.72765 -3.38832,-0.72765 -0.90255,0 4.02482,4.74141 5.54352,5.33429 l 1.48679,0.57954 0,2.19778 0,2.19593 0.7795,0.7795 0.7795,0.7795 -0.91466,1.83118 c -0.50298,1.00673 -1.95486,3.24334 -3.22725,4.96954 l -2.31442,3.13837 -1.41274,0 -1.41458,0 -1.09241,1.20721 -1.09426,1.20906 0,3.37721 0,3.37907 -0.661,0.40734 c -0.36341,0.2246 -0.661,0.87211 -0.661,1.43865 0,0.56655 -0.85893,2.01073 -1.91079,3.20872 l -1.91265,2.17742 -0.46844,3.52534 -0.46659,3.52534 -1.74971,1.86636 -1.7497,1.86451 -5.21766,-0.19442 -5.21765,-0.19626 -0.49251,1.30349 c -0.27068,0.71668 -1.19224,1.94584 -2.04966,2.73103 l -1.559,1.42754 -2.73474,0.7258 -2.73287,0.7258 -1.72749,2.26259 c -0.94936,1.24468 -1.72564,2.70636 -1.72564,3.24761 l 0,0.98317 -6.95995,6.82479 c -3.82795,3.75308 -8.24666,7.93751 -9.81874,9.30031 l -2.85694,2.47736 -1.93116,0 -1.93116,0 -3.92342,3.96602 -3.92342,3.96415 -2.37368,0 -2.37553,0 -1.89969,-1.983 -1.89783,-1.98115 -1.32201,0 -1.32014,0 -1.55715,1.46271 -1.55715,1.46272 -1.28497,-0.80172 c -0.70651,-0.44122 -1.99538,-0.80357 -2.86434,-0.80357 l -1.57937,0 -0.82209,0.99243 -0.82208,0.99058 -4.16412,0 -4.16413,0 -1.96263,-1.65158 -1.96263,-1.65157 -3.89751,0 -3.89565,0 -2.91803,2.97172 -2.91804,2.97358 -4.77883,0 -4.78069,0 -0.40734,-0.65915 -0.40919,-0.661 -2.56439,0 -2.56439,0 -0.40919,0.661 -0.40733,0.65915 -7.430259,0 -7.430243,0 -2.260734,-2.33109 0,-0.002 -2.260736,-2.33109 -1.668241,0.3666 -1.668242,0.36475 -5.271346,-5.30097 -5.269495,-5.30282 -2.284805,0 -2.282954,0 -5.430579,-5.61573 -5.430579,-5.61574 -1.386807,0 -1.386807,0 -2.642153,-2.644 -2.644005,-2.64215 -2.231111,0 -2.231111,0 -0.823936,-0.99244 -0.822086,-0.99057 -3.75308,0 -3.754932,0 -2.11076,-2.17927 -2.112612,-2.17927 0,-2.90878 0,-2.91062 -2.112613,-2.18112 -2.114462,-2.17927 0.79246,-0.79245 0.792461,-0.79062 0,-2.0515 0,-2.05151 -2.303321,-2.23112 -2.303321,-2.23296 -0.461034,0.46288 -0.461034,0.46104 0.781351,0.78135 0.781352,0.78136 0,3.20502 0,3.20502 -0.931327,1.78304 c -0.512671,0.98134 -1.869349,2.67548 -3.014314,3.76419 l -2.081136,1.9793 -4.534431,0.004 -4.5344322,0.002 -1.8256226,-1.36088 C 3.878598,173.28484 2.4949421,171.92072 1.8098999,171.00318 l -1.24608921,-1.66834 -0.3480903,-2.59957 -0.34809031,-2.59771 0.74061767,-2.75139 0.74061765,-2.74955 2.6884422,-2.12927 2.6902936,-2.13113 3.1476255,-0.3018 3.1476243,-0.30366 1.47383,0.79061 1.47568,0.78876 0.396231,-0.39623 0.396231,-0.39623 -2.569944,-2.63104 c -1.412929,-1.44676 -2.953988,-2.63105 -3.425357,-2.63105 l -0.8572649,0 0,-1.93486 0,-1.93487 -1.1090749,-1.10907 -1.1090748,-1.10722 0.7683907,-1.08686 c 0.4226038,-0.59731 1.2336693,-2.12321 1.8015529,-3.39018 0.567884,-1.26698 1.665659,-2.97674 2.438483,-3.79937 l 1.403471,-1.49419 1.421986,0 1.421985,0 1.436799,-1.52938 1.436798,-1.52937 0.0037,-2.931 0.0037,-2.93099 0.986873,-1.89228 c 0.542829,-1.04092 0.988725,-2.41797 0.988725,-3.05875 0,-0.64079 0.445457,-1.5343 0.990576,-1.98671 0.545118,-0.45241 0.990576,-1.36286 0.990576,-2.02374 0,-0.66088 0.297594,-1.38624 0.661002,-1.61084 l 0.661,-0.40734 0,-1.6775 0,-1.67565 1.36644,-1.9182 1.36644,-1.92005 5.495383,0 5.495383,0 0.986873,-1.48679 c 0.542778,-0.81767 1.751275,-2.30377 2.686591,-3.30315 l 1.701569,-1.816366 1.883021,0 1.884871,0 2.112612,-2.179267 2.11076,-2.179268 0,-1.301635 0,-1.301636 7.113633,-7.091415 7.113633,-7.091414 1.016498,0 1.016498,0 2.240368,-2.312579 2.24222,-2.312578 1.831177,0 1.831178,0 2.743988,-3.634581 2.743988,-3.634581 3.506825,0 3.508676,0 1.036865,1.038716 c 0.571076,0.571076 1.038716,1.294174 1.038716,1.60714 0,0.312965 0.6198,0.766742 1.377549,1.00724 l 1.377549,0.436965 1.542344,-1.447908 1.542333,-1.447907 1.957079,0.429558 1.957081,0.429558 5.73423,-0.762836 5.73424,-0.762836 1.11647,0.892444 c 0.6146,0.491237 1.78314,1.265822 2.59588,1.720084 l 1.47753,0.825789 3.87157,0 3.86974,0 1.19609,-1.322002 c 0.65776,-0.726823 1.59604,-1.322003 2.08484,-1.322003 l 0.88874,0 0,-0.944287 c 0,-0.519154 0.46764,-1.410077 1.03872,-1.981153 l 1.03872,-1.038716 z m 100.72585,94.934224 c 0,0.13135 -0.006,0.10558 -0.0222,0.14072 -1.4e-4,3e-4 -0.004,0.004 -0.004,0.004 0.002,-0.0635 0.0259,-0.0764 0.0259,-0.14441 z"
         style="color:#000000;font-style:normal;font-variant:normal;font-weight:normal;font-stretch:normal;font-size:medium;line-height:normal;font-family:sans-serif;text-indent:0;text-align:start;text-decoration:none;text-decoration-line:none;text-decoration-style:solid;text-decoration-color:#000000;letter-spacing:normal;word-spacing:normal;text-transform:none;direction:ltr;block-progression:tb;writing-mode:lr-tb;baseline-shift:baseline;text-anchor:start;white-space:normal;clip-rule:nonzero;display:inline;overflow:visible;visibility:visible;opacity:1;isolation:auto;mix-blend-mode:normal;color-interpolation:sRGB;color-interpolation-filters:linearRGB;solid-color:#000000;solid-opacity:1;fill:#000000;fill-opacity:1;fill-rule:nonzero;stroke:none;stroke-width:5;stroke-linecap:butt;stroke-linejoin:miter;stroke-miterlimit:4;stroke-dasharray:none;stroke-dashoffset:0;stroke-opacity:1;color-rendering:auto;image-rendering:auto;shape-rendering:auto;text-rendering:auto;enable-background:accumulate" />
      <path
         class="bg"
         id="path4879"
         d="m 85.878723,214.35971 -2.26068,-2.33243 -1.668235,0.36619 -1.668235,0.36619 -5.270484,-5.30199 -5.270477,-5.30199 -2.284016,0 -2.284023,0 -5.429875,-5.61635 -5.429887,-5.61636 -1.386887,0 -1.38688,0 -2.642991,-2.64299 -2.642991,-2.64299 -2.231714,0 -2.231713,0 -0.822555,-0.99112 -0.822562,-0.99112 -3.753965,0 -3.753963,0 -2.111862,-2.17888 -2.111856,-2.17889 0,-2.91046 0,-2.91045 -2.113111,-2.18017 -2.113102,-2.18017 0.791607,-0.79162 0.791615,-0.7916 0,-2.05086 0,-2.05085 -2.302722,-2.23189 -2.302715,-2.23187 -0.46141,0.46141 -0.46141,0.4614 0.781881,0.7819 0.781889,0.78187 0,3.20441 0,3.2044 -0.932137,1.78424 c -0.51267,0.98134 -1.868912,2.67502 -3.013877,3.76373 l -2.081747,1.9795 -4.53392,0.003 -4.5339216,0.003 -1.8270257,-1.36233 c -1.0048652,-0.74932 -2.3875161,-2.11308 -3.0725583,-3.03061 l -1.2455254,-1.66825 -0.34852243,-2.59843 -0.34852949,-2.59845 0.74065775,-2.75059 0.74065777,-2.75059 2.6892188,-2.12989 2.6892118,-2.12991 3.1478028,-0.30247 3.147802,-0.30245 1.47443,0.78909 1.474429,0.78908 0.396041,-0.39604 0.396039,-0.39602 -2.568973,-2.63086 c -1.412929,-1.44676 -2.954625,-2.63065 -3.425993,-2.63065 l -0.8570204,0 0,-1.93505 0,-1.93505 -1.1085971,-1.1086 -1.1085974,-1.10859 0.7683633,-1.08603 c 0.4226037,-0.59731 1.2330012,-2.12266 1.8008846,-3.38963 0.567884,-1.26698 1.664824,-2.97667 2.437649,-3.7993 l 1.405141,-1.4957 1.421513,0 1.421514,0 1.436673,-1.52927 1.436674,-1.52926 0.0043,-2.93078 0.0043,-2.93079 0.987048,-1.89258 c 0.542829,-1.04092 0.986998,-2.41686 0.986998,-3.05765 0,-0.64078 0.446003,-1.53521 0.991122,-1.98762 0.545119,-0.45241 0.991122,-1.36328 0.991122,-2.02415 0,-0.66088 0.29734,-1.38536 0.660747,-1.60996 l 0.660749,-0.40837 0,-1.67605 0,-1.67607 1.366489,-1.91905 1.36649,-1.91906 5.495371,0 5.495371,0 0.986857,-1.48668 c 0.542779,-0.81767 1.75212,-2.30436 2.687436,-3.30374 l 1.700571,-1.817056 1.884178,0 1.884177,0 2.111863,-2.178889 2.111856,-2.178882 0,-1.30131 0,-1.301311 7.113832,-7.091765 7.113826,-7.091773 1.015903,0 1.015902,0 2.241475,-2.312616 2.241475,-2.312617 1.831226,0 1.831226,0 2.743777,-3.634114 2.743785,-3.634113 3.507531,0 3.507531,0 1.038315,1.038316 c 0.571076,0.571076 1.038322,1.294381 1.038322,1.607347 0,0.312965 0.619961,0.765791 1.37771,1.006289 l 1.377703,0.43727 1.541582,-1.448239 1.541584,-1.448239 1.957241,0.429884 1.957236,0.429877 5.73432,-0.763091 5.73432,-0.763099 1.11742,0.893148 c 0.61459,0.491237 1.7824,1.264823 2.59514,1.719086 l 1.47772,0.825939 3.87104,0 3.87105,0 1.19594,-1.321496 c 0.65777,-0.726823 1.59586,-1.321495 2.08466,-1.321495 l 0.88871,0 0,-0.943929 c 0,-0.519154 0.46723,-1.411167 1.03831,-1.982244 l 1.03833,-1.038315 4.16675,0 4.16676,0 0.82256,0.991123 0.82255,0.991121 2.10543,0 2.10542,0 1.2826,-0.971085 1.2826,-0.971091 7.26823,0.392812 7.26822,0.392805 2.01369,1.899775 2.01371,1.899775 1.71776,0 1.71777,0 5.50338,5.285983 5.50339,5.285982 2.37824,0 2.37825,0 1.33821,1.486679 c 0.73602,0.817678 1.52186,2.007024 1.74631,2.642991 l 0.40809,1.156311 0.95635,0 0.95633,0 2.09461,2.64467 2.09463,2.644675 1.7602,0.426684 1.76021,0.426685 2.17924,2.214622 2.17924,2.214629 2.50877,0 2.50877,0 1.19594,1.321496 1.19594,1.321496 3.73845,0 3.73846,0 1.77549,1.853208 1.7755,1.853221 0,3.30915 0,3.30914 1.9866,1.90328 1.98659,1.90329 -0.6651,0.6651 -0.66511,0.6651 0,2.05086 0,2.05085 2.17889,2.11186 c 1.19839,1.16153 2.35954,2.11186 2.58033,2.11186 l 0.40145,0 -0.34974,-3.85697 -0.34974,-3.85697 1.16613,-2.45743 1.16614,-2.45743 2.05444,-1.53258 2.05444,-1.53257 2.46802,-0.44048 2.46802,-0.44047 2.51078,0.67608 2.51079,0.67609 2.04495,2.1602 c 1.12472,1.18811 2.37797,2.80965 2.78499,3.60343 l 0.74003,1.44325 0,2.71924 0,2.71924 -0.96739,1.87073 c -1.28615,2.48714 -4.39657,5.03706 -7.32192,6.0025 l -2.37615,0.78421 -2.88884,-0.72742 c -1.58886,-0.40007 -3.11283,-0.72741 -3.38661,-0.72741 -0.90254,0 4.02431,4.74075 5.54301,5.33364 l 1.48668,0.58038 0,2.19682 0,2.19682 0.77954,0.77954 0.77956,0.77956 -0.9145,1.8304 c -0.50298,1.00673 -1.95555,3.24275 -3.22794,4.96896 l -2.31345,3.13855 -1.41369,0 -1.41368,0 -1.09352,1.20834 -1.09353,1.20834 0,3.37789 0,3.37791 -0.66075,0.40837 c -0.36341,0.2246 -0.66075,0.8719 -0.66075,1.43844 0,0.56655 -0.86061,2.01028 -1.91248,3.20828 l -1.91246,2.17819 -0.46749,3.52539 -0.4675,3.5254 -1.7497,1.86556 -1.74972,1.86554 -5.21712,-0.19523 -5.21711,-0.19524 -0.49218,1.30304 c -0.27068,0.71669 -1.19368,1.94547 -2.0511,2.73065 l -1.55894,1.42761 -2.73393,0.72531 -2.73393,0.7253 -1.72612,2.26305 c -0.94936,1.24468 -1.72612,2.70591 -1.72612,3.24715 l 0,0.98409 -6.95991,6.82378 c -3.82795,3.75309 -8.24615,7.9388 -9.81823,9.30159 l -2.85834,2.4778 -1.93071,0 -1.93072,0 -3.92311,3.96449 -3.92313,3.96449 -2.37487,0 -2.37487,0 -1.8991,-1.98224 -1.89912,-1.98225 -1.32047,0 -1.32048,0 -1.55725,1.46297 -1.55725,1.46295 -1.28454,-0.8022 c -0.70651,-0.44123 -1.99552,-0.80222 -2.86448,-0.80222 l -1.57993,0 -0.82256,0.99112 -0.82256,0.99112 -4.16326,0 -4.16326,0 -1.96314,-1.65187 -1.96312,-1.65187 -3.89673,0 -3.89671,0 -2.91814,2.97337 -2.91814,2.97336 -4.77904,0 -4.77904,0 -0.40836,-0.66075 -0.40837,-0.66074 -2.565,0 -2.565,0 -0.40836,0.66074 -0.40837,0.66075 -7.429986,0 -7.429987,0 -2.260681,-2.33243 z"
         style="fill:#ffff00"
         inkscape:connector-curvature="0" />
      <path
         class="nexus blue"
         id="path4859"
         d="m 12.416058,171.15549 2.451484,-1.26654 0.906469,-1.49645 c 0.498566,-0.82304 1.15646,-2.36808 1.46199,-3.43341 l 0.555521,-1.93697 -1.268656,-2.48678 -1.268657,-2.48677 -1.073309,-0.41187 c -0.590324,-0.22652 -1.924422,-0.41186 -2.964668,-0.41186 l -1.8913593,0 -1.80868,1.55576 -1.8086869,1.55577 0.8827167,2.24354 c 1.0120683,2.57228 2.3997514,3.8954 4.0855005,3.8954 l 1.171959,0 0.699096,-1.30628 0.699102,-1.30628 -0.834798,-1.33671 -0.83479,-1.33672 -0.997365,-0.0465 -0.9973672,-0.0464 1.3214962,-0.53266 1.321495,-0.53265 0.746303,0.59391 c 0.410467,0.32665 0.931884,1.52182 1.158709,2.65593 l 0.412405,2.06202 -0.786829,0.94807 c -0.43276,0.52144 -2.247381,1.68818 -4.0324926,2.59277 l -3.2456566,1.6447 1.2219076,0.92573 c 1.5958945,1.20907 1.8269556,1.19444 4.7171606,-0.29879 z"
         style="fill:#ffffff;stroke:#000000;stroke-width:0.4739953;stroke-miterlimit:4;stroke-dasharray:none;stroke-opacity:1"
         inkscape:connector-curvature="0" />
      <path
         id="path4825"
         d="m 241.91638,122.16338 2.67232,-1.36331 1.26273,-2.8546 1.26272,-2.8546 -1.31795,-2.97945 -1.31796,-2.97946 -1.04558,-0.40123 c -0.57507,-0.22067 -1.87319,-0.40122 -2.88468,-0.40122 l -1.83909,0 -1.79075,1.4086 -1.79075,1.4086 0.42489,1.72995 c 0.23369,0.95147 0.85761,2.39895 1.3865,3.21662 l 0.96161,1.48669 1.61339,0 1.61338,0 0.6584,-1.23022 0.65839,-1.23022 -0.80034,-1.02666 c -0.44018,-0.56465 -1.395,-1.15511 -2.12182,-1.31212 l -1.32149,-0.28547 1.65186,-0.69578 1.65188,-0.69578 0.75956,0.76032 c 0.41776,0.41818 0.9327,1.65234 1.14433,2.74257 l 0.38475,1.98224 -0.81394,1.0536 c -0.44768,0.57949 -2.26309,1.69404 -4.03425,2.47681 l -3.22029,1.42321 0.8234,0.99211 c 1.10101,1.32664 2.18807,1.25149 5.36878,-0.3712 z"
         style="fill:#ffffff;stroke:#000000;stroke-width:0.4739953;stroke-miterlimit:4;stroke-dasharray:none;stroke-opacity:1"
         inkscape:connector-curvature="0" />
      <path
         class="terrain"
         d="m 117.9442,88.507069 1.19594,-1.321495 2.43817,0 2.43817,0 1.19594,1.321495 c 0.65777,0.726823 1.57582,1.321496 2.04013,1.321496 l 0.84418,0 0.41755,-1.315582 0.41756,-1.315583 -0.41203,-0.666661 -0.41201,-0.666661 -5.47496,0 -5.47495,0 -1.15826,1.279863 -1.15825,1.279857 0.43409,0.702387 c 0.63473,1.027009 1.32364,0.867189 2.66873,-0.619116 z m 38.65327,3.253727 c 6.6e-4,-0.745578 -3.14051,-3.313775 -5.67877,-4.642545 l -2.5801,-1.350674 -3.20916,-0.02799 -3.20915,-0.02797 -1.32006,1.320079 -1.32008,1.320072 0.44408,1.399157 0.44406,1.399157 1.44216,-0.021 c 0.79319,-0.01156 2.01933,-0.457562 2.72476,-0.991121 l 1.2826,-0.970105 2.14948,0 2.14948,0 1.82899,1.573235 1.82901,1.573242 1.51111,-0.08655 c 0.83113,-0.04757 1.51135,-0.25773 1.51159,-0.466942 z m -34.62805,3.556148 1.64951,-1.779847 -0.19438,-1.358702 -0.19437,-1.358708 -1.33215,-0.190895 -1.33215,-0.190888 -2.22419,2.294765 -2.22417,2.294772 0.39703,1.034678 0.39705,1.034671 1.70415,0 1.70416,0 1.64951,-1.779846 z m 12.30559,4.612865 c 1.73869,-1.712545 3.16124,-3.450478 3.16124,-3.86208 0,-0.411601 -0.60423,-1.295192 -1.34273,-1.963531 l -1.34275,-1.215163 -3.61286,3.56799 c -1.98709,1.962396 -3.61287,3.890345 -3.61287,4.284345 0,1.03608 1.42287,2.30215 2.58725,2.30215 l 1.00147,0 3.16125,-3.113711 z m 47.23958,4.362681 0.73328,-0.73328 -2.253,-1.97817 c -1.23915,-1.08799 -2.253,-2.31281 -2.253,-2.721839 0,-0.40903 -2.42102,-3.177348 -5.38005,-6.151827 l -5.38004,-5.408138 -0.89706,0.344237 -0.89706,0.344231 0,1.09071 0,1.090702 3.63412,3.564443 3.63411,3.564444 0,1.030689 0,1.030696 2.78056,2.833192 2.78057,2.83318 1.38214,0 c 0.76019,0 1.71212,-0.32998 2.11543,-0.73327 z m -25.66463,5.11813 2.15426,-2.22262 -0.20759,-2.89817 -0.20757,-2.89818 -1.31915,0 -1.31916,0 0.20163,2.3403 0.20162,2.3403 -1.35166,1.22324 -1.35165,1.22323 -3.59188,-0.0242 c -1.97554,-0.0134 -3.9121,-0.22209 -4.30347,-0.46397 l -0.7116,-0.4398 0,-2.604 0,-2.60399 -2.31263,0 -2.31261,0 0.0766,1.48668 0.0766,1.48668 0.30218,-1.15631 0.30217,-1.1563 1.60341,0 1.60343,0 0,1.43466 0,1.43465 -1.09353,1.20834 c -0.60145,0.66458 -1.54528,1.20833 -2.09742,1.20833 l -1.00389,0 1.55185,1.65187 1.55186,1.65186 5.70192,0 5.70195,0 2.15424,-2.22262 z m -61.22498,0.43666 c 2.864871,-2.79748 3.023442,-3.48737 1.184169,-5.15189 l -1.321499,-1.19594 0.0097,-2.70577 0.0097,-2.705768 0.816201,-1.601124 0.816192,-1.601124 1.982239,-1.158758 1.982248,-1.158765 2.3969,-0.04828 2.39695,-0.04828 0.82256,0.991122 c 0.4524,0.545119 1.08349,0.991122 1.40239,0.991122 l 0.57985,0 0,-1.24621 0,-1.246208 -2.14743,-1.114638 c -1.18109,-0.613054 -2.87416,-1.520812 -3.76241,-2.017236 l -1.61497,-0.9026 -0.577507,0.356917 -0.577497,0.356916 0.354681,0.924286 0.354681,0.924286 -0.805195,0.07829 c -0.442854,0.04306 -1.152652,0.03559 -1.577314,-0.01664 -0.424671,-0.05216 -1.817288,0.614372 -3.09471,1.481259 l -2.32259,1.576147 -6.363237,0.33284 -6.363231,0.33284 -0.750609,0.750603 c -0.412835,0.412835 -1.455167,0.75061 -2.316289,0.75061 l -1.565673,0 0.211144,1.419202 0.211143,1.419201 1.132278,0.709689 1.132265,0.709681 1.96876,-1.886178 1.968761,-1.886195 3.347944,0.321698 3.347958,0.321698 1.3148,1.189875 1.314807,1.189882 0,3.4508 0,3.4508 -0.991122,0.82256 -0.991122,0.82255 0,1.43882 c 0,1.6714 1.155227,3.02461 2.582097,3.02461 l 0.996294,0 2.50567,-2.44671 z m -30.862102,1.78596 c 0.224598,-0.36342 0.929861,-0.66075 1.567245,-0.66075 l 1.158878,0 1.910466,-1.99409 1.910467,-1.9941 -1.291281,-1.2589 -1.291288,-1.25889 -2.003479,-0.19377 -2.003486,-0.19378 -2.456551,1.96008 -2.456543,1.96009 -2.2e-5,1.45385 -1.4e-5,1.45385 1.156305,0.67349 c 1.491782,0.86888 3.27962,0.89378 3.799303,0.0529 z m 59.632482,9.08528 -0.27531,-0.82593 -2.53286,0 -2.53287,0 -0.27532,0.82593 -0.27531,0.82594 3.0835,0 3.08349,0 -0.27532,-0.82594 z m -9.08527,-0.27835 c 0,-0.60735 0.49208,-1.64802 1.09352,-2.31261 l 1.09353,-1.20834 3.97525,0 3.97522,0 1.20834,1.09354 1.20834,1.09352 0,1.21909 0,1.21909 0.85897,0 c 0.47243,0 1.21578,-0.35681 1.65188,-0.7929 l 0.79289,-0.7929 0,-4.18345 0,-4.18345 -1.02474,-0.39323 -1.02474,-0.39322 -1.5965,1.49983 -1.5965,1.49983 -5.80073,-0.13952 -5.80074,-0.1395 -1.04571,-0.94636 c -0.57513,-0.52049 -1.37034,-0.94635 -1.76712,-0.94635 l -0.7214,0 -0.44512,-2.02662 -0.44512,-2.02662 1.05337,-1.16396 1.05337,-1.16396 0,-1.43465 0,-1.43466 -1.77448,0 -1.77447,0 -1.52927,1.43668 -1.52927,1.43667 0,1.51659 c 0,1.76889 1.94594,5.49061 4.68038,8.95146 1.05991,1.34149 1.92711,2.84303 1.92711,3.33678 0,1.13833 1.32418,2.48351 2.44476,2.48351 l 0.85898,0 0,-1.10429 z m -35.019638,0.48254 c 0,-0.34197 -0.29734,-0.80552 -0.660749,-1.03012 l -0.660747,-0.40837 0,-1.81109 0,-1.8111 0.735322,-0.73533 0.73533,-0.73532 -0.443952,-0.71832 -0.443946,-0.71833 -2.27362,0 -2.273621,0 0,0.95214 c 0,0.52367 0.297333,1.13589 0.660748,1.36049 l 0.660747,0.40836 0,1.72603 0,1.72603 1.093529,1.20834 c 1.158526,1.28015 2.870959,1.63003 2.870959,0.58659 z m 25.464518,3.22311 0.43409,-0.70239 -1.15825,-1.27986 c -0.63704,-0.70392 -1.60909,-1.27986 -2.16013,-1.27986 -1.10942,0 -3.418542,1.86294 -3.418542,2.75799 l 0,0.57092 1.579792,-0.39649 1.57978,-0.39651 0.44145,0.71429 c 0.5656,0.91516 2.13929,0.92209 2.70181,0.0119 z m 85.67844,0.89866 2.50566,-2.44672 0,-4.44615 0,-4.44613 -2.01396,-1.43408 -2.01398,-1.43407 -2.44607,0.45386 c -1.34535,0.24963 -2.96643,0.92079 -3.6024,1.49149 l -1.1563,1.03762 0,2.40649 0,2.40648 -2.643,2.58081 -2.64298,2.58082 0,1.05524 c 0,0.58039 0.3568,1.41206 0.79289,1.84815 l 0.7929,0.79289 4.96079,0 4.96078,0 2.50567,-2.4467 z m -105.526603,1.19314 1.982244,-1.15697 0.199563,-1.66958 0.199571,-1.66957 -1.730469,-1.13386 -1.730475,-1.13383 -0.946896,0.78586 c -0.520803,0.43221 -0.946903,1.28465 -0.946903,1.89429 0,0.60964 -0.356804,1.46525 -0.792897,1.90134 l -0.792897,0.7929 -1.983822,0 -1.98383,0 -2.178881,-2.11186 -2.178889,-2.11186 0,-2.23806 0,-2.23807 -0.825939,0.27114 -0.825931,0.27113 -0.213984,2.18949 -0.213983,2.1895 3.162511,3.21079 3.162512,3.21078 3.328576,-0.0482 3.328576,-0.0483 1.982243,-1.15698 z m 80.705063,1.82616 1.55804,-1.4637 0,-3.05894 0,-3.05894 2.31261,-2.24148 c 1.27194,-1.23281 2.31262,-2.62916 2.31262,-3.10298 l 0,-0.86151 -1.87385,0 -1.87383,0 -4.4653,4.62524 -4.46528,4.62524 -4.4608,0 -4.4608,0 -1.03329,-1.15632 c -0.5683,-0.63596 -1.13473,-1.89965 -1.25872,-2.80817 l -0.22542,-1.65187 -2.03852,-0.19893 -2.03853,-0.19894 -0.68042,0.85969 c -0.37423,0.47282 -0.83177,2.05487 -1.01674,3.51567 l -0.33633,2.65601 1.859,2.22678 1.85899,2.22678 2.51777,-0.42517 c 1.38477,-0.23385 3.50829,-0.61003 4.71895,-0.83599 l 2.20119,-0.41083 1.43293,0.69532 c 1.92785,0.93547 2.90064,1.17019 5.60456,1.35229 l 2.29315,0.15444 1.55802,-1.46369 z m -57.13536,2.29837 1.20834,-1.09354 0,-1.51046 0,-1.51047 -0.72356,-0.44718 -0.72358,-0.44719 -1.89267,1.39931 -1.89266,1.39931 -1.6876,0 c -0.92817,0 -2.35256,-0.34354 -3.165299,-0.76344 -0.81275,-0.4199 -1.923729,-0.9707 -2.468842,-1.22399 l -0.991115,-0.46055 -0.203126,-3.11328 -0.203135,-3.11329 -0.787989,0.26196 -0.787997,0.26197 -0.575397,3.1299 -0.575383,3.1299 1.855316,1.93654 1.855312,1.93653 1.489256,0 c 0.819092,0 1.673023,0.29733 1.897619,0.66075 l 0.40837,0.66074 3.3779,0 3.37791,0 1.20833,-1.09352 z m 22.80524,0.3176 1.52927,-1.43667 0,-1.53669 0,-1.5367 -1.18934,0 c -0.65415,0 -1.51782,0.32847 -1.9193,0.72995 l -0.72992,0.72993 -5.67933,0.35432 -5.67931,0.35431 0,1.44862 c 0,0.79673 0.19823,1.64683 0.4405,1.88911 0.24227,0.24227 2.97347,0.44049 6.06933,0.44049 l 5.62883,0 1.52927,-1.43667 z m -63.771603,2.32538 1.20834,-1.09353 0,-1.44472 0,-1.44473 -4.237674,-4.06922 -4.237666,-4.06922 -1.339693,0 c -0.736831,0 -1.523455,-0.29734 -1.748053,-0.66075 l -0.408367,-0.66074 -1.862344,0 -1.862343,0 -0.771267,0.92931 -0.771267,0.92932 -0.08812,3.86111 c -0.04849,2.1236 0.131459,4.52348 0.399839,5.33304 l 0.487959,1.47195 2.71512,0.7311 2.715127,0.73112 1.497173,-0.28621 1.497174,-0.28621 0.868642,0.55085 c 0.477761,0.30296 1.737256,0.55538 2.798871,0.56095 l 1.930216,0.0101 1.208333,-1.09352 z m 53.737793,21.2654 2.64299,-0.95218 4.46005,-0.029 4.46004,-0.029 0.0826,-0.66075 c 0.0454,-0.36341 0.11976,-1.18108 0.16519,-1.81706 l 0.0826,-1.15631 -6.19644,-0.19109 -6.19645,-0.19111 -1.23697,1.11945 -1.23696,1.11945 0,1.87983 c 0,1.03391 0.0743,1.87535 0.16517,1.86988 0.0908,-0.005 1.35454,-0.43843 2.80819,-0.96211 z m 29.93187,4.8044 c 0.4361,-0.43609 0.7929,-1.03077 0.7929,-1.3215 l 0,-0.52859 -1.8501,0 c -1.01755,0 -2.16003,-0.30993 -2.53884,-0.68875 l -0.68875,-0.68875 -0.84581,1.01913 -0.8458,1.01911 0.82257,0.99113 0.82255,0.99112 1.76919,0 1.76919,0 0.7929,-0.7929 z m 5.28293,-1.25384 0.19517,-2.93455 -1.92989,-1.84894 -1.92986,-1.84894 -5.02198,-0.37982 -5.02199,-0.37981 -1.00709,0.83582 c -1.246,1.03408 -1.30202,2.91043 -0.11628,3.8945 l 0.89082,0.73933 1.19384,-1.31917 1.19382,-1.31915 2.54954,0 2.54956,0 1.47771,0.76344 c 0.81275,0.41989 1.91591,0.9677 2.45147,1.21736 l 0.97376,0.45393 -0.20367,2.82079 -0.20367,2.8208 0.88178,-0.29051 0.88178,-0.29052 0.19518,-2.93456 z m -23.36074,2.77123 0.36897,-0.597 -3.30376,-0.22893 -3.30375,-0.22893 4.2e-4,0.82592 4.1e-4,0.82594 2.93437,0 2.93437,0 0.36897,-0.597 z m 64.62964,0.10144 1.03291,-1.1563 0.4726,-3.84316 0.47262,-3.84314 -1.8571,-1.9384 -1.8571,-1.93839 -3.4715,0 -3.4715,0 -0.40836,-0.66075 c -0.22461,-0.36341 -1.07853,-0.66075 -1.89763,-0.66075 l -1.48924,0 -1.7755,1.85322 c -0.97651,1.01926 -1.77548,2.21028 -1.77548,2.64667 0,0.43642 1.73864,2.57583 3.86366,4.75427 l 3.86366,3.9608 1.35163,0 1.35162,0 0.38034,0.99113 0.38032,0.99111 1.90058,0 1.90057,0 1.0329,-1.15631 z m -17.34678,1.62427 0,-2.8358 -2.83318,-2.78056 -2.83319,-2.78057 -3.60911,0.003 -3.6091,0.003 -2.14743,1.30931 -2.14743,1.30932 0,1.58142 0,1.58142 1.94236,0.80456 1.94237,0.80455 0.70062,-0.43302 c 0.38535,-0.23815 0.70063,-0.95067 0.70063,-1.58336 0,-0.6327 0.35681,-1.50715 0.7929,-1.94325 l 0.7929,-0.7929 2.38722,0 2.38722,0 1.77549,1.85321 1.77549,1.85322 0,2.00115 c 0,2.02322 0.42664,2.88215 1.43162,2.88215 l 0.55062,0 0,-2.8358 z m -92.835062,-0.46796 4.589791,-4.62523 3.930173,0 3.930188,0 1.20834,1.09353 1.20834,1.09354 0,1.4173 c 0,2.84065 2.56661,3.875 4.73838,1.90957 l 1.20834,-1.09353 0,-2.43817 0,-2.43816 -1.32149,-1.19595 c -0.72682,-0.65776 -1.3215,-1.5612 -1.3215,-2.00763 l 0,-0.81168 -1.80313,-0.34468 -1.80313,-0.34469 -1.76779,1.25878 -1.767805,1.25878 -1.676057,0 -1.676066,0 -0.408357,-0.66075 c -0.224605,-0.36342 -1.074697,-0.66074 -1.889091,-0.66074 -0.814401,0 -1.79605,-0.31532 -2.18144,-0.70072 l -0.700717,-0.70072 -3.230736,0.20516 -3.230729,0.20515 -0.193038,4.35742 -0.193036,4.35742 -2.284771,2.21449 c -1.256619,1.21797 -2.284764,2.45349 -2.284764,2.74562 l 0,0.53113 2.165153,0 2.165145,0 4.589797,-4.62524 z m 88.634862,5.60795 0.38355,-0.99954 -0.78287,-0.94331 -0.78287,-0.9433 0.21335,-1.2594 0.21335,-1.25938 -0.9068,-1.09263 -0.9068,-1.09263 -1.37273,0 -1.37274,0 0.79289,0.7929 0.7929,0.79289 0,2.14147 0,2.14149 -0.63189,0.39052 -0.63189,0.39054 0.3722,0.96995 0.37221,0.96997 1.93229,0 1.93229,0 0.38356,-0.99954 z m -108.813415,1.53569 1.347242,-1.44609 0,-2.3843 0,-2.3843 2.642991,-2.58081 2.642991,-2.58082 0,-1.10649 c 0,-0.60857 -0.371675,-1.39953 -0.825938,-1.75766 l -0.825932,-0.65117 -4.611173,-0.41011 -4.611181,-0.41011 -2.822235,2.76981 -2.822236,2.76982 0,4.04211 0,4.04211 1.486679,1.39033 1.486686,1.39031 2.642992,0.26566 c 1.453645,0.1461 2.705738,0.31563 2.782435,0.37673 0.07669,0.0611 0.745704,-0.53967 1.486679,-1.33502 z m 121.654165,6.12214 1.93142,-1.93141 0,-1.79473 0,-1.79474 -3.4139,0.40433 -3.41389,0.40433 -1.87158,1.79309 -1.87159,1.79309 1.43617,1.52873 1.43617,1.52873 1.91789,0 1.91789,0 1.93142,-1.93142 z m -44.56188,2.22775 1.56245,-1.6859 0,-1.59774 0,-1.59773 -1.38238,-2.4979 c -0.76031,-1.37384 -2.24699,-3.40406 -3.30374,-4.5116 l -1.92136,-2.01369 0,-1.47653 0,-1.47651 -1.48669,-0.55808 -1.48667,-0.55808 -0.23116,1.07494 c -0.12713,0.59119 -0.84797,1.74393 -1.60186,2.5616 l -1.37071,1.48669 -3.31116,0 -3.31117,0 -1.52927,-1.43668 c -0.84109,-0.79017 -1.52926,-1.85152 -1.52926,-2.35857 l 0,-0.92191 -1.48669,0.21115 -1.48667,0.21115 -0.19766,4.55973 -0.19764,4.55973 0.68885,0.68886 0.68885,0.68884 1.85757,-1.77965 1.85758,-1.77966 5.91057,0.004 5.91058,0.004 2.14742,2.01269 2.14743,2.01268 0,1.53747 0,1.53747 -0.99112,0.82207 c -1.02511,0.85076 -1.32223,2.75236 -0.55062,3.52398 0.24226,0.24228 1.02585,0.4405 1.74128,0.4405 l 1.3008,0 1.56245,-1.68591 z m -48.77414,-0.28907 0.210615,-2.9547 0.696223,-0.83889 0.696223,-0.83891 3.596649,0 3.59664,0 1.27806,0.684 1.27806,0.684 0,2.61974 0,2.61975 2.31262,0 2.31261,0 0,-1.2825 c 0,-0.70538 -0.29734,-1.46627 -0.66074,-1.69087 l -0.66075,-0.40836 0,1.36049 0,1.36049 -1.36139,0 -1.36138,0 0.20508,-2.47781 0.20507,-2.4778 1.48668,-0.21115 c 1.77458,-0.25202 1.83931,-0.61664 0.39315,-2.21463 l -1.09353,-1.20833 -6.30372,0 -6.303733,0 -1.853211,1.77549 -1.853209,1.77548 0,3.06999 c 0,3.34521 0.38649,4.09895 1.95002,3.80295 l 1.023348,-0.19372 0.210615,-2.95471 z m 24.16018,7.33901 3.17719,-3.22569 -0.22867,-1.16353 c -0.12577,-0.63994 -0.74794,-1.49056 -1.38264,-1.89026 l -1.15397,-0.72672 -3.76527,3.76527 -3.76526,3.76527 1.22235,1.35068 c 0.67229,0.74287 1.55911,1.35067 1.97071,1.35067 0.4116,0 2.17811,-1.45156 3.92556,-3.22569 z m 12.10405,4.41757 2.17889,-2.11185 0,-1.19188 0,-1.19188 -2.10484,0 -2.10484,0 -1.52927,1.43668 -1.52927,1.43667 0,1.42656 c 0,1.68619 0.51047,2.30756 1.89572,2.30756 l 1.01473,0 2.17888,-2.11186 z m 19.35834,3.10299 0,-0.99113 1.24059,0 1.24059,0 0.81117,-0.97741 c 0.44616,-0.53757 1.7176,-1.42958 2.82542,-1.98224 l 2.01424,-1.00483 6.13659,0 6.13659,0 0.40836,-0.66075 c 0.2246,-0.36342 0.99482,-0.66075 1.71161,-0.66075 l 1.30323,0 0.40145,-1.04615 0.40144,-1.04614 -1.29069,-1.29069 -1.29069,-1.29069 -1.80852,1.67609 -1.80853,1.67609 -3.3923,0 -3.39229,0 -1.52927,-1.43667 -1.52927,-1.43668 0,-3.43803 0,-3.43803 0.99112,-0.82256 c 1.8318,-1.52026 0.76618,-4.62523 -1.58737,-4.62523 l -0.99271,0 -2.17888,2.11186 -2.17889,2.11186 0,1.44134 0,1.44136 0.99112,0.82255 0.99113,0.82255 0,2.62534 0,2.62533 -1.10032,1.86269 -1.10033,1.8627 -1.57376,0.71706 c -0.86557,0.39437 -2.73157,0.71704 -4.14667,0.71704 l -2.5729,0 -0.40837,-0.66075 c -0.2246,-0.36341 -0.83682,-0.66074 -1.36049,-0.66074 l -0.95212,0 0,1.59937 0,1.59937 1.93658,0.42535 c 1.06513,0.23393 2.29088,0.85223 2.7239,1.37399 l 0.78731,0.94865 1.57096,0 1.57097,0 0,-0.99112 z m -65.703266,0.92456 0.449499,-0.72731 -4.044622,-4.08089 -4.044615,-4.08089 0,-1.33134 0,-1.33133 -2.808182,-2.68688 c -1.544494,-1.47778 -3.300582,-2.85766 -3.902401,-3.06638 l -1.094234,-0.37949 -1.097863,1.21313 -1.097863,1.21313 2.357259,1.88086 c 1.296497,1.03447 2.357266,2.17199 2.35728,2.52781 2.9e-5,0.94076 10.726034,11.57689 11.674712,11.57689 0.440837,0 1.003801,-0.32729 1.25103,-0.72731 z m 48.636986,1.61602 c 0.66458,-0.60144 1.20833,-1.49345 1.20833,-1.98224 l 0,-0.88872 -1.24059,0 -1.24059,0 -0.82255,0.99112 -0.82257,0.99113 -2.48117,0 -2.48119,0 -0.82255,-0.99113 -0.82256,-0.99112 -1.26133,0 -1.26133,0 -0.38356,0.99953 -0.38356,0.99955 0.81558,0.98269 0.81557,0.98272 4.98787,0 4.98786,0 1.20834,-1.09353 z m -24.27977,0.48728 1.14662,-1.26702 -0.21828,-1.54117 -0.21828,-1.54116 -1.47647,-0.20981 -1.47648,-0.2098 -1.47872,1.03573 c -0.8133,0.56966 -2.11023,1.03574 -2.88206,1.03574 -1.54769,0 -5.325341,-1.71118 -5.927088,-2.68482 -0.210378,-0.34041 -1.108295,-0.61892 -1.995378,-0.61892 l -1.612871,0 0,0.88872 c 0,1.18544 1.999813,2.93168 5.439255,4.74954 l 2.820092,1.49053 3.36651,0.0697 3.36652,0.0697 1.14663,-1.267 z"
         style="fill:#ffffff;stroke:#000000;stroke-width:0.28439718;stroke-miterlimit:4;stroke-dasharray:none;stroke-opacity:1"
         id="path4803"
         inkscape:connector-curvature="0" />
    </g>
  </g>
</svg>
