<?xml version="1.0" encoding="UTF-8" standalone="no"?>
<!-- Created with Inkscape (http://www.inkscape.org/) -->

<svg
   xmlns:dc="http://purl.org/dc/elements/1.1/"
   xmlns:cc="http://creativecommons.org/ns#"
   xmlns:rdf="http://www.w3.org/1999/02/22-rdf-syntax-ns#"
   xmlns:svg="http://www.w3.org/2000/svg"
   xmlns="http://www.w3.org/2000/svg"
   xmlns:sodipodi="http://sodipodi.sourceforge.net/DTD/sodipodi-0.dtd"
   xmlns:inkscape="http://www.inkscape.org/namespaces/inkscape"
   width="11.311879"
   height="11.31401"
   viewBox="0 0 11.31188 11.314009"
   id="svg7591"
   version="1.1"
   inkscape:version="0.91 r13725"
   sodipodi:docname="healing.svg">
  <defs
     id="defs7593" />
  <sodipodi:namedview
     id="base"
     pagecolor="#ffffff"
     bordercolor="#666666"
     borderopacity="1.0"
     inkscape:pageopacity="0.0"
     inkscape:pageshadow="2"
     inkscape:zoom="7.6575556"
     inkscape:cx="26.764843"
     inkscape:cy="-15.219224"
     inkscape:document-units="px"
     inkscape:current-layer="layer1"
     showgrid="false"
     fit-margin-top="0"
     fit-margin-left="0"
     fit-margin-right="0"
     fit-margin-bottom="0"
     inkscape:window-width="1920"
     inkscape:window-height="1027"
     inkscape:window-x="-8"
     inkscape:window-y="-8"
     inkscape:window-maximized="1"
     units="px" />
  <metadata
     id="metadata7596">
    <rdf:RDF>
      <cc:Work
         rdf:about="">
        <dc:format>image/svg+xml</dc:format>
        <dc:type
           rdf:resource="http://purl.org/dc/dcmitype/StillImage" />
        <dc:title></dc:title>
      </cc:Work>
    </rdf:RDF>
  </metadata>
  <g
     inkscape:label="Layer 1"
     inkscape:groupmode="layer"
     id="layer1">
    <g
       id="g7773">
      <path
         id="rect7335-6-3"
         d="m 5.655945,0.8319 c -2.66994,0 -4.82508,2.1552 -4.82508,4.8251 0,2.67 2.15514,4.8251 4.82508,4.8251 2.66995,0 4.82509,-2.1551 4.82509,-4.8251 0,-2.6699 -2.15514,-4.8251 -4.82509,-4.8251 z"
         style="fill:#ff0000;fill-opacity:1;stroke:#000000;stroke-width:0;stroke-linejoin:bevel;stroke-miterlimit:4;stroke-dasharray:none;stroke-opacity:1"
         inkscape:connector-curvature="0"
         class="bg" />
      <path
         inkscape:transform-center-y="-8.2574615"
         inkscape:transform-center-x="-3.1217248"
         inkscape:connector-curvature="0"
         d="m 6.662935,8.6776 0,-6.0421 -2.01402,0 0,6.0421 z m 2.01401,-4.0281 -6.04205,0 0,2.014 6.04205,0 z M 5.655935,0 c 3.11905,0 5.65594,2.5369 5.65594,5.656 0,3.119 -2.53689,5.658 -5.65594,5.658 C 2.536895,11.314 5e-6,8.775 5e-6,5.656 5e-6,2.5369 2.536895,0 5.655935,0 Z m 0,0.8309 c -2.66994,0 -4.82508,2.1551 -4.82508,4.8251 0,2.6699 2.15514,4.8251 4.82508,4.8251 2.66995,0 4.82509,-2.1552 4.82509,-4.8251 0,-2.67 -2.15514,-4.8251 -4.82509,-4.8251 z"
         style="fill-opacity:1;stroke:#000000;stroke-width:0;stroke-linejoin:bevel;stroke-miterlimit:4;stroke-dasharray:none;stroke-opacity:1"
         id="rect7335-6"
         class="outline" />
    </g>
  </g>
</svg>
