<?xml version="1.0" encoding="UTF-8" standalone="no"?>
<!-- Created with Inkscape (http://www.inkscape.org/) -->

<svg
   xmlns:dc="http://purl.org/dc/elements/1.1/"
   xmlns:cc="http://creativecommons.org/ns#"
   xmlns:rdf="http://www.w3.org/1999/02/22-rdf-syntax-ns#"
   xmlns:svg="http://www.w3.org/2000/svg"
   xmlns="http://www.w3.org/2000/svg"
   xmlns:sodipodi="http://sodipodi.sourceforge.net/DTD/sodipodi-0.dtd"
   xmlns:inkscape="http://www.inkscape.org/namespaces/inkscape"
   width="10"
   height="9.0292654"
   viewBox="0 0 10 9.0292654"
   id="svg3619"
   version="1.1"
   inkscape:version="0.91 r13725"
   sodipodi:docname="hm_golem.svg">
  <defs
     id="defs3621" />
  <sodipodi:namedview
     id="base"
     pagecolor="#ffffff"
     bordercolor="#666666"
     borderopacity="1.0"
     inkscape:pageopacity="0.0"
     inkscape:pageshadow="2"
     inkscape:zoom="16.242568"
     inkscape:cx="11.179456"
     inkscape:cy="-11.63795"
     inkscape:document-units="px"
     inkscape:current-layer="layer1"
     showgrid="false"
     units="px"
     inkscape:window-width="1920"
     inkscape:window-height="1027"
     inkscape:window-x="1912"
     inkscape:window-y="-8"
     inkscape:window-maximized="1"
     fit-margin-top="0"
     fit-margin-left="0"
     fit-margin-right="0"
     fit-margin-bottom="0" />
  <metadata
     id="metadata3624">
    <rdf:RDF>
      <cc:Work
         rdf:about="">
        <dc:format>image/svg+xml</dc:format>
        <dc:type
           rdf:resource="http://purl.org/dc/dcmitype/StillImage" />
        <dc:title></dc:title>
      </cc:Work>
    </rdf:RDF>
  </metadata>
  <g
     inkscape:label="Layer 1"
     inkscape:groupmode="layer"
     id="layer1">
    <g
       id="g4774">
      <path
         id="path4749"
         d="m 4.2934395,1.074e-4 c -1.272982,-0.0121265 -2.3236893,1.0134075 -2.3236893,2.7937435 0,0.633959 0.1611613,1.252051 0.3581363,1.373789 0.196975,0.121737 0.358136,0.374667 0.358136,0.561686 0,0.187019 -0.3230404,0.138031 -0.7176712,-0.10842 C 0.7940217,3.8875249 0,4.6597459 0,6.5346969 c 0,1.558688 0.011865,1.57349 1.3430115,1.683661 1.0256123,0.08488 1.343011,-0.02092 1.343011,-0.44767 0,-0.636448 0.405866,-0.725909 0.927518,-0.20425 0.234139,0.234131 0.775471,0.233454 1.593427,-0.0021 1.116703,-0.321584 1.303823,-0.268169 1.895605,0.540702 0.621249,0.849151 2.156016,1.235681 2.496462,0.628837 0.9803195,-1.747412 0.03477,-3.887764 -1.451432,-3.275688 -0.326442,0.134441 -0.761774,0.206361 -0.963191,0.293084 -0.06973,-1.399569 -0.01909,-2.837112 0.215442,-2.837112 0.549874,0 0.308906,-0.546392 -0.754745,-1.710941 C 5.9007035,0.3882012 5.0572295,0.0073829 4.2934395,1.07e-4 Z"
         style="fill:#000000"
         inkscape:connector-curvature="0" />
      <path
         id="path4735"
         d="m 4.2857455,0.4072074 c -0.836171,0 -1.332301,0.2163344 -1.587132,0.6924905 -0.484899,0.906042 -0.4749625,2.424607 0.01819,2.729391 0.214136,0.132343 0.305586,0.561938 0.202851,0.954797 -0.102736,0.392859 -0.03282,1.120612 0.155985,1.61721 0.308873,0.812398 0.489176,0.883292 1.796977,0.707878 0.799425,-0.107225 1.498346,-0.248962 1.552857,-0.314768 0.05451,-0.06581 0.204751,-0.603096 0.333655,-1.194021 0.185741,-0.851483 0.154938,-0.944369 -0.146892,-0.44767 -0.270995,0.445954 -0.840569,0.626738 -1.974647,0.626738 -0.8766,0 -1.839853,-0.04344 -1.713738,-0.36653 0.168174,-0.430839 1.035518,-0.289587 1.72493,-0.289587 0.906882,0 1.223899,-0.158537 1.253477,-0.569381 0.03426,-0.475873 0.427386,-1.259772 0.427386,-1.259772 l 0.778523,-0.630936 -0.803009,-1.12757 C 5.6741655,0.6493284 5.2414615,0.4072074 4.2857445,0.4072074 Z m 1.142959,1.0478285 c 0.09104,-0.02077 0.234749,0.0525 0.503629,0.2714 0.257388,0.20955 0.333202,0.676173 0.214742,0.984875 -0.230326,0.600222 -1.155684,0.765644 -1.459126,0.255313 -0.232282,-0.390654 0.148076,-0.468196 0.390313,-0.864564 0.193685,-0.316925 0.198711,-0.61241 0.350442,-0.647024 z m -2.430012,0.216141 c 0.02578,-0.003 0.05318,-0.0021 0.08184,0.0028 0.137557,0.02336 0.307711,0.134341 0.505728,0.29868 0.694203,0.576138 0.736597,0.924377 -0.183965,0.941507 -0.393882,0.0073 -0.728009,-0.215378 -0.716273,-0.477749 0.02342,-0.523592 0.132211,-0.744283 0.31267,-0.765236 z m 1.352805,1.743816 c 0.113858,0.01564 0.219827,0.07972 0.28469,0.184665 0.115312,0.186577 0.271215,0.433784 0.08464,0.549095 -0.186577,0.115311 -0.759045,0.168392 -0.874357,-0.01819 -0.11531,-0.186577 0.05474,-0.545003 0.241323,-0.660314 0.04664,-0.02883 0.09709,-0.04673 0.148291,-0.05456 0.0384,-0.0059 0.07746,-0.0059 0.115415,-6.98e-4 z m -3.0343671,1.347209 c -0.058284,-0.0016 -0.1173774,0.0019 -0.177669,0.01049 -0.6569088,0.09352 -0.7871017,0.439337 -0.8149003,1.718635 -0.00422,0.193928 0.199347,0.357046 0.5763758,0.425987 0,0 -0.3901545,0.04821 -0.5022304,0.139197 -0.083421,0.06772 -0.069145,0.191601 -0.065052,0.237126 0.05304,0.589962 0.2682989,0.634433 0.9687868,0.634433 0.7694188,0 1.0629689,-0.205838 1.2275962,-0.861766 0.287578,-1.145799 -0.3386454,-2.280007 -1.2129072,-2.304104 z m 0.1734727,0.921921 c 0.1684115,0.0077 0.3164948,0.208179 0.4105976,0.542801 0.1080773,0.384313 -0.09979,0.626738 -0.4686551,0.626738 -0.3440713,0 -0.5978127,-0.24856 -0.474251,-0.55609 0.1752057,-0.436066 0.3638959,-0.621155 0.5323085,-0.613449 z m 6.8647464,0.169975 c -0.0626,0.0032 -0.124462,0.0119 -0.186063,0.02588 -0.458427,0.104075 -0.780341,0.132707 -0.970885,0.116115 0.06718,1.108095 0.207333,2.13931 0.401504,2.333482 0.513896,0.513895 2.174465,0.0073 1.696951,-0.389613 -0.440205,-0.365862 -0.286733,-0.566582 0.241323,-0.757543 0.7490425,-0.270875 -0.243762,-1.375696 -1.18283,-1.328322 z m -0.118213,0.641428 c 0.295463,0 0.537205,0.241742 0.537205,0.537205 0,0.295462 -0.241742,0.537204 -0.537205,0.537204 -0.295462,0 -0.537204,-0.241742 -0.537204,-0.537204 0,-0.295463 0.241742,-0.537205 0.537204,-0.537205 z"
         style="fill:#00ffff"
         inkscape:connector-curvature="0" />
    </g>
  </g>
</svg>
