<?xml version="1.0" encoding="UTF-8" standalone="no"?>
<!-- Created with Inkscape (http://www.inkscape.org/) -->

<svg
   xmlns:dc="http://purl.org/dc/elements/1.1/"
   xmlns:cc="http://creativecommons.org/ns#"
   xmlns:rdf="http://www.w3.org/1999/02/22-rdf-syntax-ns#"
   xmlns:svg="http://www.w3.org/2000/svg"
   xmlns="http://www.w3.org/2000/svg"
   xmlns:sodipodi="http://sodipodi.sourceforge.net/DTD/sodipodi-0.dtd"
   xmlns:inkscape="http://www.inkscape.org/namespaces/inkscape"
   width="9.999999"
   height="9.1877804"
   viewBox="0 0 9.999999 9.1877814"
   id="svg3521"
   version="1.1"
   inkscape:version="0.91 r13725"
   sodipodi:docname="hm_mine_entrance.svg">
  <defs
     id="defs3523" />
  <sodipodi:namedview
     id="base"
     pagecolor="#ffffff"
     bordercolor="#666666"
     borderopacity="1.0"
     inkscape:pageopacity="0.0"
     inkscape:pageshadow="2"
     inkscape:zoom="10.381219"
     inkscape:cx="14.225295"
     inkscape:cy="-17.843691"
     inkscape:document-units="px"
     inkscape:current-layer="layer1"
     showgrid="false"
     units="px"
     inkscape:window-width="1920"
     inkscape:window-height="1027"
     inkscape:window-x="1912"
     inkscape:window-y="-8"
     inkscape:window-maximized="1"
     fit-margin-top="0"
     fit-margin-left="0"
     fit-margin-right="0"
     fit-margin-bottom="0" />
  <metadata
     id="metadata3526">
    <rdf:RDF>
      <cc:Work
         rdf:about="">
        <dc:format>image/svg+xml</dc:format>
        <dc:type
           rdf:resource="http://purl.org/dc/dcmitype/StillImage" />
        <dc:title></dc:title>
      </cc:Work>
    </rdf:RDF>
  </metadata>
  <g
     inkscape:label="Layer 1"
     inkscape:groupmode="layer"
     id="layer1">
    <g
       id="g4653">
      <path
         id="path3511"
         d="M 1.6244147,8.7509736 C 1.6315257,7.9841676 1.6196077,6.9748613 1.6188893,5.9981393 1.6185434,5.6043856 1.6012083,5.1794457 1.0688847,5.3186548 0.70579277,5.4136116 -4.8e-7,4.9422686 -4.8e-7,4.6047578 -4.8e-7,4.5106613 0.61846468,3.7774073 1.3743601,2.9753823 2.1302558,2.1733034 2.8966107,1.2678259 3.0773637,0.96311447 3.5132549,0.22840875 4.0878685,-0.00699389 5.4279865,1.5744866e-4 6.6024671,0.00660978 7.3455152,0.38111398 7.3455152,0.96698588 c 0,0.34105962 1.0676166,1.82988182 2.0155321,2.81063652 0.7635437,0.7900883 0.7683097,0.8038532 0.403109,1.1690553 -0.1978818,0.1979254 -0.2687397,0.6816353 -0.2687397,1.8345598 0,0.3836988 0.022632,1.3188032 0.02354,1.5889947 0.00145,0.3767087 0.00145,0.7624507 -0.5807251,0.7626658 l -3.3143498,0 C 5.1906428,9.1330593 4.9260594,8.8651262 4.9273327,8.7446288 c 0.00382,-0.3651483 -0.00242,-2.1109884 -0.00242,-2.4389283 0,-0.3152503 -0.00145,-0.3152503 -0.7191212,-0.3109487 -0.6226981,-0.00538 -0.6226981,-0.00538 -0.6203822,0.309013 -0.00242,0.6375981 -1.199e-4,1.7207298 -0.0029,2.4481229 -0.00242,0.6527073 -1.9628788,0.5050027 -1.9581703,0 z"
         style="fill:#000000"
         inkscape:connector-curvature="0" />
      <path
         d="m 1.433298,4.6643344 c 0,-0.091946 0.5038854,-0.6791082 1.1197415,-1.3048232 C 3.168896,2.7337961 3.7718327,2.0028005 3.8928935,1.7350824 4.2383622,0.97112612 4.9190759,1.071675 5.368775,1.9531713 5.7175156,2.6367961 6.0303134,3.0295819 7.19714,4.2492342 c 0.4594911,0.4803225 0.6919606,0.5822694 1.3275155,0.5822694 0.8547401,0 1.2025822,-0.284064 0.6142804,-0.5017227 C 8.9302008,4.2525679 8.6629989,4.0219508 8.5451616,3.8172505 8.0746875,3.0002237 7.0280426,1.3395544 6.6869169,1.3342312 3.5406025,1.2847633 4.2354796,1.1239927 6.6263074,1.2119595 6.8751992,1.2211003 6.7549164,0.71744187 6.6890117,0.65152053 6.6231076,0.58559919 6.0157408,0.5317222 5.3393083,0.5317222 c -1.0085347,0 -1.2503445,0.0564041 -1.343635,0.31352965 C 3.8793162,1.1659328 3.6779028,1.3967651 1.7974421,3.3648344 0.63790411,4.5784108 0.51321556,4.8315036 1.074977,4.8315036 c 0.1970792,0 0.358321,-0.075223 0.358321,-0.1671692 z M 6.4204355,4.9425375 C 6.4559395,4.7573017 6.4152736,4.5557201 6.330119,4.494638 6.1617765,4.3739793 5.4863769,3.543564 4.9450637,2.7916521 L 4.6049091,2.3191799 3.8253171,3.1683608 C 3.3965418,3.6353485 3.0253014,4.1966477 3.0253014,4.1966477 3.3206296,4.5072738 4.2521132,4.5205011 4.935339,4.5617423 7.8339106,4.736708 5.7644466,4.7309547 5.1557399,4.7744542 4.8895371,4.7938112 4.1092876,4.8365041 3.4761346,4.7857458 2.8429816,4.7346648 2.280807,4.7647757 2.2268612,4.8519897 1.9688792,5.2694557 2.4529552,5.3781238 4.3565985,5.3299463 6.148924,5.28478 6.3625597,5.2446142 6.4204355,4.942645 Z M 8.9503272,8.3659844 C 8.9546288,8.124936 8.9346158,7.0905731 8.951779,5.9738892 L 8.95807,5.5643811 8.3489068,5.4501211 C 7.1713947,5.2291824 7.0108783,5.0543242 7.029967,6.0102912 c 0.014701,0.734867 -0.00145,2.2323999 -0.00479,2.3741361 -0.00812,0.3625136 1.9185126,0.3625136 1.9251672,-0.018282 z M 6.3577887,7.3374286 C 6.3734518,6.1567054 6.3362164,5.8237649 5.8833121,5.9976016 5.676254,6.0770728 5.652846,6.331241 5.643189,7.1232112 c -0.00913,0.7485782 -0.014367,0.9793567 -0.014555,1.2391706 -1.919e-4,0.3845591 0.7392573,0.3845591 0.7332803,0.00591 -0.0029,-0.177708 -0.012394,-0.4074111 -0.0043,-1.0305452 z M 3.0527066,6.1227768 c -0.00242,-0.3986466 -0.8327881,-0.4657509 -0.8336818,0.00538 -9.678e-4,0.4705902 0.00242,1.5188793 0.00145,2.2391748 -3.458e-4,0.2722347 0.8150158,0.2761599 0.8166541,0.00538 0.0043,-0.714811 0.018163,-1.8494539 0.015663,-2.2480468 z"
         style="fill:#ffff00"
         id="path3349"
         inkscape:connector-curvature="0" />
    </g>
  </g>
</svg>
