<?xml version="1.0" encoding="UTF-8" standalone="no"?>
<!-- Created with Inkscape (http://www.inkscape.org/) -->

<svg
   xmlns:dc="http://purl.org/dc/elements/1.1/"
   xmlns:cc="http://creativecommons.org/ns#"
   xmlns:rdf="http://www.w3.org/1999/02/22-rdf-syntax-ns#"
   xmlns:svg="http://www.w3.org/2000/svg"
   xmlns="http://www.w3.org/2000/svg"
   xmlns:sodipodi="http://sodipodi.sourceforge.net/DTD/sodipodi-0.dtd"
   xmlns:inkscape="http://www.inkscape.org/namespaces/inkscape"
   width="72.248886mm"
   height="43.533501mm"
   viewBox="0 0 256 154.25256"
   id="svg4778"
   version="1.1"
   inkscape:version="0.91 r13725"
   sodipodi:docname="tomb of the spider queen.svg">
  <defs
     id="defs4780" />
  <sodipodi:namedview
     id="base"
     pagecolor="#ffffff"
     bordercolor="#666666"
     borderopacity="1.0"
     inkscape:pageopacity="0.0"
     inkscape:pageshadow="2"
     inkscape:zoom="2.694382"
     inkscape:cx="159.37403"
     inkscape:cy="41.886216"
     inkscape:document-units="px"
     inkscape:current-layer="layer1"
     showgrid="false"
     fit-margin-top="0"
     fit-margin-left="0"
     fit-margin-right="0"
     fit-margin-bottom="0"
     inkscape:window-width="1920"
     inkscape:window-height="1027"
     inkscape:window-x="-8"
     inkscape:window-y="-8"
     inkscape:window-maximized="1" />
  <metadata
     id="metadata4783">
    <rdf:RDF>
      <cc:Work
         rdf:about="">
        <dc:format>image/svg+xml</dc:format>
        <dc:type
           rdf:resource="http://purl.org/dc/dcmitype/StillImage" />
        <dc:title></dc:title>
      </cc:Work>
    </rdf:RDF>
  </metadata>
  <g
     inkscape:label="Layer 1"
     inkscape:groupmode="layer"
     id="layer1">
    <g
       id="g7513">
      <path
         inkscape:connector-curvature="0"
         class="border"
         id="path7413"
         d="M 117.79421,1.3772663e-5 117.55423,10.492385 l -5.94946,-0.349967 -4.99787,-0.2949731 -3.13971,1.6731791 -1.25822,0.671606 -0.72827,-0.684938 -2.458106,-2.3081214 -4.277941,0 -2.654757,0 -1.779837,-1.4998621 -2.973061,-2.4997713 -5.462833,0 -6.586063,0 -0.471623,4.087959 -0.03,0.269975 L 63.92914,9.3241597 50.178734,9.0291869 l -2.591429,2.7714121 -1.306547,1.398205 -1.968153,0 -3.787986,0 -4.094625,4.171285 -4.212947,4.291273 0.69327,4.619577 0.28164,1.873161 -0.39663,0.15332 -0.774929,-0.246645 -4.266275,-1.353208 0,1.40987 -0.249978,-0.368299 C 26.22382,25.865571 24.151644,23.794582 22.267958,22.514617 l -3.431352,-2.331453 -4.271274,0.46829 -4.069627,0.446626 -2.5247694,1.884827 c -1.3973964,1.043305 -2.9863324,2.632252 -4.0296305,4.029631 l -1.8848278,2.524769 -0.4466253,4.06796 -0.4682903,4.272942 2.3314531,3.431352 c 1.2799646,1.883663 3.3526297,3.955856 5.236187,5.236187 l 1.4182032,0.963245 -0.06999,0.01166 L 9.5274607,50.585376 9.379141,51.440298 5.7894694,54.695 2.2977239e-7,59.946185 20.459792,80.460969 l 20.07316,20.124821 3.189708,-1.966485 0.29164,-0.179977 8.670872,8.965842 10.490705,10.85068 3.666331,0 1.839831,0 1.246552,1.69767 c 1.867302,1.11072 4.096292,2.54977 4.096292,2.54977 0,0 1.77062,-0.8939 2.42311,-1.30136 0.652491,-0.40747 1.206573,-0.66602 1.834833,-1.25625 l 0.409962,-0.38496 0.168318,0.15166 0.189983,0.17165 c -0.17063,0.33076 -0.455509,0.66133 -0.563283,1.0049 -0.211699,0.67489 -0.338302,1.38624 -0.338302,2.14481 l 0,2.68809 8.440893,8.25423 8.419229,8.23426 8.515884,0.0217 6.74272,0.0183 1.67151,1.74483 2.92807,3.05806 4.76123,0 1.71651,0 0,1.46653 0,5.73281 7.73262,0 7.73263,0 0,-5.73281 0,-1.46653 1.71651,0 4.76123,0 2.92806,-3.05806 1.66985,-1.7415 6.72438,0 8.51589,0 8.43922,-8.40757 8.4409,-8.40923 0,-2.53976 c 0,-1.59134 -0.35768,-2.89744 -1.59319,-4.13295 l 0.53828,0.53994 0.22998,-0.22997 0.0383,-0.0383 0.20332,0.25831 c 1.15612,1.46978 4.16504,3.49583 4.16504,3.49583 0,0 3.33036,-1.81438 4.63915,-3.20752 l 1.24655,-1.32654 1.54986,0 3.35635,0 10.6007,-10.6257 c 4.54619,-4.55714 7.54707,-7.37743 9.19916,-8.645871 0.0667,0.06502 0.0611,0.13513 0.13998,0.198313 0.9597,0.768792 2.10243,0.559761 2.71642,0.328307 1.22799,-0.462925 2.13616,-1.238627 3.67967,-2.568101 3.087,-2.658948 8.12365,-7.577947 16.45349,-15.901877 l 18.82994,-18.816609 0,-2.039814 c 0,-1.158141 -0.40411,-1.745341 -0.80327,-2.414778 -0.39914,-0.669437 -0.88954,-1.316696 -1.42486,-1.924823 -0.53532,-0.608128 -1.10701,-1.167525 -1.71651,-1.636517 -0.60951,-0.468992 -1.10733,-1.013241 -2.46478,-1.013241 0.74647,0 0.35147,0.0594 0.085,-0.09666 -0.26646,-0.156063 -0.62962,-0.418417 -0.91491,-0.676605 l -0.75994,-0.68827 0,-0.929915 0,-3.754656 0.32497,-0.164985 3.90964,-1.993151 1.87984,-3.08305 1.87816,-3.078052 0.003,-4.279607 0.003,-4.341269 -2.17146,-3.181375 -2.08815,-3.061386 -3.2497,-1.774838 -3.38303,-1.848163 -4.14962,0.428294 -4.07629,0.421627 -2.57976,1.923158 c -1.52549,1.136986 -3.03456,2.923745 -4.08296,4.654573 l -4.64624,0.209981 -0.50162,0.02333 -0.11666,-1.903159 -0.29331,-4.792893 -3.8763,-3.96797 -3.94964,-4.041297 -3.39136,0 -1.56985,0 -1.30822,-1.394871 -2.58809,-2.7614145 -13.74708,0.2716423 -10.86067,0.2149802 -0.03,-0.2583093 -0.47329,-4.0712941 -6.73105,0 -5.60781,0 -2.97307,2.4997713 -1.7815,1.4998621 -2.63476,0 -4.36127,0 -2.08315,2.301456 -0.81325,0.898251 -0.43163,0 c 0.25535,0 -0.68917,-0.378846 -0.7316,-0.429961 l -1.63485,-1.9698193 -5.54449,0 -5.4245,0 -1.4882,1.4881973 -0.26331,-11.487280830856 -11.28396,0 -11.28397,0 z M 119.87902,2.1331516 l 9.19915,0 9.19916,0 0.22498,9.7991014 0.22498,9.799102 1.17489,0 1.17489,0 0,-3.839648 0,-3.839648 0.95991,-0.959912 0.95992,-0.959912 4.54125,0 4.54125,0 0.99657,1.19989 c 0.54771,0.659933 1.61526,1.19989 2.37312,1.19989 l 1.3782,0 1.44821,-1.599853 1.4482,-1.599854 3.41469,0 3.41302,0 2.37645,-1.9998162 2.37811,-1.9998168 4.82956,0 4.83122,0 0.25331,2.1831335 0.25331,2.1847995 12.79883,-0.25331 12.79882,-0.25331 1.93983,2.068144 1.93815,2.06981 2.49477,0 2.4931,0 3.32137,3.399688 3.32303,3.399689 0.24331,3.999633 0.24498,3.999634 2.59976,-0.118323 2.59976,-0.118323 0,3.364693 0,3.364691 1.1099,1.518194 1.1099,1.518194 -0.06,-4.032964 -0.0617,-4.032963 1.55153,-2.648091 c 0.85286,-1.456524 2.49837,-3.355317 3.658,-4.219613 l 2.10814,-1.571523 3.49134,-0.359967 3.49135,-0.361633 2.79974,1.52986 2.79975,1.529859 1.79984,2.636425 1.79983,2.638092 -0.003,3.681329 -0.003,3.681329 -1.56486,2.566432 -1.56652,2.568098 -3.37136,1.719842 -3.37302,1.719842 -3.45802,-0.389964 -3.45801,-0.388297 0,0.719934 c 0,0.999571 3.62482,2.283124 6.45107,2.283124 l 2.34812,0 0,1.874828 0,1.876495 1.4632,1.323212 c 0.80457,0.728125 1.82117,1.324878 2.25979,1.324878 1.17723,0 4.27628,3.518889 4.27628,4.856221 l 0,1.154895 -18.205,18.193329 c -16.64488,16.633074 -20.19148,19.688001 -20.19148,17.391746 0,-2.155937 -2.85352,0.03174 -11.9989,9.199153 l -9.97576,9.99909 -2.47144,0 -2.47311,0 -1.87816,1.99981 c -3.08495,2.43671 -2.7226,2.51595 -5.57282,-0.14832 l -1.68818,-2.14647 -1.73817,1.73817 -1.73817,1.73818 0.96824,0.96825 c 0.53284,0.53284 0.96991,1.71458 0.96991,2.62475 l 0,1.65485 -7.81428,7.78429 -7.81262,7.78429 -7.63597,0 -7.63596,0 -2.29813,2.39978 -2.29978,2.39978 -3.84965,0 -3.84965,0 0,3.59967 0,3.59967 -5.59949,0 -5.59948,0 0,-3.59967 0,-3.59967 -3.84965,0 -3.84965,0 -2.29979,-2.39978 -2.29979,-2.39978 -7.64929,-0.0217 -7.649304,-0.02 -7.799285,-7.62763 -7.799285,-7.62597 0,-1.7915 c 0,-0.98535 0.367901,-2.16108 0.818258,-2.61143 l 0.819925,-0.81827 -1.628184,-1.47319 -1.626518,-1.47153 -1.843165,1.73151 c -2.353362,2.21082 -3.042922,2.17629 -5.33951,-0.26831 l -1.878161,-1.99982 -2.76308,0 -2.761413,0 -9.862251,-10.19909 -9.862429,-10.199063 -1.753173,1.079897 -1.751506,1.079905 L 21.969656,78.954445 3.0897198,60.022846 l 4.1329546,-3.74799 4.1329546,-3.746323 0.273308,-1.579855 0.273308,-1.578189 3.406354,-0.581613 c 3.686822,-0.629387 4.979545,-1.197873 4.979545,-2.189799 l 0,-0.634942 -3.799652,0.3533 L 12.68884,46.670737 9.907428,44.78091 C 8.3780381,43.741321 6.2770842,41.639054 5.2378562,40.109671 l -1.889827,-2.779745 0.3832984,-3.491347 0.381632,-3.491347 1.538192,-2.059811 c 0.8454922,-1.13244 2.463892,-2.74918 3.5963373,-3.59467 l 2.0581441,-1.538193 3.491347,-0.383298 3.491347,-0.381631 2.781412,1.889826 c 1.529391,1.039222 3.629991,3.140181 4.669572,4.669573 l 1.891493,2.781411 -0.354968,3.799652 -0.3533,3.799651 0.604944,0 c 0.873921,0 2.359784,-4.643239 2.359784,-7.372657 l 0,-2.334786 1.48653,0.471624 1.488197,0.471623 1.346543,-0.51662 1.346544,-0.516619 -0.534951,-3.568006 -0.534951,-3.568006 3.466349,-3.53301 3.468015,-3.531343 2.893068,0 2.894735,0 1.938155,-2.074809 1.939823,-2.074811 12.798827,0.274976 12.798827,0.274974 0.25331,-2.1997986 0.25331,-2.1997984 4.68457,0 4.684572,0 2.376448,1.9998168 2.378115,1.9998162 3.431353,0 3.433018,0 1.843169,1.729842 1.84149,1.731508 2.60976,-1.391539 2.6081,-1.389873 4.3996,0.259977 4.39959,0.259975 0.23998,4.599579 0.23998,4.599578 1.53486,0 1.53486,0 0.22498,-9.799102 z"
         style="color:#000000;font-style:normal;font-variant:normal;font-weight:normal;font-stretch:normal;font-size:medium;line-height:normal;font-family:sans-serif;text-indent:0;text-align:start;text-decoration:none;text-decoration-line:none;text-decoration-style:solid;text-decoration-color:#000000;letter-spacing:normal;word-spacing:normal;text-transform:none;direction:ltr;block-progression:tb;writing-mode:lr-tb;baseline-shift:baseline;text-anchor:start;white-space:normal;clip-rule:nonzero;display:inline;overflow:visible;visibility:visible;opacity:1;isolation:auto;mix-blend-mode:normal;color-interpolation:sRGB;color-interpolation-filters:linearRGB;solid-color:#000000;solid-opacity:1;fill:#000000;fill-opacity:1;fill-rule:nonzero;stroke:none;stroke-width:5;stroke-linecap:butt;stroke-linejoin:miter;stroke-miterlimit:4;stroke-dasharray:none;stroke-dashoffset:0;stroke-opacity:1;color-rendering:auto;image-rendering:auto;shape-rendering:auto;text-rendering:auto;enable-background:accumulate"
         sodipodi:nodetypes="ccccccccccccccccccccccccccccccccccccccccccccccccccccccccccsccccsscccccccccccccccccccccccscccccccccccccssscscssccccccccccccccccccccccccccccccccccccccccccccccccccccccccccccccccccsccccccccccccccccccccccccccccccccccccccccccccccssccccssccscccccccccsscccccccccccccccccccccccsccccscccccccccccccccsccccccccccccccccccssccccccccccccccccccccccccccccccccccc" />
      <path
         inkscape:connector-curvature="0"
         class="bg"
         id="path7408"
         d="m 123.47869,148.51912 0,-3.59967 -3.84998,0 -3.84998,0 -2.29913,-2.39978 -2.29913,-2.39978 -7.64963,-0.0206 -7.649625,-0.0206 -7.799289,-7.62702 -7.799281,-7.62703 0,-1.79152 c 0,-0.98535 0.36847,-2.16001 0.818826,-2.61037 l 0.818835,-0.81882 -1.627141,-1.47254 -1.62714,-1.47254 -1.843005,1.73141 c -2.353363,2.21083 -3.042981,2.17616 -5.339569,-0.26844 l -1.878731,-1.99982 -2.762004,0 -2.762012,0 L 54.21826,105.92302 44.355817,95.723954 42.603394,96.804098 40.85097,97.884251 21.970345,78.953813 3.089719,60.023376 7.2227861,56.27564 l 4.1330659,-3.747727 0.273449,-1.578897 0.27345,-1.578898 3.405056,-0.581288 c 3.686821,-0.629387 4.980337,-1.198226 4.980337,-2.190153 l 0,-0.635299 -3.799653,0.353828 -3.799652,0.353828 -2.7807071,-1.890157 C 8.3787421,43.741288 6.2771457,41.639397 5.2379176,40.110014 l -1.889507,-2.780708 0.382638,-3.491068 0.3826388,-3.491076 1.5372594,-2.05899 c 0.8454923,-1.13244 2.4638041,-2.750758 3.5962494,-3.596248 l 2.0589918,-1.537259 3.491069,-0.382642 3.491069,-0.382634 2.780708,1.889508 c 1.529392,1.039222 3.631283,3.140824 4.670864,4.670215 l 1.890156,2.780707 -0.353819,3.799648 -0.353828,3.799656 0.60425,0 c 0.873921,0 2.360607,-4.643201 2.360607,-7.372619 l 0,-2.334319 1.487164,0.472013 1.487155,0.472003 1.346795,-0.516808 1.346795,-0.516816 -0.535042,-3.567887 -0.535033,-3.567895 3.467117,-3.53274 3.467125,-3.532733 2.893721,0 2.893712,0 1.939278,-2.074869 1.93927,-2.074869 12.798827,0.27503 12.798827,0.275038 0.253109,-2.1998023 0.253119,-2.1997941 4.685053,0 4.685053,0 2.376648,1.9998167 2.376649,1.9998167 3.432637,0 3.432645,0 1.842272,1.730726 1.84227,1.730725 2.60888,-1.390635 2.60888,-1.390618 4.3996,0.25985 4.39959,0.259851 0.2399,4.599574 0.2399,4.599582 1.53531,0 1.53532,0 0.2246,-9.799106 0.22461,-9.7990999 9.19915,0 9.19916,0 0.2246,9.7990999 0.2246,9.799106 1.17528,0 1.17526,0 0,-3.839648 0,-3.839648 0.95991,-0.959912 0.95992,-0.959912 4.54163,0 4.54163,0 0.99581,1.19989 c 0.54771,0.659933 1.61589,1.19989 2.37375,1.19989 l 1.37792,0 1.44786,-1.599853 1.44785,-1.599853 3.41431,0 3.41432,0 2.37665,-1.9998172 2.37664,-1.9998167 4.83093,0 4.83094,0 0.25312,2.1841028 0.25311,2.1841111 12.79883,-0.252973 12.79882,-0.252973 1.93927,2.068495 1.93928,2.068504 2.49376,0 2.49375,0 3.32179,3.399684 3.32179,3.399693 0.24445,3.999633 0.24445,3.999634 2.59976,-0.117954 2.59976,-0.117946 0,3.364744 0,3.364751 1.10995,1.517941 1.10995,1.51795 -0.0608,-4.032714 -0.0608,-4.032715 1.55065,-2.64823 c 0.85286,-1.456524 2.49944,-3.355384 3.65907,-4.21968 l 2.10842,-1.571448 3.49106,-0.360569 3.49108,-0.36056 2.79974,1.529716 2.79975,1.529716 1.79983,2.636771 1.79984,2.636781 -0.003,3.681352 -0.003,3.68136 -1.56548,2.567496 -1.56549,2.567488 -3.372,1.720273 -3.37201,1.720265 -3.45874,-0.389853 -3.45827,-0.389843 0,0.721461 c 0,0.999571 3.62523,2.281724 6.45148,2.281724 l 2.34771,0 0,1.875838 0,1.875831 1.46285,1.323876 c 0.80458,0.728125 1.82174,1.323868 2.26035,1.323868 1.17723,0 4.27607,3.5203 4.27607,4.857633 l 0,1.154855 -18.20472,18.191809 c -16.64488,16.633074 -20.19176,19.688145 -20.19176,17.391891 0,-2.155937 -2.85352,0.03174 -11.9989,9.199157 l -9.97509,9.99908 -2.47232,0 -2.47232,0 -1.87873,1.99982 c -2.39174,2.54588 -3.47649,2.51726 -5.5722,-0.147 l -1.68868,-2.14681 -1.73796,1.73797 -1.73796,1.73796 0.9688,0.96879 c 0.53284,0.53284 0.9688,1.71348 0.9688,2.62366 l 0,1.65485 -7.8136,7.78428 -7.81359,7.78428 -7.63532,0 -7.63532,0 -2.29913,2.39978 -2.29913,2.39978 -3.84998,0 -3.84997,0 0,3.59967 0,3.59967 -5.59949,0 -5.59948,0 0,-3.59967 z"
         style="fill:#ffff00" />
      <path
         inkscape:connector-curvature="0"
         class="nexus red"
         id="path7486"
         d="m 243.49387,40.515455 2.34652,-1.213431 1.21343,-2.34652 c 1.52539,-2.949772 1.52408,-4.304459 -0.007,-7.265246 l -1.22023,-2.360052 -3.05518,0 -3.05519,0 -1.31133,1.448997 -1.31132,1.448998 0.93846,2.486258 0.93845,2.486266 1.91179,0.365458 1.91179,0.365466 0.42251,-1.101015 c 0.53475,-1.39357 -0.24675,-3.500795 -1.29832,-3.500795 l -0.79992,0 0.46043,1.19989 0.46045,1.19989 -0.79992,0 c -0.43997,0 -1.03023,-0.600145 -1.31171,-1.333655 l -0.51177,-1.333655 0.62617,-0.597005 c 0.3444,-0.32835 1.50765,-0.718117 2.58501,-0.866139 l 1.95883,-0.269143 0.57561,2.774385 0.57562,2.774393 -0.72848,1.361164 -0.72847,1.361164 -2.80588,0.92602 c -2.74925,0.907335 -3.34003,1.601023 -2.2726,2.668453 0.80045,0.800456 1.70709,0.656794 4.29245,-0.680146 z"
         style="fill:#ffffff;stroke:#000000;stroke-width:0.42662758;stroke-miterlimit:4;stroke-dasharray:none;stroke-opacity:1" />
      <path
         inkscape:connector-curvature="0"
         class="nexus blue"
         id="path7484"
         d="m 16.634398,40.393678 2.799944,-1.335199 1.278816,-2.694887 1.278808,-2.694895 -0.931592,-2.822739 -0.931584,-2.82273 -1.822448,-0.830362 -1.822448,-0.830371 -2.897436,1.374927 -2.897436,1.374926 0.02544,1.708686 c 0.03328,2.235367 1.538318,4.118441 3.746384,4.687417 l 1.772009,0.456611 0.479423,-1.510526 0.479424,-1.510534 -0.498806,-0.807077 C 16.41855,31.693027 15.686679,31.329839 15.066513,31.329839 l -1.127575,0 0.460441,1.19989 0.460441,1.19989 -0.941146,0 -0.941145,0 0.255617,-1.799839 0.255617,-1.799831 2.342228,0 2.342227,0 0.629048,2.352092 0.629047,2.3521 -0.917944,1.106057 c -0.504871,0.608329 -2.304618,1.813483 -3.999438,2.678112 l -3.081491,1.572063 0.475426,0.769252 c 0.66202,1.071177 1.505168,0.97022 4.72653,-0.565947 z"
         style="fill:#ffffff;stroke:#000000;stroke-width:0.42662758;stroke-miterlimit:4;stroke-dasharray:none;stroke-opacity:1" />
      <path
         id="path7623"
         style="fill:#ffffff;stroke:#000000;stroke-width:0.42662758;stroke-miterlimit:4;stroke-dasharray:none;stroke-opacity:1"
         d="m 120.66375,58.44956 c 1.63203,1.782384 1.6326,1.991953 3.32942,3.601874 l 1.43987,0.03027 c 0.0363,0.708734 0.0303,1.41798 0.0303,2.127326 l -1.94176,0 C 121.24025,62.017709 118.264,58.501666 118.264,58.501666 l 0,-1.491976 2.39978,0 z m 55.6101,-44.318145 0,-1.999816 1.19989,0 c 0.65994,0 1.19989,-0.359972 1.19989,-0.799927 l 0,-0.799927 -1.94775,0 c -1.07126,0 -2.87109,0.351055 -3.99963,0.780123 l -2.05189,0.780131 0,1.486328 c 0,2.031686 0.68049,2.552905 3.33303,2.552905 l 2.26646,0 0,-1.999817 z m -95.053763,0 0,-1.999816 -1.19989,0 c -0.65994,0 -1.19989,-0.359972 -1.19989,-0.799927 l 0,-0.799927 1.94775,0 c 1.07126,0 2.87109,0.351055 3.99963,0.780123 l 2.05189,0.780131 0,1.486328 c 0,2.031686 -0.68049,2.552905 -3.33303,2.552905 l -2.26646,0 0,-1.999817 z m 70.226953,4.834595 0.96674,-1.164847 -0.51604,-0.83497 -0.51603,-0.834961 -3.15251,0 -3.15249,0 0,1.999817 0,1.999816 2.70179,0 2.7018,0 0.96674,-1.164855 z m -44.91244,0.223489 -0.96674,-1.164847 0.51604,-0.83497 0.51603,-0.834961 3.15251,0 3.15249,0 0,1.999817 0,1.999816 -2.70179,0 -2.7018,0 -0.96674,-1.164855 z m 24.14343,1.741293 0,-2.39978 -1.62496,0 -1.62496,0 -0.46044,1.19989 c -0.25325,0.659933 -0.25325,1.739839 0,2.39978 l 0.46044,1.19989 1.62496,0 1.62496,0 0,-2.39978 z m 3.02267,9.450469 -0.011,-0.836508 -2.51644,0.0061 0.026,-0.69013 -4.46556,0.07532 0.027,0.647374 -3.03334,0.05669 0.0272,0.857721 2.8744,-0.05982 0.0373,0.551195 4.44644,-0.04998 0.0147,-0.527743 z m 38.94832,13.045176 4.02479,-3.901927 2.07538,-0.48168 2.07537,-0.481679 1.86373,1.983826 c 1.02503,1.091109 2.13191,1.983836 2.45973,1.983836 0.32781,0 2.61286,-1.843287 5.0779,-4.096188 l 4.48188,-4.096179 -0.93244,-1.123524 -0.93244,-1.123524 -1.49354,1.351642 -1.49355,1.351633 -1.843,-1.731417 c -2.1587,-2.027991 -3.94966,-2.206279 -5.33957,-0.531527 -1.12497,1.355498 -3.19971,1.614845 -3.19971,0.399963 0,-0.439964 -0.50951,-0.799926 -1.13225,-0.799926 l -1.13224,0 -4.54953,5.181989 -4.54953,5.181989 -2.44039,1.217424 c -1.34221,0.669584 -2.92504,1.217425 -3.51738,1.217425 l -1.07699,0 0,1.19989 0,1.19989 3.77449,0 3.77451,0 4.02478,-3.901936 z m -16.97328,2.788395 c 1.9918,-1.511985 0.7199,-2.555784 -1.05518,-3.582264 -2.13534,-0.649114 -2.08469,-0.905682 -4.08525,0.100279 -0.84953,0.911848 -1.45897,2.473864 -1.45897,2.89556 0,1.769352 4.51281,2.170365 6.5994,0.586425 z m -47.7912,0.306455 c 0.84183,-1.362111 -0.32713,-3.68078 -2.42048,-4.801113 -1.95252,-1.333748 -2.19641,-0.900274 -3.92156,0.471867 0,0 -0.68852,1.679184 0.14245,3.336492 l 2.07445,1.79984 1.81316,0 c 0.99725,0 2.03764,-0.363188 2.31198,-0.807086 z m -11.603361,-0.392804 0,-1.19989 -1.723149,0 -1.723149,0 -6.248507,-6.549365 -6.248515,-6.549356 -2.10783,1.12808 -2.107839,1.128072 -1.007677,-1.378093 -1.007695,-1.378092 -1.460107,0 -1.460107,0 -1.843014,1.731417 -1.843006,1.731417 -1.493546,-1.351633 -1.493538,-1.351642 -0.888682,1.070801 -0.888682,1.070801 4.696649,4.647638 4.69664,4.647638 2.288328,-2.561079 2.288328,-2.561088 2.076004,0.52104 2.075995,0.521049 3.881825,3.941083 3.881833,3.941092 3.829716,0 3.829725,0 0,-1.19989 z m 41.296181,3.417158 c 0,-1.842929 -1.51676,-3.359692 -3.35969,-3.359692 l -1.43987,0 0,-1.19989 0,-1.19989 1.94176,0 1.94175,0 1.65792,2.107694 c 0.91185,1.159232 1.65791,2.779077 1.65791,3.59967 l 0,1.491976 -1.19989,0 -1.19989,0 0,-1.439868 z m -17.29838,0.342497 c 0,-1.842929 1.51676,-3.359692 3.35969,-3.359692 l 1.43987,0 0,-1.19989 0,-1.19989 -1.94176,0 -1.94175,0 -1.65792,2.107694 c -0.91185,1.159232 -1.65791,2.779077 -1.65791,3.59967 l 0,1.491976 1.19989,0 1.19989,0 0,-1.439868 z m 58.55968,0.639941 c 0.6814,0 1.70981,-0.567389 2.28535,-1.260863 l 1.04642,-1.260855 -1.14846,-0.726709 c -0.63165,-0.39969 -1.75389,-0.732221 -2.49386,-0.738962 l -1.34539,-0.01229 -1.70491,2.394328 -1.70491,2.394319 0.52996,0.857496 0.52996,0.857487 1.38345,-1.251998 c 0.76089,-0.688594 1.94097,-1.251998 2.62239,-1.251998 z m -94.916174,1.534853 0.534556,-0.864936 -2.267526,-2.366785 -2.267516,-2.366776 -1.611339,0.231983 -1.611346,0.231991 -0.261301,1.371292 -0.261301,1.371292 2.020158,0.507021 c 1.111075,0.27887 2.438953,1.011662 2.950838,1.628438 1.114949,1.343425 2.049613,1.429817 2.774777,0.25648 z m 73.153124,8.464231 0.99581,-1.19989 5.16825,0 5.16823,0 -0.32882,-0.999913 -0.3288,-0.999904 -3.52436,-0.255106 -3.52435,-0.255106 -0.54272,-0.878128 -0.54272,-0.878119 -3.73366,0 -3.73368,0 -1.8642,2.333116 -1.86421,2.333123 0.82589,0.999904 0.82589,0.999913 3.00381,0 3.00382,0 0.99582,-1.19989 z M 107.81469,61.2415 c 1.80569,-0.692903 1.56645,-2.152379 -0.70219,-4.283657 l -1.9675,-1.848372 -3.31738,0 -3.317372,0 -0.52773,0.853886 -0.527738,0.853887 -3.524353,0.255106 -3.524362,0.255106 -0.328802,0.999904 -0.328819,0.999913 4.923359,0 4.923359,0 1.199888,1.19989 1.19989,1.19989 2.27722,0 c 1.25247,0 2.84661,-0.218502 3.54253,-0.485553 z m 29.68937,-2.973576 c -1.63203,1.782384 -1.6326,1.991953 -3.32942,3.601874 l -1.43987,0.03027 c -0.0363,0.708734 -0.0303,1.41798 -0.0303,2.127326 l 1.94176,0 c 2.28133,-2.191321 5.25758,-5.707364 5.25758,-5.707364 l 0,-1.491976 -2.39978,0 z m -5.22618,24.257219 0,-0.799927 -3.19971,0 -3.1997,0 0,0.799927 0,0.799927 3.1997,0 3.19971,0 0,-0.799927 z m 55.19494,0.485545 0,-5.913869 -1.26532,-0.485545 c -0.69591,-0.267052 -4.29558,-0.485545 -7.99926,-0.485545 l -6.73395,0 0,3.199707 0,3.199707 1.59985,0 1.59985,0 0,-1.624956 0,-1.624965 1.20592,-0.462746 c 1.63,-0.625496 6.17912,0.287411 7.97464,1.600331 l 1.45924,1.067022 0.0368,3.379666 c 0,0 0.49189,0.554962 0.48547,0.894007 -0.005,0.274001 -0.41941,0.707128 -0.41941,0.707128 l 0.0564,2.463525 0.99992,1.97e-4 0.9999,2.04e-4 z m -48.79553,4.713978 0,-1.19989 -3.59967,0 -3.59967,0 0,1.19989 0,1.19989 3.59967,0 3.59967,0 0,-1.19989 z m -12.79882,0 0,-1.19989 -3.19971,0 -3.19971,0 0,1.19989 0,1.19989 3.19971,0 3.19971,0 0,-1.19989 z m -55.030593,-4.835069 0,-5.913869 1.26532,-0.485545 c 0.69591,-0.267052 4.29558,-0.485545 7.99926,-0.485545 l 6.73395,0 0,3.199707 0,3.199707 -1.59985,0 -1.59985,0 0,-1.624956 0,-1.624965 -1.20592,-0.462746 c -1.63,-0.625496 -6.17912,0.287411 -7.97464,1.600331 l -1.45924,1.067022 -0.0368,3.379666 c 0,0 -0.49189,0.554962 -0.48547,0.894007 0.005,0.274001 0.41941,0.707128 0.41941,0.707128 l -0.0564,2.463525 -0.99992,1.97e-4 -0.9999,2.04e-4 z m 79.568563,6.862852 -4.38593,-0.02794 -3.71546,0 c 0.0286,-0.887397 -0.006,-1.633681 -0.0356,-2.520383 2.2937,-0.0301 4.74546,-0.144866 7.03269,-0.0028 l 0.0236,-1.238837 2.35775,-0.02213 0.0155,1.300522 19.56973,0.02794 c 0,0 0.82458,-1.183033 1.55092,0.05587 -0.13909,1.524522 -6e-4,3.21666 -0.002,4.82499 0,0 -5.47795,-0.02543 -10.8727,-0.02543 L 150.44171,91.98457 Z m -43.72103,0 4.38593,-0.02794 3.71546,0 c -0.0286,-0.887397 0.006,-1.633681 0.0356,-2.520383 -2.2937,-0.0301 -4.74546,-0.144866 -7.03269,-0.0028 l -0.0236,-1.238837 -2.35775,-0.02213 -0.0155,1.300522 -19.569732,0.02794 c 0,0 -0.82458,-1.183033 -1.55092,0.05587 0.139096,1.524522 6.02e-4,3.21666 0.0025,4.82499 0,0 5.477951,-0.02543 10.8727,-0.02543 L 106.67014,91.98457 Z m 32.78181,7.171404 0,-1.599854 -1.19989,0 -1.19989,0 0,1.599854 0,1.599853 1.19989,0 1.19989,0 0,-1.599853 z m -19.19824,0 0,-1.599854 -0.79993,0 -0.79992,0 0,1.599854 0,1.599853 0.79992,0 0.79993,0 0,-1.599853 z m 58.39465,6.799377 c 0.5477,-0.65994 1.61588,-1.19989 2.37374,-1.19989 1.76629,0 3.66647,-2.19228 4.33343,-4.999546 0,0 1.29701,-1.836832 0.52265,-2.199795 -0.89832,-0.421063 -2.21505,-0.01084 -2.21505,-0.01084 -1.21827,-0.006 -3.04637,0.03959 -4.03628,-0.225692 -0.6289,-0.538472 -1.60981,-1.002435 -1.77842,0.280309 -0.12844,0.566621 -0.59573,1.688498 -1.32387,2.493075 l -1.32387,1.46282 -2.67576,0 -2.67577,0 0,0.799929 0,0.79993 1.46042,0 1.46041,0 1.87873,1.99982 c 2.18705,2.328 2.65395,2.42137 3.99964,0.79992 z m -95.518519,-0.79993 1.999817,-1.99981 1.563488,0 1.563496,0 0,-0.79993 0,-0.799927 -2.856886,0 -2.856878,0 -0.987523,-0.999913 c -0.543148,-0.549948 -1.241742,-1.670682 -1.552446,-2.490532 -0.09552,-1.879023 -1.125744,-1.721858 -2.355019,-1.010834 -0.984562,0.263886 -3.015796,0.484717 -4.513856,0.490724 0,0 -2.567164,-0.305454 -2.680923,0.278495 -0.144791,0.743243 1.281056,1.19528 1.281056,1.19528 0.639076,0.265623 1.313721,1.907908 1.323868,2.639758 0.0218,1.572339 1.605459,3.096729 3.261747,3.096729 0.738057,0 1.790035,0.53995 2.337739,1.19989 1.373724,1.65524 2.157303,1.51508 4.47232,-0.79993 z m 47.522919,3.19971 0,-1.19989 -1.99982,0 -1.99982,0 0,1.19989 0,1.19989 1.99982,0 1.99982,0 0,-1.19989 z m 23.9978,-0.0479 4.0152,-4.03141 1.1468,-0.007 0.0847,-1.0703 3.55248,-0.0428 0,-0.71435 c 0,-1.006303 -2.07995,-1.685434 -5.16184,-1.685434 l -2.6312,0 c -1.21253,0.08562 -0.96108,1.295852 -0.96108,1.295852 l -3.18732,4.549562 c -0.70481,-0.56184 -2.42428,-0.41142 -2.41444,1.08846 -3.83013,-0.009 -12.11719,-0.13344 -12.11719,-0.13344 l -0.0578,1.99982 6.48587,0 6.48588,0 c 0.32424,1.23255 0.0854,1.53493 0.49316,3.99963 2.22163,0.31291 2.57655,0.42931 4.00993,-1e-5 0.63401,-1.87378 0.25685,-3.3571 0.25685,-5.24858 z m -51.68382,0 -4.015196,-4.03141 -1.1468,-0.007 -0.0847,-1.0703 -3.55248,-0.0428 0,-0.71435 c 0,-1.006303 2.07995,-1.685434 5.16184,-1.685434 l 2.631196,0 c 1.21253,0.08562 0.96108,1.295852 0.96108,1.295852 l 3.18732,4.549562 c 0.70481,-0.56184 2.42428,-0.41142 2.41444,1.08846 3.83013,-0.009 12.11719,-0.13344 12.11719,-0.13344 l 0.0578,1.99982 -6.48587,0 -6.48588,0 c -0.32424,1.23255 -0.0854,1.53493 -0.49316,3.99963 -2.22163,0.31291 -2.57655,0.42931 -4.00993,-1e-5 -0.63401,-1.87378 -0.25685,-3.3571 -0.25685,-5.24858 z m 78.98737,9.63689 c 0.43837,-0.47284 3.4724,-2.96774 3.4724,-2.96774 1.10859,0.0804 0.37461,-1.54584 1.17422,-1.27335 l 1.04704,1.33519 c -1.21285,1.50389 -2.72001,2.97674 -4.11975,4.09306 z M 76.228221,115.6833 c -0.464026,-0.50052 -3.675633,-3.14144 -3.675633,-3.14144 -1.173476,0.0851 -0.396546,-1.63632 -1.242947,-1.34788 l -1.108325,1.41334 c 1.283848,1.59191 2.879213,3.15096 4.360876,4.33262 z m 56.449619,16.46183 -7.19934,0 0.0353,1.31671 7.10726,0.0537 z m 22.70441,3.00049 c -0.4087,-0.76366 -1.40416,-1.74226 -2.21215,-2.17469 l -1.46906,-0.78621 -2.93163,0.47574 c -3.25713,0.52855 -3.92166,1.13245 -3.22989,2.93517 l 0.46799,1.21959 5.05891,-0.14056 5.05892,-0.14058 -0.74309,-1.38846 z m -43.08063,0.47306 0.90128,-0.90155 -2.4949,-1.77653 -2.49489,-1.77652 -1.82919,0.45909 -1.8292,0.4591 -0.93707,2.05664 c -0.51538,1.13115 -0.93706,2.15131 -0.93706,2.26703 0,0.11572 1.96194,0.18877 4.35986,0.16234 l 4.35987,-0.048 0.9013,-0.90155 z m 20.52301,3.87777 0,-1.19989 1.10284,0 1.10285,0 0.99402,-2.39978 0.99402,-2.39978 1.12795,0 1.12795,0 0.48087,1.25312 0.48086,1.25311 -2.70578,2.31405 c -1.48816,1.27272 -3.15572,2.32867 -3.70567,2.34655 l -0.99991,0.0325 0,-1.19989 z m -7.74609,0.22349 0,-1.19989 -1.10284,0 -1.10285,0 -0.99402,-2.39978 -0.99402,-2.39978 -1.12795,0 -1.12795,0 -0.48087,1.25312 -0.48086,1.25311 2.70578,2.31405 c 1.48816,1.27272 3.15572,2.32867 3.70567,2.34655 l 0.99991,0.0325 0,-1.19989 z"
         class="terrain"
         inkscape:connector-curvature="0" />
    </g>
  </g>
</svg>
