<?xml version="1.0" encoding="UTF-8" standalone="no"?>
<!-- Created with Inkscape (http://www.inkscape.org/) -->

<svg
   xmlns:dc="http://purl.org/dc/elements/1.1/"
   xmlns:cc="http://creativecommons.org/ns#"
   xmlns:rdf="http://www.w3.org/1999/02/22-rdf-syntax-ns#"
   xmlns:svg="http://www.w3.org/2000/svg"
   xmlns="http://www.w3.org/2000/svg"
   xmlns:sodipodi="http://sodipodi.sourceforge.net/DTD/sodipodi-0.dtd"
   xmlns:inkscape="http://www.inkscape.org/namespaces/inkscape"
   width="11.99978"
   height="17"
   viewBox="0 0 11.99978 16.999999"
   id="svg7591"
   version="1.1"
   inkscape:version="0.91 r13725"
   sodipodi:docname="tower.svg">
  <defs
     id="defs7593" />
  <sodipodi:namedview
     id="base"
     pagecolor="#ffffff"
     bordercolor="#666666"
     borderopacity="1.0"
     inkscape:pageopacity="0.0"
     inkscape:pageshadow="2"
     inkscape:zoom="21.830034"
     inkscape:cx="-7.6729198"
     inkscape:cy="5.0431784"
     inkscape:document-units="px"
     inkscape:current-layer="layer1"
     showgrid="false"
     fit-margin-top="0"
     fit-margin-left="0"
     fit-margin-right="0"
     fit-margin-bottom="0"
     inkscape:window-width="1920"
     inkscape:window-height="1027"
     inkscape:window-x="-8"
     inkscape:window-y="-8"
     inkscape:window-maximized="1"
     units="px" />
  <metadata
     id="metadata7596">
    <rdf:RDF>
      <cc:Work
         rdf:about="">
        <dc:format>image/svg+xml</dc:format>
        <dc:type
           rdf:resource="http://purl.org/dc/dcmitype/StillImage" />
        <dc:title />
      </cc:Work>
    </rdf:RDF>
  </metadata>
  <g
     inkscape:label="Layer 1"
     inkscape:groupmode="layer"
     id="layer1">
    <g
       id="g7780">
      <path
         id="path7453"
         d="M 6,17 0,17 0.0354,15.75 C 0.0549,15.0625 0.71394,13.375 1.49996,12 L 2.92909,9.5 2.96449,7.25 2.99989,5 l -1,0 -1,0 0,-2.5 0,-2.5 5,0 5,0 0,2.5 0,2.5 -1,0 -1,0 0.0354,2.25 0.0354,2.25 1.42913,2.5 c 0.78602,1.375 1.44507,3.0625 1.46456,3.75 l 0.0354,1.25 -6,0 z"
         style="fill:#000000"
         inkscape:connector-curvature="0"
         class="outline" />
      <path
         id="path7451"
         d="M 6,16 11.05136,16 9.52568,13.0497 8,10.0993 8,7.5497 8,5 6,5 4,5 4,7.5497 4,10.0993 2.47432,13.0497 0.94864,16 6,16 Z"
         style="fill:#ff0000"
         inkscape:connector-curvature="0"
         class="bg"="" />
      <path
         id="path7204"
         d="M 6,4 10,4 9.9847,2.25 9.9694,0.5 8.98472,2 8.00003,3.5 l -1,-1.5 -1,-1.5 -1,1.5 -1,1.5 L 3.01534,2 2.03066,0.5 2.01536,2.25 2.00006,4 l 4,0 z"
         style="fill:#ff0000"
         inkscape:connector-curvature="0"
         class="bg" />
    </g>
  </g>
</svg>
