<?xml version="1.0" encoding="UTF-8" standalone="no"?>
<!-- Created with Inkscape (http://www.inkscape.org/) -->

<svg
   xmlns:dc="http://purl.org/dc/elements/1.1/"
   xmlns:cc="http://creativecommons.org/ns#"
   xmlns:rdf="http://www.w3.org/1999/02/22-rdf-syntax-ns#"
   xmlns:svg="http://www.w3.org/2000/svg"
   xmlns="http://www.w3.org/2000/svg"
   xmlns:sodipodi="http://sodipodi.sourceforge.net/DTD/sodipodi-0.dtd"
   xmlns:inkscape="http://www.inkscape.org/namespaces/inkscape"
   width="21.50893"
   height="27.99999"
   viewBox="0 0 21.508931 27.999989"
   id="svg7591"
   version="1.1"
   inkscape:version="0.91 r13725"
   sodipodi:docname="town.svg">
  <defs
     id="defs7593" />
  <sodipodi:namedview
     id="base"
     pagecolor="#ffffff"
     bordercolor="#666666"
     borderopacity="1.0"
     inkscape:pageopacity="0.0"
     inkscape:pageshadow="2"
     inkscape:zoom="21.830034"
     inkscape:cx="-2.9738224"
     inkscape:cy="13.436396"
     inkscape:document-units="px"
     inkscape:current-layer="layer1"
     showgrid="false"
     fit-margin-top="0"
     fit-margin-left="0"
     fit-margin-right="0"
     fit-margin-bottom="0"
     inkscape:window-width="1920"
     inkscape:window-height="1027"
     inkscape:window-x="-8"
     inkscape:window-y="-8"
     inkscape:window-maximized="1"
     units="px" />
  <metadata
     id="metadata7596">
    <rdf:RDF>
      <cc:Work
         rdf:about="">
        <dc:format>image/svg+xml</dc:format>
        <dc:type
           rdf:resource="http://purl.org/dc/dcmitype/StillImage" />
        <dc:title />
      </cc:Work>
    </rdf:RDF>
  </metadata>
  <g
     inkscape:label="Layer 1"
     inkscape:groupmode="layer"
     id="layer1">
    <g
       id="g7790">
      <path
         id="path7440"
         d="M 0.46056,26.75 0,25.5 2.91329,22.4152 5.82659,19.3304 6.43167,15.6018 7.03674,11.8731 4.8956,8.9771 2.75446,6.081 l 0,-2.4335 0,-2.4335 L 4.29285,0.6237 5.83123,0.0333 6.65132,2.2503 7.47142,4.4672 8.18033,2.2336 8.88923,0 l 1.86523,0 1.86523,0 0.7089,2.2336 0.70891,2.2336 0.8201,-2.2169 0.82009,-2.217 1.53838,0.5904 1.53839,0.5903 0,2.4335 0,2.4335 -2.14114,2.8961 -2.14114,2.896 0.60507,3.7287 0.60508,3.7286 2.9133,3.0848 2.9133,3.0848 -0.46057,1.25 -0.46057,1.25 -9.83333,0 -9.83333,0 -0.46057,-1.25 z"
         style="fill:#000000"
         inkscape:connector-curvature="0"
         class="outline" />
      <path
         id="path7438"
         d="m 20.0111,25.5 -0.24336,-1 -8.17305,-0.2931 C 7.09951,24.0457 2.793,24.1549 2.02467,24.4498 L 0.6277,24.9859 1.27262,26.0294 1.91754,27.0729 11.086,26.7865 20.25446,26.5 20.0111,25.5 Z"
         style="fill:#ff0000"
         inkscape:connector-curvature="0"
         class="bg" />
      <path
         id="path7436"
         d="m 17.25446,22 -0.61803,-1 -5.88197,0 -5.88197,0 -0.61803,1 -0.61803,1 7.11803,0 7.11803,0 -0.61803,-1 z"
         style="fill:#ff0000"
         inkscape:connector-curvature="0"
         class="bg" />
      <path
         id="path7434"
         d="m 14.25446,14.5 0,-5.5 -3.5,0 -3.5,0 0,5.5 0,5.5 3.5,0 3.5,0 0,-5.5 z"
         style="fill:#ff0000"
         inkscape:connector-curvature="0"
         class="bg" />
      <path
         id="path6428"
         d="M 17.58912,5.1347 17.92379,2.7694 16.83912,1.6847 15.75446,0.6 l 0,2.2 0,2.2 L 14.37109,5 12.98772,5 12.46471,3 11.9417,1 10.75446,1 9.56722,1 9.04421,3 8.5212,5 7.13783,5 5.75446,5 l 0,-2.059 0,-2.059 -1,0.618 -1,0.6181 0,2.2743 c 0,1.2509 0.31903,2.5933 0.70896,2.9833 L 5.17238,8.0846 11.21342,7.7923 17.25446,7.5 17.58912,5.1347 Z"
         style="fill:#ff0000"
         inkscape:connector-curvature="0"
         class="bg" />
    </g>
  </g>
</svg>
