<?xml version="1.0" encoding="UTF-8" standalone="no"?>
<!-- Created with Inkscape (http://www.inkscape.org/) -->

<svg
   xmlns:dc="http://purl.org/dc/elements/1.1/"
   xmlns:cc="http://creativecommons.org/ns#"
   xmlns:rdf="http://www.w3.org/1999/02/22-rdf-syntax-ns#"
   xmlns:svg="http://www.w3.org/2000/svg"
   xmlns="http://www.w3.org/2000/svg"
   xmlns:sodipodi="http://sodipodi.sourceforge.net/DTD/sodipodi-0.dtd"
   xmlns:inkscape="http://www.inkscape.org/namespaces/inkscape"
   width="72.248886mm"
   height="50.532475mm"
   viewBox="0 0 256 179.05207"
   id="svg4778"
   version="1.1"
   inkscape:version="0.91 r13725"
   sodipodi:docname="volskya.svg">
  <defs
     id="defs4780" />
  <sodipodi:namedview
     id="base"
     pagecolor="#ffffff"
     bordercolor="#666666"
     borderopacity="1.0"
     inkscape:pageopacity="0.0"
     inkscape:pageshadow="2"
     inkscape:zoom="1.3129474"
     inkscape:cx="368.29002"
     inkscape:cy="-54.304933"
     inkscape:document-units="px"
     inkscape:current-layer="layer1"
     showgrid="false"
     fit-margin-top="0"
     fit-margin-left="0"
     fit-margin-right="0"
     fit-margin-bottom="0"
     inkscape:window-width="1920"
     inkscape:window-height="1027"
     inkscape:window-x="1912"
     inkscape:window-y="-8"
     inkscape:window-maximized="1" />
  <metadata
     id="metadata4783">
    <rdf:RDF>
      <cc:Work
         rdf:about="">
        <dc:format>image/svg+xml</dc:format>
        <dc:type
           rdf:resource="http://purl.org/dc/dcmitype/StillImage" />
        <dc:title></dc:title>
      </cc:Work>
    </rdf:RDF>
  </metadata>
  <g
     inkscape:label="Layer 1"
     inkscape:groupmode="layer"
     id="layer1">
    <g
       id="g5876">
      <path
         id="path5773"
         d="m 131.13972,-3.2e-5 0,4.094425 0,0.210045 -2.77727,-0.121068 -3.13463,-0.137113 -0.0423,-0.370496 -0.42155,-3.667041 -7.45078,0.264015 -7.49453,0.264016 -0.22609,11.968206 -0.17941,9.435995 -2.59202,2.543882 -2.58181,2.533671 -15.051789,-0.177955 -16.560025,-0.195459 -1.865613,1.687656 c -0.542062,0.490564 -0.96859,1.04927 -1.305492,1.643896 -0.336901,0.594627 -0.630136,1.169434 -0.630136,2.074198 l 0,0.358827 -3.99815,3.963147 -5.103813,5.058591 0,1.802889 c 0,-0.474068 -0.0015,-0.07406 -0.198373,0.268392 -0.197035,0.342443 -0.509747,0.769915 -0.818307,1.098361 l -0.968538,1.032723 -2.061073,0 -3.642242,0 -7.170711,7.201345 -6.076729,6.101528 -3.044197,0 -4.558278,0 -2.160259,2.028974 -2.208393,2.074202 0,3.279037 0,1.71391 -0.466767,0.481353 0,-1.047307 0,-3.686005 -1.258815,-2.433023 c -0.859218,-1.661618 -2.482493,-3.347611 -4.136694,-4.609324 l -3.073368,-2.34551 -4.645799,0.06415 -4.583066,0.06124 -2.6168173,1.86415 C 4.5008858,57.475505 2.8872822,59.258945 1.8568615,60.926185 L 1.1940678e-6,63.929538 0.35882954,68.257353 0.71328147,72.526811 2.6357805,74.986092 c 1.1273365,1.442505 2.9742341,3.012972 4.6487116,4.036082 l 3.0193949,1.843731 2.844368,0.006 c 0.08291,1.27e-4 0.162271,-0.01942 0.245049,-0.02039 l -1.279233,1.123154 0,5.604129 0,5.531193 10.697725,10.707939 9.606655,9.6154 0,2.57452 0,4.10755 4.771236,4.87626 4.787286,4.89377 5.974622,0 4.069629,0 0.186707,0.34861 c 0.405662,0.75799 0.935319,1.36161 1.681819,2.22589 0.746499,0.86429 1.655239,1.84486 2.574517,2.76414 l 3.76331,3.76332 4.021495,0 2.482613,0 3.152143,3.11275 3.143383,3.104 0,0.3209 0,1.97356 3.777903,3.15797 3.629113,3.03399 9.780232,0 10.143441,0 0.86498,-1.4003 1.01814,0 0.19254,0 0,3.73414 0,6.36991 4.39198,4.427 3.30968,3.33592 0,0.95104 0,3.58682 7.38222,0 4.6385,0 0.31214,0.37487 3.30384,3.98211 0,-2.47824 c 0.51263,-0.15317 0.94024,-0.40429 1.20631,-0.65785 0.35522,-0.33853 0.60811,-0.67694 0.89707,-1.07211 l -0.17942,0.24505 0.41134,0.26986 3.09963,2.03189 2.29154,-2.07419 0.68702,-0.62139 4.65162,0 7.23927,0 0,-3.44533 0,-0.83143 3.33448,-3.49783 4.36719,-4.58162 0,-6.33199 0,-3.71663 0.19108,0 1.01813,0 0.86644,1.4003 10.44976,0 10.12593,0 3.33593,-3.01357 3.41907,-3.08796 0,-1.95167 0,-0.35591 3.11275,-3.15213 3.10401,-3.14193 2.51324,0 4.06818,0 3.76331,-3.76332 c 0.91928,-0.91928 1.82802,-1.89985 2.57451,-2.76414 0.7465,-0.86428 1.27616,-1.46936 1.68182,-2.22735 l 0.18671,-0.34715 4.06525,0 5.96004,0 4.79166,-4.82229 4.78728,-4.815 0,-4.11048 0,-2.56867 9.60665,-9.63437 10.69773,-10.726899 0,-5.563285 0,-5.595375 -1.25882,-1.187337 c 0.0536,5.08e-4 0.10531,0.01314 0.159,0.01314 l 2.76705,0 3.41324,-2.001267 3.37677,-1.977928 1.70516,-2.759761 1.74017,-2.815189 0,-3.808531 0,-3.731226 -1.25882,-2.433023 c -0.85876,-1.660684 -2.48017,-3.346237 -4.13235,-4.606411 l -3.05878,-2.333837 -4.55244,0.006 -4.53639,0.006 -2.81519,2.0917 c -1.55832,1.157412 -3.22296,2.931889 -4.2155,4.537853 l -1.74016,2.81519 0.33257,4.272385 c 0.0175,0.224661 0.0608,0.436775 0.0831,0.663683 l -0.71182,-0.678276 0,-1.639519 0,-3.17693 -2.02898,-2.160259 -2.07565,-2.208393 -4.72603,0 -3.14193,0 -6.07526,-6.101527 -7.17218,-7.201345 -3.54451,0 -2.03044,0 -1.08086,-1.016678 -1.03126,-0.968542 0,-0.317985 0,-1.903536 -4.7552,-4.705599 -3.64661,-3.608695 0,-0.345699 0,-1.934167 -2.2507,-2.112123 -2.20839,-2.075656 -16.59212,0.195459 -15.06346,0.177955 -2.5818,-2.533672 -2.59202,-2.543882 -0.17796,-9.435994 L 146.39134,0.537233 138.84867,0.271758 131.13971,4.5e-4 Z m 1.86707,1.934167 5.77625,0.202753 5.77624,0.20421 0.19254,10.198867 0.19255,10.198867 3.13609,3.077747 3.13609,3.077748 15.83946,-0.186707 15.84092,-0.186707 1.65994,1.560753 1.6614,1.559295 0,1.126076 0,1.124618 4.2009,4.157146 4.20091,4.157147 0,1.124618 0,1.124617 1.62056,1.522829 1.6191,1.522828 2.76997,0 2.76997,0 6.62372,6.651438 6.62372,6.651435 3.91647,0 3.91794,0 1.52282,1.620557 1.52283,1.620556 0,2.4374 0,2.438863 2.90271,2.767049 2.90417,2.76852 -0.582,-1.400302 c -0.32008,-0.770166 -0.71087,-3.048999 -0.8679,-5.064426 l -0.28443,-3.665587 1.41926,-2.295913 c 0.78086,-1.263461 2.46387,-3.073682 3.73997,-4.021488 l 2.32071,-1.722663 3.91939,-0.006 3.92085,-0.0045 2.55701,1.94875 c 1.40607,1.072467 3.02856,2.864436 3.60577,3.980652 l 1.05023,2.028982 0,3.27758 0,3.277581 -1.46157,2.364472 -1.46156,2.364464 -2.97565,1.744545 -2.97709,1.744545 -2.25945,0 c -1.243,0 -2.86968,-0.326319 -3.61453,-0.724953 l -1.35363,-0.724946 0,0.66514 c 0,0.36599 0.9452,1.557076 2.10046,2.647452 l 2.10045,1.983761 0,4.790198 0,4.791662 -10.15219,10.181366 -10.15219,10.1799 0,3.3403 0,3.34031 -4.24466,4.26947 -4.24321,4.27092 -5.18404,0 -5.18403,0 -0.71328,1.3332 c -0.39277,0.7339 -2.16194,2.78184 -3.93105,4.55098 l -3.21633,3.21778 -3.29508,0 -3.29363,0 -3.65246,3.69767 -3.65099,3.69768 0,1.12169 0,1.12171 -2.80352,2.53221 -2.80207,2.53222 -9.40827,0 -9.40974,0 -0.43176,-0.70016 -0.43322,-0.70015 -2.05961,0 -2.05815,0 0,5.58371 0,5.58515 -3.85083,4.04046 -3.85084,4.039 0,1.57825 0,1.57827 -5.3722,0 -5.37073,0 -1.2209,1.10419 -1.22088,1.10566 -1.89478,-1.24131 -1.89479,-1.24131 -0.86644,1.18588 c -1.06327,1.45411 -1.35639,1.47128 -2.46366,0.13711 l -0.87227,-1.05022 -5.51514,0 -5.51515,0 0,-1.71975 0,-1.71975 -3.85083,-3.88146 -3.85084,-3.88146 0,-5.60121 0,-5.60121 -2.0596,0 -2.05961,0 -0.431767,0.70015 -0.43322,0.70016 -9.101963,0 -9.10342,0 -3.10838,-2.59932 -3.108379,-2.59785 0,-1.10128 0,-1.10128 -3.697671,-3.651 -3.699128,-3.65245 -3.24841,0 -3.248409,0 -3.216319,-3.21631 c -1.76913,-1.76914 -3.53829,-3.81709 -3.931062,-4.55099 l -0.713273,-1.33466 -5.188414,0 -5.188414,0 -4.23883,-4.33219 -4.238831,-4.33219 0,-3.34613 0,-3.34761 -10.15219,-10.16235 -10.15219,-10.160945 0,-4.758107 0,-4.758107 2.100453,-1.843739 c 1.155253,-1.013707 2.100453,-2.198026 2.100453,-2.631395 l 0,-0.787672 -1.355081,0.724946 c -0.744856,0.398626 -2.39896,0.723997 -3.675797,0.722033 L 10.83043,78.999993 8.2573772,77.427569 C 6.8425419,76.563101 4.9743671,74.947429 4.1060678,73.836381 L 2.5278041,71.816152 2.2200289,68.102431 1.9122612,64.388718 3.4438407,61.907554 C 4.2869196,60.543436 5.941524,58.74099 7.1196299,57.902108 l 2.1412972,-1.52429 4.0010699,-0.05542 3.999614,-0.054 2.561388,1.953134 c 1.408524,1.074334 3.032927,2.867348 3.61015,3.983565 l 1.050227,2.028981 0,3.232361 0,3.230903 -0.724946,1.353626 -0.724946,1.355089 0.587836,0 c 0.323085,0 1.593148,-1.039189 2.823935,-2.309042 l 2.239027,-2.309042 0,-2.469491 0,-2.470947 1.620557,-1.52137 1.6191,-1.522827 3.820203,0 3.820196,0 6.62372,-6.651435 6.62372,-6.651438 2.866243,0 2.867707,0 1.522826,-1.620558 c 0.837291,-0.891256 1.522827,-2.082056 1.522827,-2.645987 l 0,-1.025429 4.550982,-4.51014 4.550982,-4.51014 0,-1.137745 c 0,-0.625338 0.5944,-1.675787 1.321534,-2.333837 l 1.321534,-1.196091 15.829254,0.186707 15.827793,0.186707 3.13608,-3.077748 3.1361,-3.077747 0.19254,-10.198867 0.194,-10.198867 5.72665,-0.202752 5.72666,-0.202752 0.22463,1.95313 0.22463,1.953129 4.72602,0.207128 4.72602,0.207129 0,-2.161717 0,-2.160258 z"
         style="color:#000000;font-style:normal;font-variant:normal;font-weight:normal;font-stretch:normal;font-size:medium;line-height:normal;font-family:sans-serif;text-indent:0;text-align:start;text-decoration:none;text-decoration-line:none;text-decoration-style:solid;text-decoration-color:#000000;letter-spacing:normal;word-spacing:normal;text-transform:none;direction:ltr;block-progression:tb;writing-mode:lr-tb;baseline-shift:baseline;text-anchor:start;white-space:normal;clip-rule:nonzero;display:inline;overflow:visible;visibility:visible;opacity:1;isolation:auto;mix-blend-mode:normal;color-interpolation:sRGB;color-interpolation-filters:linearRGB;solid-color:#000000;solid-opacity:1;fill:#000000;fill-opacity:1;fill-rule:nonzero;stroke:none;stroke-width:5;stroke-linecap:butt;stroke-linejoin:miter;stroke-miterlimit:4;stroke-dasharray:none;stroke-dashoffset:0;stroke-opacity:1;color-rendering:auto;image-rendering:auto;shape-rendering:auto;text-rendering:auto;enable-background:accumulate"
         inkscape:connector-curvature="0"
         class="border" />
      <path
         id="path5767"
         d="m 123.90428,173.87805 -0.87161,-1.05023 -5.51547,0 -5.51549,0 0,-1.71964 0,-1.71966 -3.85083,-3.88172 -3.85083,-3.88173 0,-5.60104 0,-5.60104 -2.05913,0 -2.05914,0 -0.432712,0.70015 -0.432712,0.70015 -9.102337,0 -9.102337,0 -3.108984,-2.59879 -3.108992,-2.59879 0,-1.10092 0,-1.10092 -3.697813,-3.65187 -3.697806,-3.65188 -3.248432,0 -3.248425,0 -3.216594,-3.21659 c -1.769131,-1.76914 -3.53797,-3.81709 -3.930742,-4.55099 l -0.714139,-1.33438 -5.188504,0 -5.188496,0 -4.238905,-4.33196 -4.238912,-4.33196 0,-3.34714 0,-3.34714 -10.15219,-10.1617 -10.152191,-10.161708 0,-4.758189 0,-4.758204 2.100454,-1.843119 c 1.155253,-1.013714 2.100453,-2.197698 2.100453,-2.631067 l 0,-0.787963 -1.354268,0.724789 c -0.744856,0.398627 -2.39896,0.723161 -3.675797,0.721197 l -2.321521,-0.0037 -2.5724186,-1.571744 C 6.842624,76.56405 4.9746061,74.94772 4.1063068,73.836672 L 2.5275726,71.816585 2.2195808,68.102648 1.9115965,64.38871 3.4444531,61.908488 C 4.287532,60.54437 5.9412178,58.741908 7.1193237,57.903027 l 2.1419992,-1.525239 4.0003161,-0.05437 4.000308,-0.05437 2.560947,1.953328 c 1.408525,1.074334 3.033219,2.866601 3.610442,3.982817 l 1.049487,2.029497 0,3.231472 0,3.231479 -0.724781,1.354275 -0.724789,1.354275 0.58744,0 c 0.323092,0 1.594447,-1.038972 2.825242,-2.308826 l 2.237794,-2.308818 0,-2.470185 0,-2.470193 1.620467,-1.522348 1.620467,-1.522349 3.819531,0 3.819539,0 6.62378,-6.651435 6.623772,-6.651435 2.867431,0 2.867423,0 1.522348,-1.620465 c 0.837291,-0.891256 1.522349,-2.081862 1.522349,-2.645793 l 0,-1.025327 4.550982,-4.510529 4.550982,-4.510529 0,-1.136976 c 0,-0.625338 0.59493,-1.675381 1.322064,-2.333431 l 1.322072,-1.196455 15.82838,0.186684 15.828374,0.186686 3.13596,-3.077704 3.13594,-3.077703 0.19303,-10.199099 0.19302,-10.199101 5.72708,-0.202559 5.72709,-0.202559 0.2242,1.952936 0.22419,1.952937 4.72603,0.207028 4.72602,0.207028 0,-2.160759 0,-2.16076 5.77624,0.203355 5.77625,0.203353 0.19302,10.199101 0.19302,10.199099 3.13595,3.077703 3.13596,3.077704 15.83977,-0.186819 15.83977,-0.186819 1.66075,1.560196 1.66075,1.560196 0,1.125135 0,1.125135 4.20091,4.157072 4.2009,4.157072 0,1.125135 0,1.125136 1.62047,1.522348 1.62047,1.522348 2.7693,0 2.7693,0 6.62378,6.651435 6.62378,6.651435 3.91766,0 3.91764,0 1.52236,1.620467 1.52235,1.620459 0,2.438348 0,2.438348 2.90378,2.767662 2.9038,2.767661 -0.58198,-1.400302 c -0.32009,-0.770166 -0.71045,-3.049283 -0.86748,-5.064709 l -0.28549,-3.664415 1.41974,-2.297198 c 0.78086,-1.263461 2.46382,-3.072673 3.73993,-4.02048 l 2.32019,-1.723275 3.92063,-0.0052 3.92064,-0.0052 2.55649,1.949938 c 1.40608,1.072467 3.02878,2.86321 3.60599,3.979427 l 1.0495,2.029489 0,3.27785 0,3.277842 -1.46124,2.36433 -1.46123,2.364329 -2.97623,1.744179 -2.97622,1.744179 -2.26001,0 c -1.243,0 -2.86942,-0.326147 -3.61427,-0.724781 l -1.35428,-0.724774 0,0.665438 c 0,0.365991 0.9452,1.557555 2.10046,2.647931 l 2.10045,1.982491 0,4.791252 0,4.791251 -10.15219,10.180751 -10.1522,10.18076 0,3.33996 0,3.33997 -4.24374,4.27016 -4.24375,4.27018 -5.18365,0 -5.18367,0 -0.71414,1.33439 c -0.39277,0.7339 -2.16161,2.78184 -3.93073,4.55098 l -3.2166,3.21659 -3.29436,0 -3.29437,0 -3.65187,3.69782 -3.65188,3.6978 0,1.12177 0,1.12179 -2.80262,2.53199 -2.80262,2.532 -9.4087,0 -9.40871,0 -0.43271,-0.70015 -0.43272,-0.70015 -2.05913,0 -2.05913,0 0,5.58474 0,5.58475 -3.85083,4.0397 -3.85083,4.0397 0,1.57797 0,1.57798 -5.37105,0 -5.37104,0 -1.22119,1.10516 -1.22118,1.10515 -1.89447,-1.2413 -1.89447,-1.24129 -0.86749,1.18635 c -1.06327,1.45412 -1.35624,1.47031 -2.4635,0.13615 z"
         style="fill:#ffff00"
         inkscape:connector-curvature="0"
         class="bg" />
      <path
         inkscape:connector-curvature="0"
         id="path5703"
         d="m 15.248006,73.859473 c 1.857503,-1.179742 3.110501,-3.049948 4.246605,-4.886943 0.184511,-1.125462 0.02099,-2.266868 0.08051,-3.399037 -0.675035,-1.648951 -1.839123,-3.027991 -2.652755,-4.602916 -1.505306,-0.410195 -3.069514,0.08063 -4.59019,-0.182099 -1.526045,0.156707 -2.4984823,1.478891 -3.6991424,2.273246 -0.1454821,0.145475 -0.416715,0.255251 -0.489568,0.421338 0.6786648,1.790744 1.3573221,3.58148 2.0359874,5.372224 1.440929,0.141822 2.881851,0.283645 4.322781,0.425468 0.291292,-0.759091 0.582585,-1.518189 0.873878,-2.27728 -0.481577,-0.899688 -0.963117,-1.799392 -1.444619,-2.699118 -0.828845,-0.17596 -1.807391,0.09756 -2.275129,0.841376 -0.923885,-0.386685 -0.06639,-1.751699 0.761802,-1.446478 0.730719,-0.08752 1.477233,-0.772638 2.207421,-0.312062 0.84635,0.548829 1.128449,1.596546 1.512894,2.47017 0.380673,0.945163 0.749994,2.150341 0.08072,3.05528 -0.604303,0.816193 -1.505657,1.332207 -2.273814,1.974202 -1.061325,0.732078 -2.284613,1.177135 -3.468963,1.659332 -0.6306511,0.14059 -1.3509964,0.699165 -1.0246999,1.416531 0.2252881,0.715371 1.0070529,0.78552 1.6376669,0.809344 1.43665,0.100927 2.884779,-0.254885 4.15862,-0.912578 z"
         style="fill:#ffffff;stroke:#000000;stroke-width:0.37341389;stroke-miterlimit:4;stroke-dasharray:none;stroke-opacity:1"
         class="nexus blue" />
      <path
         inkscape:connector-curvature="0"
         id="path5701"
         d="m 244.89756,73.859473 c 1.83412,-1.164238 3.09477,-2.996542 4.19501,-4.826502 0.52852,-2.838573 -0.56989,-6.013562 -2.97113,-7.692281 -1.57264,-0.740465 -3.34793,-0.414729 -5.02031,-0.571637 -0.98453,0.0763 -1.66871,0.902885 -2.17772,1.667674 -0.68631,0.393503 -1.24921,1.34243 -0.75542,2.088175 0.50068,1.22081 0.94386,2.463979 1.41988,3.694393 -0.0184,0.556909 0.58694,0.770853 1.0493,0.715207 1.17157,0.11531 2.34315,0.230628 3.51473,0.345938 0.29129,-0.759091 0.58259,-1.518189 0.87389,-2.27728 -0.48152,-0.899725 -0.96304,-1.799444 -1.44456,-2.69917 -0.80042,-0.03279 -1.60084,-0.06565 -2.40126,-0.09843 1.03918,-0.400441 2.02023,-1.005043 3.1434,-1.145223 0.96763,0.440913 1.15753,1.594993 1.38148,2.520133 0.22079,0.786604 0.42948,1.576546 0.65163,2.362769 -0.53657,0.859166 -1.07313,1.718332 -1.60968,2.577505 -1.91633,0.854878 -3.87471,1.619503 -5.74375,2.57734 -0.13227,0.863855 0.75789,1.49553 1.53442,1.555941 1.4852,0.209111 3.06348,-0.01315 4.36009,-0.79455 z"
         style="fill:#ffffff;stroke:#000000;stroke-width:0.37341389;stroke-miterlimit:4;stroke-dasharray:none;stroke-opacity:1"
         class="nexus red" />
      <path
         d="m 141.40806,4.791573 0,-0.700151 -2.45053,0 -2.45052,0 0,0.700151 0,0.700151 2.45052,0 2.45053,0 0,-0.700151 z m -21.35461,0 0.43272,-0.700151 -2.84193,0 -2.84192,0 0,0.700151 0,0.700151 2.4092,0 2.40922,0 0.43271,-0.700151 z m 21.35461,7.351586 0,-2.450529 -1.4003,0 -1.4003,0 0,2.450529 0,2.450528 1.4003,0 1.4003,0 0,-2.450528 z m -11.33309,-0.175038 0.2194,-2.275491 -1.79475,0 -1.79474,0 0,2.499225 0,2.499225 1.57535,-0.223734 1.57534,-0.223734 0.2194,-2.275491 z m -12.47205,0.175038 0,-2.450529 -1.4003,0 -1.4003,0 0,2.450529 0,2.450528 1.4003,0 1.4003,0 0,-2.450528 z m 23.80514,8.751888 0,-2.100453 -1.4003,0 -1.4003,0 0,2.100453 0,2.100453 1.4003,0 1.4003,0 0,-2.100453 z m -23.80514,0 0,-2.100453 -1.4003,0 -1.4003,0 0,2.100453 0,2.100453 1.4003,0 1.4003,0 0,-2.100453 z m 12.25265,1.050226 0,-2.800604 -1.57534,-0.223734 -1.57535,-0.223734 0,3.248072 0,3.248072 1.57535,-0.223734 1.57534,-0.223733 0,-2.800605 z m 11.82747,11.673998 c 0.19669,-0.318256 0.17854,-1.26346 -0.0403,-2.100453 l -0.39797,-1.521808 -3.06903,0 -3.06902,0 0,1.633686 c 0,2.212702 0.49384,2.567221 3.57613,2.567221 l 2.64259,0 0.35762,-0.578646 z m -20.70789,-1.696845 0.22153,-1.925416 -3.15,0 -3.15,0 -0.44245,1.394037 -0.44245,1.394037 0.45953,0.743534 0.45953,0.743533 2.91138,-0.212155 2.91138,-0.212155 0.22155,-1.925415 z m 28.83472,23.98017 0,-2.100453 4.20091,0 4.20091,0 0,1.050226 0,1.050227 0.87518,-0.02226 c 0.48136,-0.01225 1.42656,-0.440816 2.10046,-0.95237 l 1.22526,-0.930114 0,-2.548379 0,-2.54838 -6.5714,0 -6.57141,0 -1.98071,1.027606 -1.98071,1.027607 0.21645,2.997819 0.21645,2.997826 0.80904,0.514826 c 0.44498,0.28316 1.36041,0.519658 2.03431,0.525558 l 1.22526,0.01075 0,-2.100453 z m -26.47721,0.175042 0.22154,-1.92542 4.55099,0 4.55098,0 0.22154,1.92542 c 0.2434,2.115367 0.23569,2.109019 1.82165,1.500429 l 1.10749,-0.424983 0,-3.205683 0,-3.205684 -1.52234,-1.620465 -1.52236,-1.620465 -4.55884,0 -4.55885,0 -1.62047,1.522347 -1.62047,1.522349 0,3.320364 0,3.320359 0.8752,0.353153 c 1.59761,0.644647 1.83066,0.478791 2.05394,-1.461721 z m -12.55546,-1.225269 0.5829,-2.800601 -1.95468,-1.586285 -1.95469,-1.586286 -6.65144,0.185984 -6.651431,0.185983 -0.227521,1.987333 -0.227513,1.987334 1.21122,1.338382 c 0.66617,0.736111 1.634993,1.338383 2.152933,1.338383 l 0.941712,0 0,-1.050227 0,-1.050226 4.55098,0 4.55098,0 0,2.149154 0,2.149146 1.54683,-0.223735 1.54683,-0.223734 0.58289,-2.800605 z m 44.94416,3.675797 c -0.63613,-2.069482 -0.75928,-2.171611 -2.03046,-1.683813 l -1.08042,0.414602 0,1.422274 0,1.422273 1.79756,0 1.79756,0 -0.48424,-1.575336 z m -52.24999,0.356065 -0.22155,-1.919429 -1.22526,-0.232368 -1.22527,-0.232361 0,1.743373 0,1.743364 0.8752,0.353153 c 0.48135,0.194227 1.13241,0.378014 1.4468,0.408418 l 0.57162,0.05534 -0.22154,-1.91943 z m 64.93181,3.319508 0.0393,-4.900841 -1.12452,0 c -0.6185,0 -1.50262,0.378082 -1.96472,0.840181 l -0.84018,0.840182 0,3.594108 c 0,3.998285 0.27975,4.527741 2.39219,4.527427 l 1.45864,-2.09e-4 0.0393,-4.900848 z m -76.842332,0.818568 0.213608,-3.732623 -0.824446,-0.993393 c -0.453444,-0.546364 -1.416,-0.993393 -2.139012,-0.993393 l -1.314573,0 0,1.017284 c 0,0.559509 0.359761,1.806868 0.799464,2.771919 l 0.799471,1.754642 -1.113102,1.698816 -1.113102,1.698802 0.462466,0.462473 c 0.254362,0.254355 1.26193,0.369239 2.239057,0.255288 l 1.776576,-0.207185 0.213593,-3.73263 z m 58.502222,8.633688 0.40301,-1.050227 4.57296,0 4.57295,0 0,-1.260272 c 0,-0.693146 -0.37808,-1.638353 -0.84018,-2.100453 l -0.84018,-0.840181 -3.53577,-0.02226 -3.53576,-0.02226 -1.35908,-1.027949 c -1.66252,-1.257464 -3.0365,-1.295649 -5.49738,-0.152778 l -1.88451,0.875192 -0.006,0.851623 c -0.003,0.468388 1.01633,1.964963 2.26519,3.325713 l 2.27063,2.474099 1.50528,0 1.50528,0 0.40302,-1.050227 z m -17.27698,-0.472115 1.62046,-1.522356 0,-1.628324 0,-1.628338 -0.94171,0 c -0.51795,0 -1.51198,0.630136 -2.20897,1.400302 l -1.26726,1.400302 -1.88342,0 -1.88342,0 -1.26726,-1.400302 c -0.697,-0.770166 -1.69102,-1.400302 -2.20897,-1.400302 l -0.94171,0 0,1.53022 0,1.530213 1.52234,1.620467 1.52236,1.620459 3.15854,0 3.15855,0 1.62047,-1.522341 z m -20.99275,-0.715461 2.30882,-2.237795 -0.005,-1.087919 -0.005,-1.087919 -1.8845,-0.875185 c -2.42181,-1.124723 -3.73009,-1.07706 -5.41494,0.197305 l -1.35909,1.027956 -3.13676,0 -3.136779,0 -1.280391,1.158748 c -0.704221,0.637305 -1.280391,1.582505 -1.280391,2.100453 l 0,0.941705 4.465251,0 4.46525,0 0.87161,1.050227 c 0.47938,0.577626 1.36941,1.050226 1.97782,1.050226 l 1.1062,0 2.30882,-2.237802 z m 73.24317,7.975732 1.88137,-1.963724 0,-6.5836 0,-6.583601 -2.59262,-2.655092 -2.59263,-2.655085 -1.81833,0 -1.81832,0 -0.84018,0.840181 -0.84019,0.840182 0,8.549624 0,8.549618 2.15418,1.81261 2.15417,1.812619 1.21559,0 1.2156,0 1.88136,-1.963732 z m -107.395919,0.151113 2.154172,-1.81261 0,-8.549618 0,-8.549624 -0.840181,-0.840182 -0.840181,-0.840181 -1.755867,0 -1.75586,0 -2.655092,2.592628 -2.655085,2.59262 0,6.646065 0,6.646065 1.881372,1.963724 1.881363,1.963732 1.215597,0 1.215589,0 2.154173,-1.812619 z m 131.564769,1.919139 0.23271,-1.643865 -1.60994,-1.713694 -1.60994,-1.713701 -1.77346,0.206879 -1.77345,0.206879 -0.23271,1.643857 -0.23271,1.643865 1.60993,1.713694 1.60994,1.713701 1.77345,-0.206879 1.77346,-0.206879 0.23272,-1.643857 z m -156.780864,0.312069 1.580026,-1.681849 -0.232712,-1.643865 -0.232711,-1.643857 -1.643865,-0.232712 -1.643858,-0.232711 -1.681856,1.580026 -1.681856,1.580019 0,1.511639 c 0,1.904202 0.540972,2.445174 2.445174,2.445174 l 1.511639,0 1.580019,-1.681864 z m 77.548794,13.880213 0.42383,-1.104514 -1.14597,-1.14597 -1.14596,-1.14597 -1.14597,1.14597 -1.14597,1.14597 0.42384,1.104514 0.42385,1.104521 1.44425,0 1.44425,0 0.42385,-1.104521 z m 7.93402,2.154747 0,-1.050226 -1.4003,0 c -1.39488,0 -1.82118,0.746036 -0.93354,1.633685 0.25671,0.256722 0.88685,0.466768 1.4003,0.466768 l 0.93354,0 0,-1.050227 z m -17.15371,-0.350075 0,-1.050227 -1.57534,-0.223735 -1.57534,-0.223734 0,1.497696 0,1.497688 1.57534,-0.223727 1.57534,-0.223735 0,-1.050226 z m 86.75241,2.169676 1.94605,-2.031222 -0.24687,-1.294499 -0.24685,-1.294484 -1.64376,-0.233638 -1.64375,-0.233637 -2.02488,1.939975 c -1.1137,1.066977 -2.0249,2.290602 -2.0249,2.71917 0,1.139211 1.50828,2.459562 2.80965,2.459562 l 1.12928,0 1.94603,-2.031227 z m -153.35791,0.481353 0.75201,-1.199794 -2.066465,-2.15692 -2.066457,-2.156921 -1.758742,0.206035 -1.758735,0.206042 -0.245699,1.294484 -0.245691,1.294499 1.97288,2.059236 1.97288,2.059243 1.346,-0.20306 c 0.740301,-0.11168 1.68441,-0.742954 2.098019,-1.402844 z m 92.73263,5.279664 -0.22153,-1.87142 -0.8752,-0.28738 -0.87518,-0.28738 0,2.15881 0,2.15879 1.09673,0 1.09672,0 -0.22154,-1.87142 z m -35.06298,0.46308 c 0.10022,-0.57321 -0.0972,-1.47639 -0.43879,-2.00708 l -0.62099,-0.96489 -0.77843,0.4811 -0.77843,0.48109 0,1.7604 0,1.76039 1.21723,-0.23441 1.21722,-0.23442 0.18219,-1.04218 z m 26.08956,2.10849 0,-1.4003 -1.00891,0 c -0.5549,0 -1.20363,0.31506 -1.44162,0.70015 l -0.43272,0.70015 0.43272,0.70015 c 0.23799,0.38508 0.88672,0.70015 1.44162,0.70015 l 1.00891,0 0,-1.4003 z m -16.93538,0.18308 -0.23441,-1.21723 -1.21722,-0.23441 -1.21723,-0.23442 0,1.45164 0,1.45164 1.45164,0 1.45165,0 -0.23443,-1.21722 z m 46.20169,1.77734 c 0.4621,-0.4621 0.84018,-1.44234 0.84018,-2.17832 l 0,-1.33814 -2.8658,-3.42289 -2.8658,-3.42288 -3.30457,0 -3.30457,0 -2.01235,-2.100453 c -2.20331,-2.299759 -3.08062,-2.508199 -5.43568,-1.291482 -0.86121,0.444937 -2.03844,1.028486 -2.61606,1.296769 l -1.05023,0.487798 -0.23655,1.60158 -0.23653,1.601578 1.61102,-0.421292 1.61103,-0.4213 1.25108,1.132212 1.25108,1.13222 0,2.55206 0,2.55206 0.84019,0.84018 0.84018,0.84018 5.41985,0 5.41987,0 0.43271,0.70015 c 0.59813,0.9678 3.39181,0.8791 4.41095,-0.14003 z m -73.725912,0.14003 0.432712,-0.70015 5.419864,0 5.419856,0 0.84018,-0.84018 0.84018,-0.84018 0,-2.43041 0,-2.4304 1.15875,-1.2804 1.15874,-1.280389 1.29179,0 1.29178,0 -0.0181,-1.225268 -0.0181,-1.225261 -2.66184,-1.225268 c -3.49801,-1.610146 -3.70091,-1.580818 -6.05392,0.875193 l -2.01236,2.100453 -3.260162,0 -3.260173,0 -2.910193,3.45133 -2.910209,3.45132 0,1.30971 c 0,0.72033 0.378082,1.68777 0.840181,2.14987 1.019137,1.01913 3.812818,1.10783 4.410952,0.14003 z m 96.270772,2.29433 0,-1.90657 -4.35571,-4.39478 -4.35572,-4.39479 -1.03214,0 c -1.14355,0 -4.9596,3.39124 -4.9596,4.4075 0,0.3546 1.63622,2.3436 3.63604,4.41998 l 3.63604,3.77524 3.71554,0 3.71555,0 0,-1.90658 z M 77.53962,109.43159 c 2.010497,-2.13587 3.655445,-4.12486 3.655445,-4.42 0,-0.91558 -3.87266,-4.29933 -4.920527,-4.29933 l -0.993079,0 -4.394783,4.35572 -4.394783,4.35572 0,1.94564 0,1.94564 3.696141,0 3.696132,0 3.655454,-3.88339 z m 72.97041,5.7738 0,-2.3105 -0.84019,-0.84018 c -0.46209,-0.4621 -1.56484,-0.84018 -2.45052,-0.84018 l -1.61035,0 0,2.68391 c 0,3.20933 0.32913,3.61745 2.91729,3.61745 l 1.98377,0 0,-2.3105 z m -40.0434,-1.01522 0.2153,-2.97564 -1.65061,0 c -0.90783,0 -2.02869,0.37808 -2.49079,0.84018 l -0.84018,0.84018 0,1.84373 c 0,2.35114 0.56914,2.89155 2.77441,2.63437 l 1.77657,-0.20718 0.2153,-2.97564 z m 66.24179,5.00119 1.1075,-0.42499 0,-1.11702 0,-1.11703 -2.22966,-2.30041 -2.22964,-2.30041 -1.27111,1.15033 c -1.70361,1.54174 -1.60837,2.25502 0.61027,4.57078 2.00502,2.0928 2.28701,2.20093 4.01264,1.53875 z m -93.129152,-1.60625 1.946039,-2.03122 -0.247745,-1.28645 -0.247745,-1.28645 -1.286456,-0.24775 -1.286448,-0.24775 -2.031222,1.94604 c -2.217362,2.12437 -2.474248,3.06143 -1.191049,4.34463 1.2832,1.2832 2.220259,1.02631 4.344626,-1.19105 z m 55.276022,6.61565 1.85262,-1.71695 0,-2.34393 0,-2.34393 -0.84018,-0.84018 -0.84018,-0.84018 -3.7108,0 -3.7108,0 0,4.90105 0,4.90106 2.69836,0 2.69836,0 1.85262,-1.71694 z m -14.25086,-3.18412 0,-4.90105 -3.7108,0 -3.7108,0 -0.84018,0.84018 -0.84018,0.84018 0,2.09714 0,2.09716 1.88137,1.96373 1.88137,1.96372 2.66961,0 2.66961,0 0,-4.90106 z m 27.09631,6.23089 0.77062,-0.77062 2.49517,0.90227 2.49519,0.90226 1.60025,-0.82122 1.60025,-0.82123 4.55098,-0.1856 4.55098,-0.18561 0.2123,-1.48806 0.21229,-1.48808 -1.17835,-1.17835 -1.17835,-1.17836 -7.78584,0.33018 c -4.2822,0.18161 -9.14244,0.54983 -10.80052,0.81828 l -3.01469,0.48808 0.21409,1.83194 0.21409,1.83193 1.75037,0.88109 c 2.15363,1.08406 2.33114,1.09114 3.29117,0.1311 z m -49.6237,-0.087 0.85766,-0.85766 1.41206,0.88185 1.41207,0.88185 1.89618,-0.90455 1.89617,-0.90456 0.22155,-1.92024 0.22154,-1.92024 -2.45571,0 -2.45572,0 -0.43271,-0.70015 -0.43272,-0.70016 -7.870389,0 -7.870385,0 -0.840181,0.84019 -0.840181,0.84018 0,1.96042 0,1.96042 4.859735,0 4.859743,0 0.432712,0.70016 0.432712,0.70015 1.919108,0 1.919106,0 0.85765,-0.85766 z m 37.93072,22.56234 0,-1.4003 -1.75038,0 -1.75037,0 0,1.4003 0,1.4003 1.75037,0 1.75038,0 0,-1.4003 z m -20.30439,0 0,-1.4003 -1.75038,0 -1.75037,0 0,1.4003 0,1.4003 1.75037,0 1.75038,0 0,-1.4003 z m 21.57616,8.22678 0.22153,-1.92542 -2.8471,0 -2.84711,0 0,1.63368 c 0,2.14203 0.2982,2.37034 2.98732,2.28716 l 2.26382,-0.07 0.22154,-1.92542 z m -21.00454,0 0.22154,-1.92542 -2.84711,0 -2.8471,0 0,1.63368 c 0,2.19794 0.61056,2.67173 3.12551,2.42536 l 2.12562,-0.20821 0.22154,-1.92541 z m 21.13307,9.62707 0,-1.05023 -1.4003,0 -1.4003,0 0,1.05023 0,1.05023 1.4003,0 1.4003,0 0,-1.05023 z m -23.80514,0 0,-1.05023 -1.4003,0 -1.4003,0 0,1.05023 0,1.05023 1.4003,0 1.4003,0 0,-1.05023 z"
         style="fill:#ffffff;stroke:#000000;stroke-width:0.37341389;stroke-miterlimit:4;stroke-dasharray:none;stroke-opacity:1"
         id="path5659"
         inkscape:connector-curvature="0"
         class="terrain" />
    </g>
  </g>
</svg>
